<svg xmlns="http://www.w3.org/2000/svg" width="1674" height="1720" fill="none"><g clip-path="url(#a)"><path fill="url(#b)" d="M0 0h1674v1695H0z"/><path fill="#fff" fill-opacity=".14" d="M1692.8 1127.55c-56.2-13.2-113.5-1.3-144.4 41.4s-83.2 48.7-108.2 41.5c-127.2-40.3-104.6 96.5-228.2 64.1-88.4-16.6-110.4 44.6-168.4 74.1-27.7 13.1-51.497 16.8-88.097 9.4-34.8-9-77-5.3-98.7 5.7-18.4 7.7-34.4 19.7-46.3 36.2-30.9 42.7-82.6 48.1-107.5 41-25-7.1-73.7-17.8-108.2 21.4-89.5 108.6-138-21-247.3 87.8-13.7 13-33.7 27.7-59.6 35.9-23.6 9.1-54.8 8.1-85.5.5-35-6.3-66.1-1-86.2 8.2-18.4 7.7-34.4 19.7-46.3 36.2-30.9 42.7-82.6 48.1-107.5 41-25-7.1-73.7-17.8-108.2 21.4-89.8 108.7-138-21-247.3 87.8-13.1 12.4-32 27-56.2 35.4-2.9 1-73.6 2.8-73.8 2.8-.4-.1 60.9 503.2 60.9 503.2l13-4 2202.197-688 28.3-513.1c-8.3 5.5-45.4 20.3-88.5 10.1"/><path fill="#fff" fill-opacity=".14" d="m660.62 1725.85 112.5-250.7c-18.8 5.4-56.2 1.8-82-25.6-19.3-21.4-49.3-55-125.8-38.2-49 10.8-84.2-13.7-103.8-32.3s-56.8-49-104.8-37.2-70.5-2.9-98.9-35.3c-28.4-32.3-68.6-23.5-89.1-17.6-18.8 5.4-56.2 1.8-82-25.6-19.3-21.4-49.3-55.1-125.8-38.2-49 10.8-84.2-13.7-103.8-32.3s-56.8-49-104.8-37.2-70.5-2.9-98.9-35.3c-28.4-32.3-68.6-23.5-89.1-17.6-18.8 5.4-56.2 1.8-82-25.6-19.3-21.4-49.3-55.1-125.8-38.2-49 10.8-84.2-13.7-103.8-32.3l-119.1 269.1z"/><path fill="url(#c)" d="m240.823 1579.95 44.251-98.61c-7.395 2.12-22.106.7-32.254-10.07-7.592-8.42-19.392-21.64-49.483-15.03-19.274 4.25-33.12-5.39-40.83-12.71-7.709-7.31-22.342-19.27-41.223-14.63-18.88 4.64-27.73-1.14-38.902-13.88-11.17-12.71-26.983-9.25-35.047-6.93-7.395 2.13-22.106.71-32.255-10.07-7.591-8.41-19.392-21.67-49.483-15.02-19.274 4.25-33.12-5.39-40.83-12.71-7.709-7.31-22.341-19.27-41.222-14.63s-27.731-1.14-38.902-13.88c-11.171-12.71-26.984-9.25-35.047-6.93-7.395 2.13-22.107.71-32.255-10.07-7.592-8.41-19.392-21.67-49.483-15.02-19.274 4.25-33.12-5.39-40.83-12.71l-46.847 105.85z"/><path fill="#8CACFF" fill-rule="evenodd" d="M1362.98 1476.87c-96.37 91.3-196.32 142.28-223.24 113.86-26.93-28.42 29.37-125.47 125.73-216.77 96.37-91.31 196.32-142.29 223.25-113.87 26.92 28.42-29.37 125.48-125.74 216.78m-14.9-15.72c-70.93 67.2-144.24 104.98-163.76 84.38-19.51-20.6 22.17-91.77 93.09-158.97 70.93-67.2 144.25-104.98 163.76-84.38 19.52 20.59-22.16 91.77-93.09 158.97m10.31 10.88c-46.45 44.01-93.66 78.36-132.41 98.33-19.39 9.98-36.6 16.34-50.52 18.54-13.95 2.21-24.33.2-30.38-6.19s-7.5-16.86-4.55-30.68c2.95-13.77 10.23-30.62 21.25-49.44 22.03-37.61 58.87-82.9 105.32-126.91 46.46-44.01 93.67-78.36 132.42-98.33 19.38-9.99 36.59-16.35 50.51-18.55 13.95-2.21 24.33-.19 30.39 6.2 6.05 6.39 7.5 16.86 4.54 30.67-2.94 13.78-10.22 30.63-21.24 49.44-22.03 37.62-58.88 82.91-105.33 126.92m.69.72c-93 88.12-189.14 137.65-214.73 110.65-25.58-27.01 29.07-120.33 122.07-208.45 93-88.11 189.13-137.65 214.72-110.64s-29.06 120.33-122.06 208.44m-127.39 87.84c36.18-18.64 80.26-50.71 123.63-91.8s77.78-83.38 98.34-118.5c10.29-17.56 17.08-33.29 19.83-46.14 2.76-12.9 1.4-22.65-4.23-28.59s-15.29-7.82-28.31-5.76c-12.99 2.05-29.05 7.99-47.15 17.31-36.18 18.64-80.25 50.71-123.63 91.81-43.37 41.09-77.77 83.37-98.34 118.49-10.28 17.57-17.08 33.29-19.83 46.15-2.76 12.89-1.4 22.64 4.23 28.58s15.29 7.83 28.32 5.77c12.98-2.05 29.05-7.99 47.14-17.32m-76.19 12.24c23.9 25.22 113.67-21.04 200.51-103.32 86.84-82.27 137.87-169.42 113.98-194.64-23.89-25.21-113.66 21.04-200.5 103.32-86.85 82.28-137.88 169.42-113.99 194.64m196.44-107.61c-39.98 37.87-80.6 67.43-113.94 84.61-16.68 8.59-31.48 14.06-43.44 15.95-11.99 1.89-20.87.16-26.03-5.29s-6.42-14.41-3.88-26.28c2.53-11.84 8.79-26.32 18.27-42.51 18.96-32.37 50.66-71.34 90.64-109.21 39.97-37.88 80.6-67.43 113.94-84.61 16.67-8.6 31.47-14.06 43.43-15.95 12-1.9 20.87-.16 26.03 5.29s6.42 14.4 3.88 26.28c-2.53 11.83-8.79 26.32-18.27 42.51-18.95 32.36-50.66 71.33-90.63 109.21m.68.72c-80.04 75.84-162.79 118.48-184.81 95.24-22.03-23.25 25.01-103.58 105.06-179.42s162.79-118.48 184.82-95.23c22.02 23.25-25.02 103.57-105.07 179.41" clip-rule="evenodd"/><path fill="#CCA7E9" fill-rule="evenodd" d="M1072.05 1639.7c34.94 38.65 170.64-27.08 303.11-146.81 132.46-119.74 211.52-248.14 176.58-286.79s-170.65 27.08-303.11 146.81c-132.46 119.74-211.52 248.14-176.58 286.79m13.38-12.09c32.99 36.5 161.12-25.57 286.2-138.63 125.07-113.05 199.72-234.29 166.73-270.79s-161.12 25.57-286.2 138.63c-125.08 113.05-199.73 234.29-166.73 270.79" clip-rule="evenodd"/><path fill="url(#d)" fill-rule="evenodd" d="M947.052 1752.69c53.148 58.79 259.578-41.19 461.078-223.33 201.49-182.14 321.76-377.45 268.61-436.25-53.15-58.79-259.58 41.19-461.08 223.33-201.49 182.13-321.756 377.45-268.608 436.25m60.788-54.95c44.29 49 216.33-34.33 384.25-186.12 167.93-151.79 268.15-314.56 223.86-363.56s-216.33 34.33-384.25 186.12c-167.93 151.79-268.152 314.56-223.86 363.56" clip-rule="evenodd"/><mask id="e" width="313" height="313" x="1147" y="1270" maskUnits="userSpaceOnUse" style="mask-type:alpha"><circle cx="1303.09" cy="1426.11" r="156" fill="#D9D9D9" transform="rotate(23.66 1303.09 1426.11)"/></mask><g mask="url(#e)"><circle cx="1303.09" cy="1426.11" r="156" fill="#fff" transform="rotate(23.66 1303.09 1426.11)"/><mask id="g" width="321" height="321" x="1147" y="1272" maskUnits="userSpaceOnUse" style="mask-type:alpha"><circle cx="1307.11" cy="1432.27" r="159.917" fill="url(#f)" transform="rotate(23.66 1307.11 1432.27)"/></mask><g mask="url(#g)"><circle cx="1307.11" cy="1432.27" r="159.917" fill="url(#h)" transform="rotate(23.66 1307.11 1432.27)"/><path fill="url(#i)" fill-rule="evenodd" d="M1243.8 1261.88c-8.6 8.6-22.55 8.6-31.15 0l-15.54-15.54c-7.11-7.12-18.65-7.12-25.77 0s-7.12 18.65 0 25.77l93.39 93.39c6.9 6.91 18.09 6.91 25 0 6.9-6.9 18.09-6.9 25 0l15.54 15.54c8.81 8.82 23.1 8.82 31.92 0 8.81-8.81 8.81-23.1 0-31.92l-87.25-87.24c-8.6-8.6-22.54-8.6-31.14 0" clip-rule="evenodd"/></g><path fill="#fff" fill-opacity=".07" d="M1329 1301.86c-27.93-33.92-92.98-29.83-122.01-23.55l70.16-33.75c52.9 11.35 158.91 48.13 159.72 104.56 1 70.53-64.03 114-143.76 111.77-63.79-1.78-97.74 26.03-106.75 40.15l-81.88-35.88c-3.94-1.72-36.3-2.82-4.03-40.08 32.28-37.25 134.19-44.94 177.52-47.45s85.95-33.37 51.03-75.77"/><path fill="#BDDAE3" fill-opacity=".28" d="M1200.38 1360.22c-1.05-5.02 7.38-7.15 11.73-7.6 17.98-.24 13.46 10.2 3.81 11.7-6.39.99-14.6.37-15.54-4.1"/><path fill="#fff" fill-opacity=".28" d="M1404.36 1380.48c-4.41-2.61-.29-10.27 2.32-13.77 11.98-13.42 16.62-3.03 11.2 5.09-3.59 5.38-9.59 11.01-13.52 8.68M1274.23 1461.35c-.42-6.56 9.03-10.53 13.8-11.69 19.53-2.7 13.12 11.85 2.45 15.11-7.07 2.17-15.87 2.43-16.25-3.42"/><circle cx="1336.49" cy="1451.49" r="156" fill="url(#j)" fill-opacity=".12" transform="rotate(23.66 1336.49 1451.49)"/><path fill="url(#k)" fill-rule="evenodd" d="M1380.8 1430.88c-8.6 8.6-22.55 8.6-31.15 0l-15.54-15.54c-7.11-7.12-18.65-7.12-25.77 0s-7.12 18.65 0 25.77l93.39 93.39c6.9 6.91 18.09 6.91 25 0 6.9-6.9 18.09-6.9 25 0l15.54 15.54c8.81 8.82 23.1 8.82 31.92 0 8.81-8.81 8.81-23.1 0-31.92l-87.25-87.24c-8.6-8.6-22.54-8.6-31.14 0" clip-rule="evenodd"/><path fill="url(#l)" fill-rule="evenodd" d="M1162.8 1434.88c-8.6 8.6-22.55 8.6-31.15 0l-15.54-15.54c-7.11-7.12-18.65-7.12-25.77 0s-7.12 18.65 0 25.77l93.39 93.39c6.9 6.91 18.09 6.91 25 0 6.9-6.9 18.09-6.9 25 0l15.54 15.54c8.81 8.82 23.1 8.82 31.92 0 8.81-8.81 8.81-23.1 0-31.92l-87.25-87.24c-8.6-8.6-22.54-8.6-31.14 0" clip-rule="evenodd"/><circle cx="1236.51" cy="1250.5" r="95.537" stroke="#fff" stroke-opacity=".22" transform="rotate(23.66 1236.51 1250.5)"/><g filter="url(#m)"><circle cx="1289.5" cy="1289.5" r="58.5" fill="#FFBEB0" fill-opacity=".48"/></g></g><mask id="n" width="355" height="241" x="1182" y="1324" maskUnits="userSpaceOnUse" style="mask-type:alpha"><path fill="#D9D9D9" d="m1418.5 1324 118 110-79.5 130.5-275-6z"/></mask><g fill-rule="evenodd" clip-rule="evenodd" mask="url(#n)"><path fill="#8BACFF" d="M1362.98 1476.87c-96.37 91.3-196.32 142.28-223.24 113.86-26.93-28.42 29.37-125.47 125.73-216.77 96.37-91.31 196.32-142.29 223.25-113.87 26.92 28.42-29.37 125.48-125.74 216.78m-14.9-15.72c-70.93 67.2-144.25 104.98-163.76 84.38s22.16-91.77 93.09-158.97 144.25-104.98 163.76-84.38c19.52 20.59-22.16 91.77-93.09 158.97m10.31 10.88c-46.45 44.01-93.66 78.36-132.41 98.33-19.39 9.98-36.6 16.34-50.52 18.54-13.95 2.21-24.33.2-30.38-6.19s-7.5-16.86-4.55-30.68c2.95-13.77 10.23-30.62 21.25-49.44 22.03-37.61 58.87-82.9 105.32-126.91 46.46-44.01 93.67-78.36 132.42-98.33 19.38-9.99 36.59-16.35 50.51-18.55 13.95-2.21 24.33-.19 30.39 6.2 6.05 6.39 7.5 16.86 4.54 30.67-2.94 13.78-10.22 30.63-21.24 49.44-22.03 37.62-58.88 82.91-105.33 126.92m.69.72c-93 88.12-189.14 137.65-214.73 110.65-25.58-27.01 29.07-120.33 122.07-208.45 93-88.11 189.13-137.65 214.72-110.64s-29.06 120.33-122.06 208.44m-127.39 87.84c36.18-18.64 80.26-50.71 123.63-91.8s77.78-83.38 98.34-118.5c10.29-17.56 17.08-33.29 19.83-46.14 2.76-12.9 1.4-22.65-4.23-28.59s-15.29-7.82-28.31-5.76c-12.99 2.05-29.05 7.99-47.15 17.31-36.18 18.64-80.25 50.71-123.63 91.81-43.37 41.09-77.77 83.37-98.34 118.49-10.28 17.57-17.08 33.29-19.83 46.15-2.76 12.89-1.4 22.64 4.23 28.58s15.29 7.83 28.32 5.77c12.98-2.05 29.05-7.99 47.14-17.32m-76.19 12.24c23.9 25.22 113.67-21.04 200.51-103.32 86.84-82.27 137.87-169.42 113.98-194.64-23.89-25.21-113.66 21.04-200.5 103.32-86.85 82.28-137.88 169.42-113.99 194.64m196.44-107.61c-39.98 37.87-80.6 67.43-113.94 84.61-16.68 8.59-31.48 14.06-43.44 15.95-11.99 1.9-20.87.16-26.03-5.29s-6.42-14.4-3.88-26.28c2.53-11.84 8.79-26.32 18.27-42.51 18.96-32.37 50.66-71.34 90.64-109.21 39.97-37.88 80.6-67.43 113.94-84.61 16.67-8.6 31.47-14.06 43.43-15.95 12-1.9 20.87-.16 26.03 5.29s6.42 14.4 3.88 26.28c-2.53 11.83-8.79 26.32-18.27 42.51-18.95 32.36-50.66 71.33-90.63 109.21m.68.72c-80.04 75.84-162.79 118.48-184.81 95.24-22.03-23.25 25.01-103.58 105.06-179.42s162.79-118.48 184.82-95.23c22.02 23.25-25.02 103.57-105.07 179.41"/><path fill="#CCA7E9" d="M1072.05 1639.7c34.94 38.65 170.64-27.08 303.11-146.81 132.46-119.74 211.52-248.14 176.58-286.79s-170.65 27.08-303.11 146.81c-132.46 119.74-211.52 248.14-176.58 286.79m13.38-12.09c32.99 36.5 161.12-25.57 286.2-138.63 125.07-113.05 199.72-234.29 166.73-270.79s-161.12 25.57-286.2 138.63c-125.08 113.05-199.73 234.29-166.73 270.79"/><path fill="url(#o)" d="M947.052 1752.69c53.148 58.79 259.578-41.19 461.078-223.33 201.49-182.14 321.76-377.45 268.61-436.25-53.15-58.79-259.58 41.19-461.08 223.33-201.5 182.13-321.756 377.45-268.608 436.25m60.788-54.95c44.29 49 216.33-34.33 384.25-186.12 167.93-151.79 268.15-314.56 223.86-363.56s-216.33 34.33-384.25 186.12c-167.93 151.79-268.152 314.56-223.86 363.56"/></g><circle cx="132.918" cy="1144.92" r="211.367" fill="url(#p)" opacity=".4" transform="rotate(-135 132.918 1144.92)"/><circle cx="132.918" cy="1144.92" r="159.742" fill="url(#q)" opacity=".2" transform="rotate(-135 132.918 1144.92)"/><g filter="url(#r)"><circle cx="128.227" cy="1143.98" r="117.096" fill="#fff" fill-opacity=".18" transform="rotate(-135 128.227 1143.98)"/></g><circle cx="130.103" cy="1145.39" r="114.774" fill="#fff" transform="rotate(-135 130.103 1145.39)"/><mask id="t" width="236" height="236" x="15" y="1027" maskUnits="userSpaceOnUse" style="mask-type:alpha"><circle cx="132.918" cy="1144.92" r="117.096" fill="url(#s)" transform="rotate(-135 132.918 1144.92)"/></mask><g mask="url(#t)"><circle cx="132.918" cy="1144.92" r="117.096" fill="url(#u)" transform="rotate(-135 132.918 1144.92)"/><path stroke="url(#v)" stroke-opacity=".03" stroke-width="3" d="M1.121 1136.5c16.134-8.85 54.122-19.71 77.01 7.65 28.611 34.21 54.173 45.28 105.283 14.84"/><path stroke="url(#w)" stroke-opacity=".03" stroke-width="16" d="M-4.04 1155.73c16.134-8.85 54.123-19.71 77.01 7.66 28.611 34.21 54.173 45.27 105.283 14.83"/><path stroke="url(#x)" stroke-opacity=".05" stroke-width="28" d="M-.78 1195.58c3.752-23.92 35.853-36.37 60.528-10.6 30.844 32.2 61.516 77.01 110.465 43.21"/><g filter="url(#y)"><circle cx="205.336" cy="1102.34" r="38.5" fill="#FFBEB0" fill-opacity=".31"/></g><path fill="#fff" fill-opacity=".22" d="M153.487 1000.31a34.88 34.88 0 0 1 36.013 8.31l147.005 147.01c9.581 9.58-.922 25.39-13.469 20.28a13 13 0 0 0-3.459-.89c-13.881-1.61-106.395-14.36-150.741-71.81-26.245-34-32.744-61.95-33.715-78.97-.648-11.35 7.615-20.23 18.366-23.93"/><rect width="128.367" height="16.78" x="68.701" y="1027.84" fill="#fff" fill-opacity=".28" rx="8.39" transform="rotate(45 68.701 1027.84)"/><rect width="94.66" height="5.758" x="172.247" y="1180.18" fill="#fff" fill-opacity=".43" rx="2.879" transform="rotate(45 172.247 1180.18)"/><rect width="94.66" height="5.758" x="203.907" y="1189.84" fill="#fff" fill-opacity=".43" rx="2.879" transform="rotate(45 203.907 1189.84)"/><rect width="24.661" height="3.841" x="29.552" y="1106.21" fill="#FFE8DA" rx="1.92" transform="rotate(45 29.552 1106.21)"/><g filter="url(#z)"><circle cx="209.5" cy="1126.5" r="38.5" fill="#fff" fill-opacity=".53"/></g></g><g filter="url(#A)"><path stroke="url(#B)" stroke-width="2" d="M63.748 1173.02c5.003 1.63 9.42-3.5 10.535-8.69 1.772-8.25-13.615-9.87-20.863-4.92s4.074 11.58 10.328 13.61Z"/></g><path fill="#FFE8DA" stroke="url(#C)" stroke-width="2" d="M66.538 1173.3c5.066 1.69 9.478-3.45 10.555-8.68 1.712-8.31-13.84-10.08-21.11-5.16-7.272 4.93 4.221 11.73 10.554 13.84Z"/><g filter="url(#D)"><path stroke="url(#E)" stroke-width="3" d="M120.017 1226.34c14.62 4.84 27.401-10.04 30.551-25.15 5.009-24.02-49.671-37.54-60.932-14.74-9.494 19.22 12.105 33.84 30.381 39.89Z"/></g><path fill="#fff" fill-opacity=".37" stroke="url(#F)" stroke-width="2" d="M121.931 1232.39c14.62 4.84 27.401-10.04 30.551-25.14 5.009-24.02-49.671-37.54-60.932-14.75-9.494 19.23 12.106 33.85 30.381 39.89Z"/><mask id="G" width="792" height="169" x="609" y="1403" maskUnits="userSpaceOnUse" style="mask-type:alpha"><path fill="#D9D9D9" stroke="#fff" stroke-linecap="round" stroke-opacity=".24" stroke-width="1.5" d="M1147.57 1470.27c90.35-28.85 185.78 21.54 252.41 74.55v25.68L610 1553.1c103.712-44.45 292.502-149.1 365.91-149.1 55.81 0 118.27 83.32 171.66 66.27Z"/></mask><g mask="url(#G)"><path fill="#91B5CA" stroke="#fff" stroke-linecap="round" stroke-opacity=".24" stroke-width="1.5" d="M1147.57 1470.27c90.35-28.85 185.78 21.54 252.41 74.55v25.68L610 1553.1c103.712-44.45 292.502-149.1 365.91-149.1 55.81 0 118.27 83.32 171.66 66.27Z"/><mask id="I" width="792" height="173" x="609" y="1404" maskUnits="userSpaceOnUse" style="mask-type:alpha"><path fill="url(#H)" stroke="#fff" stroke-linecap="round" stroke-opacity=".24" stroke-width="1.5" d="M1147.64 1473.17c90.46-28.06 185.69 23.16 252.1 76.76l-.1 25.68-789.9-24.3c103.89-43.55 293.102-146.55 366.509-145.91 55.811.49 117.931 84.36 171.391 67.77Z"/></mask><g mask="url(#I)"><path fill="url(#J)" stroke="#fff" stroke-linecap="round" stroke-opacity=".24" stroke-width="1.5" d="M1147.64 1473.17c90.46-28.06 185.69 23.16 252.1 76.76l-.1 25.68-789.9-24.3c103.89-43.55 293.102-146.55 366.509-145.91 55.811.49 117.931 84.36 171.391 67.77Z"/><path fill="#000" fill-opacity=".21" stroke="#fff" stroke-opacity=".24" d="M850.552 1573.81c-30.492-68.75-144.557-114.31-149.639-117.62-6.776 48.37 21.646 124.53 36.704 156.56l508.773-29 77.36-77.86-37.83-49.7c-169.41 117.62-63.81 98.57-193.12 98.57-46.58 0-87.53-94.2-139.477-78.69-63.808 19.05-72.278 166.5-102.771 97.74Z"/><path stroke="#fff" stroke-opacity=".24" stroke-width="2" d="M1026.73 1396.54c-2.63 33.69-54.321 91.79-239.986 54.68-232.082-46.39 185.214 133.36 263.136-14.91 77.93-148.28 41.79 147.44 275.57 81.18 233.77-66.27-137.79 62.95-135.53-91.12"/><g filter="url(#K)"><ellipse cx="90.176" cy="68.058" fill="#ECD9A8" fill-opacity=".3" rx="90.176" ry="68.058" transform="matrix(.92395 .3825 -.18891 .982 944.411 1301.02)"/><path stroke="#fff" stroke-opacity=".24" d="M1097.73 1436.65c-3.51 18.26-15.93 31.02-33.24 36.83-17.3 5.82-39.46 4.69-62.38-4.8-22.916-9.48-42.213-25.52-54.89-43.75s-18.718-38.62-15.204-56.89c3.515-18.27 15.933-31.02 33.236-36.84s39.468-4.69 62.388 4.8c22.91 9.49 42.21 25.52 54.89 43.75 12.67 18.23 18.71 38.63 15.2 56.9Z"/></g></g></g><mask id="L" width="796" height="114" x="96" y="1438" maskUnits="userSpaceOnUse" style="mask-type:alpha"><path fill="#D9D9D9" d="M471.5 1438.5c177 0 343.833 66.17 420 100l-795.5 13c62.333-44.17 223.33-113 375.5-113"/></mask><g mask="url(#L)"><path fill="#91B5CA" d="M471.5 1438.5c177 0 343.833 66.17 420 100l-795.5 13c62.333-44.17 223.33-113 375.5-113"/><path fill="url(#M)" d="M467.5 1439.5c177 0 343.833 66.17 420 100l-795.5 13c62.333-44.17 223.33-113 375.5-113"/><path stroke="#fff" stroke-opacity=".13" stroke-width="10" d="M510 1480.5c121.5 0 224.833 51.5 248.5 70.5 13.2 50.8-433.667-8.83-604.5-34 96.167-53.5 272-141.6 206-66-82.5 94.5 80.478 29.5 150 29.5Z"/><g filter="url(#N)"><ellipse cx="630.5" cy="1437.5" fill="#A8AFEC" fill-opacity=".3" rx="101.5" ry="55.5" transform="rotate(15.76 630.5 1437.5)"/></g><path stroke="#6BBACB" stroke-opacity=".2" stroke-width="3" d="M766.5 1489.5c-68.167-1.83-208.1-15.6-222.5-56"/><path fill="#000" fill-opacity=".27" d="M226.461 1478.23c12.98 3.83 66.18 40.63 91.157 58.55l-21.562 10.46-123.65-12.09c12.61-20.57 41.074-60.76 54.055-56.92"/></g><g filter="url(#O)"><circle cx="11.5" cy="11.5" r="11.5" fill="#D9D9D9" transform="matrix(-1 0 0 1 300 1514)"/></g><mask id="P" width="21" height="27" x="279" y="1511" maskUnits="userSpaceOnUse" style="mask-type:alpha"><path fill="#D9D9D9" d="m285.77 1514.96 4.854-3.79 5.419 5.65 2.966 10.65-.603 5.53-10.821 5-7.698-4.86-.854-9z"/></mask><g mask="url(#P)"><path fill="url(#Q)" d="m281.627 1528.19 10.464-7.56c-1.98 3.96-5.955 11.89-6.022 11.93-.067.03-2.989-2.9-4.442-4.37"/><path fill="url(#R)" d="m287.106 1538.4 12.311-12.19-.341 6.65z"/><path fill="url(#S)" d="m285.394 1532.06 6.364-11.05 1.692 6.41-4.536 9.06z"/><path fill="url(#T)" d="m289.161 1535.93-6.07-8.17-.759-.46-4.204 1.36 9.588 10.01z"/><path fill="url(#U)" d="m287.523 1538.19 4.964-10.6.519-.53 6.086.37z"/><path fill="url(#V)" d="m279.494 1528.96 8.111 8.97.071.86-9.022-5.08z"/><path fill="url(#W)" d="m283.091 1527.76 8.584-6.7.584-.3-1.18-10.35-6.217 3.91z"/><path fill="url(#X)" d="m283.091 1527.76 2.679-12.8-.135-1.09-8.053 7.43.887 8.03z"/><path fill="url(#Y)" d="m292.487 1527.59-1.883-16.36 6.25 4.81z"/><path fill="url(#Z)" d="m295.083 1519.79-4.479-8.56.499-.47 5.209 5.66z"/><path fill="url(#aa)" d="m292.487 1527.59 6.501-.05.231-.07-3.219-10.73z"/><g filter="url(#ab)"><circle cx="1.791" cy="1.791" r="1.791" fill="#fff" fill-opacity=".4" transform="scale(-1 1)rotate(-17.938 4714.65 1689.537)"/></g><g filter="url(#ac)"><circle cx="1.791" cy="1.791" r="1.791" fill="#fff" fill-opacity=".4" transform="scale(-1 1)rotate(-17.938 4668.26 1692.988)"/></g><g filter="url(#ad)"><circle cx=".464" cy=".464" r=".464" fill="#fff" transform="scale(-1 1)rotate(-17.938 4718.21 1684.677)"/></g><g filter="url(#ae)"><circle cx=".464" cy=".464" r=".464" fill="#fff" transform="scale(-1 1)rotate(-17.938 4671.789 1688.12)"/></g></g><path fill="#fff" fill-opacity=".2" d="m296.236 1510.44-.833 5.71-5.74-.54 5.704.83-.534 5.74.833-5.7 5.739.53-5.703-.83z"/><mask id="ag" width="1741" height="154" x="-22" y="1529" maskUnits="userSpaceOnUse" style="mask-type:alpha"><path fill="url(#af)" d="M-7 1529h1726l-29 154H-21.5z"/></mask><g mask="url(#ag)"><path fill="url(#ah)" d="M-30 1529h1734.5l7.5 154H-30z"/><path stroke="#fff" stroke-opacity=".13" stroke-width="2" d="M555 1608.5c129.667-64.83 402-182.2 454-133 65 61.5-264 129.5-335.5 42s-291 11-244 106.5 609.97-20.12 687.5-54.5c57.5-25.5 195.5-54.5 150 21s32 75 82 61 277.5-119.5 90-198"/><path stroke="#000" stroke-opacity=".22" stroke-width="2" d="M556.035 1631c129.667-64.83 402-182.2 453.995-133 65 61.5-263.995 129.5-335.495 42s-291 11-244 106.5 609.975-20.12 687.495-54.5c57.5-25.5 195.5-54.5 150 21s32 75 82 61 277.5-119.5 90-198"/><path fill="#fff" fill-opacity=".1" d="M563 1539.5c27.6 75.6 195.167 79.83 275.5 72.5 19.5 183 382 236.5 606.5 76.5s-342-364-178.5-200.5-512.5 238.5-267 140-471-183-436.5-88.5"/></g><mask id="ai" width="465" height="154" x="1245" y="1396" maskUnits="userSpaceOnUse" style="mask-type:alpha"><path fill="#D9D9D9" d="M1505.5 1396h204.35l-9.5 153.5H1466.5l26-20.5h-247l123-56.5h62c30.8 0 71-59.67 75-76.5"/></mask><g mask="url(#ai)"><path fill="url(#aj)" d="M1498 1385.5h224.78l-3.5 171.5-275.78 2 21.5-24.5h-232l135.5-62h62c30.8 0 63.5-70.17 67.5-87"/><path fill="#000" fill-opacity=".26" d="m1544 1487.5-78.5 62.5-19.5-18.5zM1497.5 1481.5l13-43.5-17 40-38 3.5z"/><path fill="#fff" fill-opacity=".23" d="m1511.39 1404 218.61 27-.71 33-323.29-9h313.32l-272.02-15 272.02 9-291.25-18 292.67 12zM1511.38 1518l175.55 22h-96.19l-117.74-3.3 113.83.84-98.79-6.34 133.43 5.09-140.43-8.39 108.96 3.23z"/><path fill="#fff" fill-opacity=".05" d="M1797.82 1487h-474.94l-58.88-26 268.87 2.6h-219.81l3.93 2.6h410.17l-419.98 2.6 329.71 1.3-323.83 1.3 343.45 2.6h-347.37c-3.14 0 0 1.73 1.96 2.6l351.3 2.6-321.86 1.3 408.21 2.6h-414.1z"/><path fill="#fff" fill-opacity=".17" d="M1549 1513h-338.09l-41.91-26 191.4 2.6h-156.47l2.79 2.6h291.99l-298.97 2.6 234.7 1.3-230.51 1.3 244.48 2.6h-247.28c-2.23 0 0 1.73 1.4 2.6l250.07 2.6-229.11 1.3 290.58 2.6h-294.78z"/><path fill="#fff" fill-opacity=".41" d="M1707 1430h-338.09l-41.91-26 191.4 2.6h-156.47l2.79 2.6h291.99l-298.97 2.6 234.7 1.3-230.51 1.3 244.48 2.6h-247.28c-2.23 0 0 1.73 1.4 2.6l250.07 2.6-229.11 1.3 290.58 2.6h-294.78z"/></g><mask id="ak" width="467" height="119" x="-79" y="1468" maskUnits="userSpaceOnUse" style="mask-type:alpha"><path fill="#D9D9D9" d="M168.5 1468.5H-74.053l-4.5 118.5H387.5l-132-37.5h70l-94.5-54h-23c-14.4 0-32.333-18-39.5-27"/></mask><g mask="url(#ak)"><path fill="#5683B9" d="M168.5 1468.5H-75.35v59.25L-77.6 1587h465.1l-132-37.5h70l-94.5-54h-23c-14.4 0-32.333-18-39.5-27"/><path fill="url(#al)" d="M170.089 1472H-73.933l-2.29 59-2.29 59H393v-24.5l-63.107-12.84-96.188-53.77h-23.41c-14.658 0-32.911-17.93-40.206-26.89"/><path fill="#000" fill-opacity=".24" d="m311 1555.5 20-5.5-92-14.5-30.5-22.5 6 22.5L259 1550zM110 1534c62.4 7.2 162.333 40.67 204.5 56.5l22 15c-59.5-5-187.2-14.5-222-12.5-43.5 2.5-82.5-68-4.5-59"/><path fill="#9E6BB7" fill-opacity=".41" d="M355 1503H16.912L-25 1477l191.397 2.6H9.927l2.794 2.6h291.985l-298.97 2.6 234.705 1.3-230.515 1.3 244.486 2.6H7.132c-2.235 0 0 1.73 1.397 2.6l250.074 2.6-229.118 1.3 290.588 2.6H25.294zM222 1511h97.868L332 1537l-55.404-2.6h45.294l-.809-2.6h-84.522l86.544-2.6-67.941-1.3 66.728-1.3-70.772-2.6h71.581c.647 0 0-1.73-.405-2.6l-72.39-2.6 66.324-1.3-84.118-2.6h85.331z"/><path fill="#fff" fill-opacity=".08" d="M713 1537H-352.867L-485 1455l603.404 8.2H-374.89l8.809 8.2h920.522l-942.544 8.2 739.941 4.1-726.728 4.1 770.772 8.2h-779.58c-7.047 0 0 5.47 4.404 8.2l788.39 8.2-722.324 4.1 916.118 8.2h-929.331z"/></g><g filter="url(#am)"><ellipse cx="1180.88" cy="710.176" fill="#fff" fill-opacity=".68" rx="370" ry="123.624" transform="rotate(-37.462 1180.88 710.176)"/></g><g filter="url(#an)"><ellipse cx="285.882" cy="740.176" fill="#fff" fill-opacity=".68" rx="370" ry="123.624" transform="rotate(-37.462 285.882 740.176)"/></g><mask id="ao" width="510" height="208" x="994" y="1487" maskUnits="userSpaceOnUse" style="mask-type:alpha"><path fill="#D9D9D9" d="M1389.81 1492.52c6 10 26.5 36.5 39.5 42.5l2.75 40 50.44 40.98 21 79c-145.33-5.17-526.689-70.48-508.689-70.48s43.169-33.67 53.499-50.5c9.83 0 36.6-.8 65-4s56.83-48.67 67.5-71c1.67-.17 6.9-.4 14.5 0s12.83-4.17 14.5-6.5c57.5-4.17 174-10 180 0"/></mask><g mask="url(#ao)"><path fill="#D5A9A9" d="M1389.81 1492.52c6 10 26.5 36.5 39.5 42.5L1532 1690.5l-123.69-50.48c-145.33-5.17-431.499-15.5-413.499-15.5 17.999 0 43.169-33.67 53.499-50.5 9.83 0 36.6-.8 65-4s56.83-48.67 67.5-71c1.67-.17 6.9-.4 14.5 0s12.83-4.17 14.5-6.5c57.5-4.17 174-10 180 0"/><mask id="aq" width="538" height="204" x="995" y="1488" maskUnits="userSpaceOnUse" style="mask-type:alpha"><path fill="url(#ap)" d="M1390.81 1493.52c6 10 26.5 36.5 39.5 42.5L1533 1691.5l-123.69-50.48c-145.33-5.17-431.499-15.5-413.499-15.5 17.999 0 43.169-33.67 53.499-50.5 9.83 0 36.6-.8 65-4s56.83-48.67 67.5-71c1.67-.17 6.9-.4 14.5 0s12.83-4.17 14.5-6.5c57.5-4.17 174-10 180 0"/></mask><g mask="url(#aq)"><path fill="url(#ar)" d="M1390.81 1493.52c6 10 26.5 36.5 39.5 42.5L1533 1691.5l-123.69-50.48c-145.33-5.17-431.499-15.5-413.499-15.5 17.999 0 43.169-33.67 53.499-50.5 9.83 0 36.6-.8 65-4s56.83-48.67 67.5-71c1.67-.17 6.9-.4 14.5 0s12.83-4.17 14.5-6.5c57.5-4.17 174-10 180 0"/><path fill="#fff" d="m1325.31 1505.02-153.5 4.5.5 5.5 227-1.5h-220l191-2.5-191 1.5 204.5-3-205.5 2z"/><path fill="#008FDF" fill-opacity=".41" d="m1255.47 1490.52 153.84 3.6-.5 4.4-227.5-1.2h220.48l-191.42-2 191.42 1.2-204.95-2.4 205.96 1.6z"/><path fill="#fff" fill-opacity=".23" d="m1009.53 1505.52 1153.78 27-3.76 33-1706.239-9H2106.94l-1435.651-15 1435.651 9-1537.124-18 1544.634 12zM1050.22 1573 2204 1600l-3.76 33L494 1624h1653.63l-1435.652-15 1435.652 9-1537.125-18 1544.635 12z"/><path fill="#008FDF" fill-opacity=".41" d="m1281.47 1540.52 153.84 3.6-.5 4.4-227.5-1.2h220.48l-191.42-2 191.42 1.2-204.95-2.4 205.96 1.6zM1227.16 1526.52l-126.85 3.6.41 4.4 187.59-1.2h-181.8l157.84-2-157.84 1.2 168.99-2.4-169.82 1.6zM1165.81 1571.52h-121l-15 10 68.5-1h-56l1-1h104.5l-107-1 84-.5-82.5-.5 87.5-1h-88.5c-.8 0 0-.67.5-1l89.5-1-82-.5 104-1h-105.5z"/><path fill="#fff" fill-opacity=".41" d="M1409.31 1587.52H952.892l-56.581 38 258.389-3.8H943.462l3.772-3.8h394.176l-403.607-3.8 316.857-1.9-311.198-1.9 330.058-3.8H939.69c-3.018 0 0-2.53 1.886-3.8l337.594-3.8-309.304-1.9 392.294-3.8H964.208z"/><path fill="#008FDF" fill-opacity=".41" d="M1364.31 1530.52h121l15-10-68.5 1h56l-1 1h-104.5l107 1-84 .5 82.5.5-87.5 1h88.5c.8 0 0 .67-.5 1l-89.5 1 82 .5-104 1h105.5z"/></g></g><mask id="as" width="513" height="201" x="-81" y="1537" maskUnits="userSpaceOnUse" style="mask-type:alpha"><path fill="#D9D9D9" d="M64.999 1538.5c136.399 16.8 301.166 71.33 366.5 96.5l-480.697 102.87c-68.5-65.33-22.203-216.17 114.197-199.37"/></mask><g mask="url(#as)"><path fill="#C488F2" d="M64.999 1538.5c136.399 16.8 301.166 71.33 366.499 96.5L-18.5 1685c-68.5-65.33-52.901-163.3 83.499-146.5"/><mask id="au" width="513" height="152" x="-83" y="1537" maskUnits="userSpaceOnUse" style="mask-type:alpha"><path fill="url(#at)" d="M62.998 1539.5c136.4 16.8 301.167 71.33 366.501 96.5l-480.706 52.91c-68.5-65.34-22.195-166.21 114.205-149.41"/></mask><g mask="url(#au)"><path fill="url(#av)" d="M62.998 1539.5c136.4 16.8 301.167 71.33 366.5 96.5l-487.127 87.83c-68.5-65.34-15.773-201.13 120.627-184.33"/><path fill="#000" fill-opacity=".3" d="M23.47 1524.93c134.168 29.76 292.965 99.81 355.592 131.1l-448.731 68.2c-61.938-71.59-41.029-229.07 93.14-199.3"/><path stroke="#fff" stroke-linecap="round" stroke-opacity=".19" stroke-width="4" d="M349.998 1600.5c-20.166-6.67-67.7-16-96.5 0-36 20-115 37-148.5-5s161 15.5 120-38.5"/></g></g><mask id="aw" width="774" height="164" x="1340" y="1526" maskUnits="userSpaceOnUse" style="mask-type:alpha"><path fill="#D9D9D9" d="M1866.68 1591.09c88.52-28.32 182.02 21.14 247.3 73.17v25.21L1340 1672.39c101.61-43.63 286.58-146.35 358.5-146.35 54.68 0 115.87 81.78 168.18 65.05"/></mask><g mask="url(#aw)"><path fill="#91B5CA" d="M1866.68 1591.09c88.52-28.32 182.02 21.14 247.3 73.17v25.21L1340 1672.39c101.61-43.63 286.58-146.35 358.5-146.35 54.68 0 115.87 81.78 168.18 65.05"/><mask id="ay" width="775" height="168" x="1339" y="1527" maskUnits="userSpaceOnUse" style="mask-type:alpha"><path fill="url(#ax)" d="M1866.74 1593.9c88.64-27.55 181.93 22.72 247 75.33l-.1 25.2-773.9-23.8c101.79-42.75 287.17-143.86 359.09-143.23 54.68.47 115.53 82.78 167.91 66.5"/></mask><g mask="url(#ay)"><path fill="url(#az)" d="M1866.74 1593.9c88.64-27.55 181.93 22.72 247 75.33l-.1 25.2-773.9-23.8c101.79-42.75 287.17-143.86 359.09-143.23 54.68.47 115.53 82.78 167.91 66.5"/><path fill="#000" fill-opacity=".21" d="M1575.68 1692.72c-29.88-67.48-141.63-112.2-146.61-115.46-6.64 47.49 21.21 122.24 35.96 153.68l498.47-28.46 75.79-76.43-37.07-48.79c-165.97 115.46-62.51 96.76-189.2 96.76-45.64 0-85.75-92.47-136.65-77.24-62.52 18.7-70.82 163.43-100.69 95.94"/><path stroke="#000" stroke-opacity=".24" stroke-width="2" d="M1748.29 1518.72c-2.58 33.07-53.22 90.09-235.13 53.67-227.38-45.54 181.46 130.9 257.81-14.64s40.94 144.73 269.98 79.68c229.04-65.04-134.99 61.8-132.78-89.44"/><g filter="url(#aA)"><ellipse cx="88.374" cy="66.799" fill="#ECD9A8" fill-opacity=".3" rx="88.374" ry="66.799" transform="matrix(.9237 .38311 -.18858 .98206 1667.64 1424.96)"/></g></g></g><path fill="#fff" fill-opacity=".19" d="M552 1592c28.4.8 39.167 11.33 41 16.5l10.5 22-280 11.5c-50-18-146.3-57.8-131.5-73 18.5-19 59.5-4 81.5 0s44-10 53-14.5 27-9 66 4.5 38-8.5 80.5 0 43.5 32 79 33"/><path fill="#8BAED8" d="M4890 5425.5c0-503.16-104.83-1001.39-308.52-1466.25-203.68-464.86-502.22-887.24-878.58-1243.03-376.35-355.79-823.15-638.01-1314.88-830.56C1896.28 1693.1 1369.25 1594 837 1594c-532.248 0-1059.284 99.1-1551.016 291.66-491.734 192.55-938.534 474.77-1314.884 830.56-376.36 355.79-674.9 778.17-878.58 1243.03C-3111.17 4424.11-3216 4922.34-3216 5425.5h8106"/><g filter="url(#aB)"><path fill="#F5F5F5" d="M4877 5448.5c0-501.58-104.5-998.26-307.53-1461.66s-500.61-884.46-875.76-1239.13c-375.15-354.68-820.51-636.02-1310.67-827.97C1892.89 1727.79 1367.54 1629 837 1629c-530.541 0-1055.886 98.79-1546.041 290.74-490.159 191.95-935.519 473.29-1310.669 827.97-375.15 354.67-672.73 775.73-875.76 1239.13S-3203 4946.92-3203 5448.5h8080"/></g></g><defs><linearGradient id="b" x1="837" x2="837" y1="0" y2="2483.75" gradientUnits="userSpaceOnUse"><stop offset=".468" stop-color="#DBE8FF"/><stop offset=".626" stop-color="#879EE0"/></linearGradient><linearGradient id="c" x1="131.958" x2="101.589" y1="1358.59" y2="1553.66" gradientUnits="userSpaceOnUse"><stop offset=".085" stop-color="#fff"/><stop offset=".745" stop-color="#fff" stop-opacity="0"/></linearGradient><linearGradient id="d" x1="1595" x2="1130.35" y1="1096" y2="1837.26" gradientUnits="userSpaceOnUse"><stop stop-color="#CCA7E9"/><stop offset="1" stop-color="#4C77E1"/></linearGradient><linearGradient id="i" x1="1193.5" x2="1362.5" y1="1241" y2="1410" gradientUnits="userSpaceOnUse"><stop stop-color="#fff" stop-opacity="0"/><stop offset="1" stop-color="#fff" stop-opacity=".31"/></linearGradient><linearGradient id="j" x1="1426.92" x2="1147.37" y1="1452.28" y2="1340.02" gradientUnits="userSpaceOnUse"><stop stop-color="#fff"/><stop offset="1" stop-color="#fff" stop-opacity="0"/></linearGradient><linearGradient id="k" x1="1330.5" x2="1417" y1="1410" y2="1504.5" gradientUnits="userSpaceOnUse"><stop stop-color="#678FE3"/><stop offset="1" stop-color="#253149" stop-opacity="0"/></linearGradient><linearGradient id="l" x1="1112.5" x2="1199" y1="1414" y2="1508.5" gradientUnits="userSpaceOnUse"><stop stop-color="#fff" stop-opacity=".56"/><stop offset="1" stop-color="#fff" stop-opacity="0"/></linearGradient><linearGradient id="o" x1="1595" x2="1130.35" y1="1096" y2="1837.26" gradientUnits="userSpaceOnUse"><stop stop-color="#7090C0"/><stop offset="1" stop-color="#6D5DAC"/></linearGradient><linearGradient id="v" x1="13.827" x2="143.773" y1="1122.63" y2="1177.99" gradientUnits="userSpaceOnUse"><stop stop-color="#fff"/><stop offset="1" stop-color="#fff" stop-opacity="0"/></linearGradient><linearGradient id="w" x1="10.009" x2="119.549" y1="1144.92" y2="1199.57" gradientUnits="userSpaceOnUse"><stop stop-color="#fff"/><stop offset="1" stop-color="#fff" stop-opacity="0"/></linearGradient><linearGradient id="x" x1="-4.312" x2="108.652" y1="1170.78" y2="1217.95" gradientUnits="userSpaceOnUse"><stop stop-color="#F1C480"/><stop offset="1" stop-color="#F3D4A4" stop-opacity="0"/></linearGradient><linearGradient id="B" x1="48.544" x2="78.214" y1="1161.41" y2="1164" gradientUnits="userSpaceOnUse"><stop stop-color="#fff" stop-opacity=".24"/><stop offset="1" stop-color="#3E2D6E" stop-opacity="0"/></linearGradient><linearGradient id="C" x1="59.384" x2="72.992" y1="1170.67" y2="1157.06" gradientUnits="userSpaceOnUse"><stop stop-color="#fff"/><stop offset="1" stop-color="#fff" stop-opacity="0"/></linearGradient><linearGradient id="E" x1="83.66" x2="137.14" y1="1188.08" y2="1196.05" gradientUnits="userSpaceOnUse"><stop stop-color="#fff" stop-opacity=".06"/><stop offset="1" stop-color="#3E2D6E" stop-opacity="0"/></linearGradient><linearGradient id="F" x1="101.29" x2="140.696" y1="1224.86" y2="1185.45" gradientUnits="userSpaceOnUse"><stop stop-color="#fff"/><stop offset="1" stop-color="#fff" stop-opacity="0"/></linearGradient><linearGradient id="H" x1="839.304" x2="1302.59" y1="1337.94" y2="1462.63" gradientUnits="userSpaceOnUse"><stop offset=".156" stop-color="#634E9F"/><stop offset="1" stop-color="#21254E"/></linearGradient><linearGradient id="J" x1="993.98" x2="916.751" y1="1291.34" y2="1662.29" gradientUnits="userSpaceOnUse"><stop offset=".156" stop-color="#73A29A"/><stop offset=".742" stop-color="#21254E"/></linearGradient><linearGradient id="M" x1="465.5" x2="413.5" y1="1414.5" y2="1604.5" gradientUnits="userSpaceOnUse"><stop stop-color="#74A29B"/><stop offset="1" stop-color="#1E2D65"/></linearGradient><linearGradient id="Q" x1="291.86" x2="284.204" y1="1520.7" y2="1530.35" gradientUnits="userSpaceOnUse"><stop stop-color="#8084ED"/><stop offset="1" stop-color="#5EA5ED"/></linearGradient><linearGradient id="R" x1="299.231" x2="287.731" y1="1528.94" y2="1537.98" gradientUnits="userSpaceOnUse"><stop stop-color="#91B6DD"/><stop offset=".417" stop-color="#EBE6ED"/><stop offset="1" stop-color="#4A62EA"/></linearGradient><linearGradient id="S" x1="292.2" x2="287.399" y1="1521.16" y2="1535.99" gradientUnits="userSpaceOnUse"><stop offset=".26" stop-color="#5D5FF3"/><stop offset=".635" stop-color="#4878E6"/><stop offset="1" stop-color="#E4F7E6"/></linearGradient><linearGradient id="T" x1="281.521" x2="288.377" y1="1528.09" y2="1537.49" gradientUnits="userSpaceOnUse"><stop stop-color="#7B65F5"/><stop offset="1" stop-color="#2363DF"/></linearGradient><linearGradient id="U" x1="298.923" x2="287.607" y1="1527.31" y2="1538.14" gradientUnits="userSpaceOnUse"><stop stop-color="#BBD6F3"/><stop offset=".448" stop-color="#EBE6EC"/><stop offset="1" stop-color="#4C65F1"/></linearGradient><linearGradient id="V" x1="287.522" x2="279.305" y1="1537.98" y2="1528.9" gradientUnits="userSpaceOnUse"><stop stop-color="#4795E9"/><stop offset="1" stop-color="#7E6FF3"/></linearGradient><linearGradient id="W" x1="290.89" x2="282.861" y1="1510.35" y2="1527.82" gradientUnits="userSpaceOnUse"><stop stop-color="#E3CEEB"/><stop offset="1" stop-color="#4C65F0"/></linearGradient><linearGradient id="X" x1="285.961" x2="278.753" y1="1515.23" y2="1529.42" gradientUnits="userSpaceOnUse"><stop stop-color="#72A2EB"/><stop offset="1" stop-color="#2D5CDD"/></linearGradient><linearGradient id="Y" x1="291.804" x2="292.88" y1="1511.83" y2="1527.02" gradientUnits="userSpaceOnUse"><stop stop-color="#E3C2ED"/><stop offset="1" stop-color="#F5F8E9"/></linearGradient><linearGradient id="Z" x1="290.917" x2="295.909" y1="1511.12" y2="1518.31" gradientUnits="userSpaceOnUse"><stop stop-color="#E4CCEA"/><stop offset="1" stop-color="#F5EAF2"/></linearGradient><linearGradient id="aa" x1="296.063" x2="295.516" y1="1516.76" y2="1528.57" gradientUnits="userSpaceOnUse"><stop stop-color="#295FDE"/><stop offset="1" stop-color="#B6CDE6"/></linearGradient><linearGradient id="af" x1="813" x2="813" y1="1529" y2="1710" gradientUnits="userSpaceOnUse"><stop stop-color="#6760B9"/><stop offset=".41" stop-color="#282363"/></linearGradient><linearGradient id="ah" x1="812" x2="813" y1="1494" y2="1710" gradientUnits="userSpaceOnUse"><stop stop-color="#558FB2"/><stop offset=".41" stop-color="#538BC2"/></linearGradient><linearGradient id="aj" x1="1405.75" x2="1405.75" y1="1422" y2="1551.5" gradientUnits="userSpaceOnUse"><stop stop-color="#7797DE"/><stop offset="1" stop-color="#3C4380"/></linearGradient><linearGradient id="al" x1="250.5" x2="250.5" y1="1472" y2="1590" gradientUnits="userSpaceOnUse"><stop stop-color="#4E94DD"/><stop offset="1" stop-color="#151A3F"/></linearGradient><linearGradient id="ap" x1="1215.41" x2="1215.41" y1="1488" y2="1641.02" gradientUnits="userSpaceOnUse"><stop stop-color="#9B5DB0"/><stop offset="1" stop-color="#090752"/></linearGradient><linearGradient id="ar" x1="1215.41" x2="1215.41" y1="1488" y2="1641.02" gradientUnits="userSpaceOnUse"><stop stop-color="#7797DF"/><stop offset="1" stop-color="#382A65"/></linearGradient><linearGradient id="at" x1="212.727" x2="194.998" y1="1537.98" y2="1675.5" gradientUnits="userSpaceOnUse"><stop stop-color="#73A29A"/><stop offset="1" stop-color="#1F226A"/></linearGradient><linearGradient id="av" x1="212.727" x2="194.999" y1="1537.98" y2="1675.5" gradientUnits="userSpaceOnUse"><stop stop-color="#73A29A"/><stop offset="1" stop-color="#1F226A"/></linearGradient><linearGradient id="ax" x1="1564.66" x2="2018.66" y1="1461.18" y2="1583.16" gradientUnits="userSpaceOnUse"><stop offset=".156" stop-color="#634E9F"/><stop offset="1" stop-color="#21254E"/></linearGradient><linearGradient id="az" x1="1716.2" x2="1640.29" y1="1415.44" y2="1779.5" gradientUnits="userSpaceOnUse"><stop offset=".156" stop-color="#73A29A"/><stop offset=".742" stop-color="#1F226A"/></linearGradient><filter id="m" width="199" height="199" x="1190" y="1190" color-interpolation-filters="sRGB" filterUnits="userSpaceOnUse"><feFlood flood-opacity="0" result="BackgroundImageFix"/><feBlend in="SourceGraphic" in2="BackgroundImageFix" result="shape"/><feGaussianBlur result="effect1_foregroundBlur_1759_390" stdDeviation="20.5"/></filter><filter id="r" width="266.192" height="266.192" x="-4.87" y="1010.88" color-interpolation-filters="sRGB" filterUnits="userSpaceOnUse"><feFlood flood-opacity="0" result="BackgroundImageFix"/><feBlend in="SourceGraphic" in2="BackgroundImageFix" result="shape"/><feGaussianBlur result="effect1_foregroundBlur_1759_390" stdDeviation="8"/></filter><filter id="y" width="159" height="159" x="125.836" y="1022.84" color-interpolation-filters="sRGB" filterUnits="userSpaceOnUse"><feFlood flood-opacity="0" result="BackgroundImageFix"/><feBlend in="SourceGraphic" in2="BackgroundImageFix" result="shape"/><feGaussianBlur result="effect1_foregroundBlur_1759_390" stdDeviation="20.5"/></filter><filter id="z" width="159" height="159" x="130" y="1047" color-interpolation-filters="sRGB" filterUnits="userSpaceOnUse"><feFlood flood-opacity="0" result="BackgroundImageFix"/><feBlend in="SourceGraphic" in2="BackgroundImageFix" result="shape"/><feGaussianBlur result="effect1_foregroundBlur_1759_390" stdDeviation="20.5"/></filter><filter id="A" width="33.346" height="26.711" x="46.078" y="1151.62" color-interpolation-filters="sRGB" filterUnits="userSpaceOnUse"><feFlood flood-opacity="0" result="BackgroundImageFix"/><feBlend in="SourceGraphic" in2="BackgroundImageFix" result="shape"/><feGaussianBlur result="effect1_foregroundBlur_1759_390" stdDeviation="2"/></filter><filter id="D" width="74.572" height="63.528" x="81.82" y="1169.24" color-interpolation-filters="sRGB" filterUnits="userSpaceOnUse"><feFlood flood-opacity="0" result="BackgroundImageFix"/><feBlend in="SourceGraphic" in2="BackgroundImageFix" result="shape"/><feGaussianBlur result="effect1_foregroundBlur_1759_390" stdDeviation="2"/></filter><filter id="K" width="268.633" height="250.449" x="880.556" y="1277.12" color-interpolation-filters="sRGB" filterUnits="userSpaceOnUse"><feFlood flood-opacity="0" result="BackgroundImageFix"/><feBlend in="SourceGraphic" in2="BackgroundImageFix" result="shape"/><feGaussianBlur result="effect1_foregroundBlur_1759_390" stdDeviation="25"/></filter><filter id="N" width="297.71" height="220.242" x="481.645" y="1327.38" color-interpolation-filters="sRGB" filterUnits="userSpaceOnUse"><feFlood flood-opacity="0" result="BackgroundImageFix"/><feBlend in="SourceGraphic" in2="BackgroundImageFix" result="shape"/><feGaussianBlur result="effect1_foregroundBlur_1759_390" stdDeviation="25"/></filter><filter id="O" width="89" height="89" x="244" y="1481" color-interpolation-filters="sRGB" filterUnits="userSpaceOnUse"><feFlood flood-opacity="0" result="BackgroundImageFix"/><feBlend in="SourceGraphic" in2="BackgroundImageFix" result="shape"/><feGaussianBlur result="effect1_foregroundBlur_1759_390" stdDeviation="16.5"/></filter><filter id="ab" width="21.583" height="21.583" x="278.134" y="1524.57" color-interpolation-filters="sRGB" filterUnits="userSpaceOnUse"><feFlood flood-opacity="0" result="BackgroundImageFix"/><feBlend in="SourceGraphic" in2="BackgroundImageFix" result="shape"/><feGaussianBlur result="effect1_foregroundBlur_1759_390" stdDeviation="4.5"/></filter><filter id="ac" width="21.583" height="21.583" x="281.452" y="1510.45" color-interpolation-filters="sRGB" filterUnits="userSpaceOnUse"><feFlood flood-opacity="0" result="BackgroundImageFix"/><feBlend in="SourceGraphic" in2="BackgroundImageFix" result="shape"/><feGaussianBlur result="effect1_foregroundBlur_1759_390" stdDeviation="4.5"/></filter><filter id="ad" width="10.929" height="10.929" x="283.461" y="1529.9" color-interpolation-filters="sRGB" filterUnits="userSpaceOnUse"><feFlood flood-opacity="0" result="BackgroundImageFix"/><feBlend in="SourceGraphic" in2="BackgroundImageFix" result="shape"/><feGaussianBlur result="effect1_foregroundBlur_1759_390" stdDeviation="2.5"/></filter><filter id="ae" width="10.929" height="10.929" x="286.778" y="1515.78" color-interpolation-filters="sRGB" filterUnits="userSpaceOnUse"><feFlood flood-opacity="0" result="BackgroundImageFix"/><feBlend in="SourceGraphic" in2="BackgroundImageFix" result="shape"/><feGaussianBlur result="effect1_foregroundBlur_1759_390" stdDeviation="2.5"/></filter><filter id="am" width="794.469" height="679.147" x="783.647" y="370.602" color-interpolation-filters="sRGB" filterUnits="userSpaceOnUse"><feFlood flood-opacity="0" result="BackgroundImageFix"/><feBlend in="SourceGraphic" in2="BackgroundImageFix" result="shape"/><feGaussianBlur result="effect1_foregroundBlur_1759_390" stdDeviation="47"/></filter><filter id="an" width="794.469" height="679.147" x="-111.353" y="400.602" color-interpolation-filters="sRGB" filterUnits="userSpaceOnUse"><feFlood flood-opacity="0" result="BackgroundImageFix"/><feBlend in="SourceGraphic" in2="BackgroundImageFix" result="shape"/><feGaussianBlur result="effect1_foregroundBlur_1759_390" stdDeviation="47"/></filter><filter id="aA" width="265.217" height="247.675" x="1604.06" y="1400.58" color-interpolation-filters="sRGB" filterUnits="userSpaceOnUse"><feFlood flood-opacity="0" result="BackgroundImageFix"/><feBlend in="SourceGraphic" in2="BackgroundImageFix" result="shape"/><feGaussianBlur result="effect1_foregroundBlur_1759_390" stdDeviation="25"/></filter><filter id="aB" width="8212" height="3951.5" x="-3269" y="1563" color-interpolation-filters="sRGB" filterUnits="userSpaceOnUse"><feFlood flood-opacity="0" result="BackgroundImageFix"/><feBlend in="SourceGraphic" in2="BackgroundImageFix" result="shape"/><feGaussianBlur result="effect1_foregroundBlur_1759_390" stdDeviation="33"/></filter><radialGradient id="f" cx="0" cy="0" r="1" gradientTransform="rotate(75.143 -250.342 1475.448)scale(261.83)" gradientUnits="userSpaceOnUse"><stop stop-color="#B072CD"/><stop offset="1" stop-color="#091942"/></radialGradient><radialGradient id="h" cx="0" cy="0" r="1" gradientTransform="rotate(75.143 -250.342 1475.448)scale(261.83)" gradientUnits="userSpaceOnUse"><stop stop-color="#C3D4FF"/><stop offset="1" stop-color="#4864F5"/></radialGradient><radialGradient id="p" cx="0" cy="0" r="1" gradientTransform="rotate(90 -506.001 638.919)scale(211.367)" gradientUnits="userSpaceOnUse"><stop offset=".406" stop-color="#fff" stop-opacity="0"/><stop offset="1" stop-color="#FFE298" stop-opacity=".46"/></radialGradient><radialGradient id="q" cx="0" cy="0" r="1" gradientTransform="rotate(90 -506.001 638.919)scale(159.742)" gradientUnits="userSpaceOnUse"><stop offset=".667" stop-color="#fff" stop-opacity="0"/><stop offset="1" stop-color="#fff"/></radialGradient><radialGradient id="s" cx="0" cy="0" r="1" gradientTransform="rotate(90 -506.001 638.919)scale(117.096)" gradientUnits="userSpaceOnUse"><stop offset=".719" stop-color="#2E1D5E"/><stop offset="1" stop-color="#413072"/></radialGradient><radialGradient id="u" cx="0" cy="0" r="1" gradientTransform="rotate(-8.13 8306.466 -150.372)scale(97.5)" gradientUnits="userSpaceOnUse"><stop offset=".542" stop-color="#FFDFD5"/><stop offset="1" stop-color="#FFD8BB"/></radialGradient><clipPath id="a"><path fill="#fff" d="M0 0h1674v1720H0z"/></clipPath></defs></svg>