<svg xmlns="http://www.w3.org/2000/svg" width="1738" height="872" fill="none"><g clip-path="url(#a)"><path fill="#4E5FFC" d="M1589 0h-374v648h374z"/><path fill="url(#b)" d="M1738-330H0V872h1738z"/><g filter="url(#c)"><ellipse cx="763.977" cy="515.166" fill="#FFED8C" fill-opacity=".3" rx="193.876" ry="108.652" transform="rotate(-37.462 763.977 515.166)"/></g><g filter="url(#d)"><ellipse cx="1689.86" cy="-150.022" fill="#fff" fill-opacity=".6" rx="438.467" ry="146.5" transform="rotate(-37.462 1689.86 -150.022)"/></g><g filter="url(#e)"><ellipse cx="518.142" cy="92.978" fill="#fff" fill-opacity=".6" rx="438.467" ry="146.5" transform="rotate(-37.462 518.142 92.978)"/></g><path fill="#BDCBEE" d="M1467.63 519.656c-8.63 15.645-11.85 33.35-20.82 36.682 24.24 18.737 151.44-51.001 223.24-86.883-47.56-31.031-64.51-5.171-72.21 2.45-7.71 7.621-13.54 3.994-32.42-2.012-18.88-6.005-24.56-.389-37.53 15.546-12.97 15.936-32.75 13.087-39.31 15.141-6.57 2.055-10.16-.481-20.95 19.076"/><g filter="url(#f)"><circle cx="1580.53" cy="466.5" r="157.5" fill="#76B8DE" fill-opacity=".29"/></g><path stroke="#9DC1F8" d="M1786.46 325.376c3.8 7.437 1.75 17.561-5.5 29.633-7.24 12.046-19.58 25.889-36.07 40.655-32.99 29.527-82.5 62.665-140.71 92.402-58.22 29.737-114.08 50.428-157.34 59.847-21.63 4.71-40.08 6.595-54.08 5.398-14.03-1.2-23.43-5.477-27.23-12.914-3.8-7.438-1.76-17.561 5.49-29.634 7.24-12.046 19.58-25.889 36.08-40.655 32.98-29.527 82.49-62.664 140.7-92.402 58.22-29.737 114.09-50.427 157.34-59.846 21.63-4.711 40.08-6.596 54.08-5.399 14.04 1.2 23.44 5.478 27.24 12.915Z"/><g filter="url(#g)"><ellipse cx="1582.41" cy="459.129" fill="#fff" fill-opacity=".18" rx="158.255" ry="159.5" transform="rotate(-56.353 1582.41 459.129)"/></g><circle cx="1582.5" cy="467.46" r="166.175" fill="#fff" transform="rotate(-56.353 1582.5 467.46)"/><mask id="i" width="341" height="341" x="1416" y="303" maskUnits="userSpaceOnUse" style="mask-type:alpha"><path fill="url(#h)" d="M1680.03 332.318c30.56 20.337 52.38 48.875 64.5 80.755 2.67 7.019 8.04 6.188 9.12 9.675.84 5.411 1.85 7.091 2.9 12.891.53 2.922-3.91 5.361-2.86 12.245 6.16 40.286-2.1 82.904-26.46 119.503-51.88 77.947-157.12 99.079-235.07 47.2s-99.08-157.123-47.2-235.069c14.08-21.159 32.1-38.131 52.43-50.593 3.12-1.908.69-6.16 2.73-7.091 5.09-2.329 6.16-3.176 10.77-5.558 1.37-.623 5.52 2.551 9.14 1.023 50.68-21.387 110.78-17.74 160 15.019"/></mask><g mask="url(#i)"><ellipse cx="1589.06" cy="475.425" fill="url(#j)" rx="169.537" ry="182.788" transform="rotate(-56.353 1589.06 475.425)"/><path stroke="url(#k)" stroke-opacity=".03" stroke-width="3" d="M1748.09 476.912c-31.07 18.081-104.73 41.164-150.78-11.158-57.56-65.402-108.03-85.757-206.35-23.797"/><path stroke="url(#l)" stroke-opacity=".3" stroke-width="2" d="M1754.68 443.989c-31.07 18.081-104.73 41.164-150.78-11.158-57.56-65.403-108.02-85.758-206.35-23.797"/><path stroke="url(#m)" stroke-opacity=".3" stroke-width="2" d="M1759.47 427.128c-31.07 18.081-104.73 41.164-150.78-11.158-57.56-65.403-108.02-85.758-206.35-23.797"/><path stroke="url(#n)" stroke-opacity=".05" stroke-width="28" d="M1748.9 361.426c-6.16 46.911-68.24 72.804-117.7 23.695-61.82-61.387-123.93-147.385-217.86-78.958"/><path stroke="url(#o)" d="M1510.55 318.751c2.39-1.819 1.43-3.303.65-3.818-.78-.996-10.64 1.457-13.27 6.629-2.63 5.173 9.64-.539 12.62-2.811Z"/><path fill="#1F0836" d="M1509.88 317.476c2.38-1.855 1.42-3.366.65-3.89-.78-1.014-10.65 1.493-13.28 6.766s9.64-.557 12.63-2.876"/><path stroke="url(#p)" stroke-opacity=".05" stroke-width="39" d="M1735.69 309.841c-4.24 31.96-46.49 49.678-80.06 16.294-41.97-41.731-84.09-100.224-148.06-53.493"/></g><mask id="r" width="341" height="341" x="1416" y="303" maskUnits="userSpaceOnUse" style="mask-type:alpha"><path fill="url(#q)" d="M1680.03 332.318c30.56 20.337 52.38 48.875 64.5 80.755 2.67 7.019 8.04 6.188 9.12 9.675.84 5.411 1.85 7.091 2.9 12.891.53 2.922-3.91 5.361-2.86 12.245 6.16 40.286-2.1 82.904-26.46 119.503-51.88 77.947-157.12 99.079-235.07 47.2s-99.08-157.123-47.2-235.069c14.08-21.159 32.1-38.131 52.43-50.593 3.12-1.908.69-6.16 2.73-7.091 5.09-2.329 6.16-3.176 10.77-5.558 1.37-.623 5.52 2.551 9.14 1.023 50.68-21.387 110.78-17.74 160 15.019"/></mask><g mask="url(#r)"><path stroke="#9DC1F8" d="M1786.46 325.375c2.19 4.301 2.44 9.607.7 15.835-1.74 6.231-5.47 13.349-11.17 21.224-11.41 15.748-30.32 33.974-55.17 53.148-24.86 19.17-54.91 38.712-87.64 56.987s-67.18 34.748-100.46 48.038c-33.29 13.291-64.43 23.008-90.81 28.342-26.41 5.337-47.22 6.116-60.74 2.339-6.75-1.886-11.54-4.867-14.37-8.811-2.83-3.933-3.77-8.892-2.69-14.844 2.16-11.949 12.36-27.415 29.88-45.107"/><g filter="url(#s)"><circle cx="1542.01" cy="346.766" r="64.99" fill="#fff" fill-opacity=".35"/></g><g filter="url(#t)"><circle cx="1480.21" cy="346.766" r="24.505" fill="#fff" fill-opacity=".65"/></g></g><mask id="u" width="481" height="103" x="1029" y="541" maskUnits="userSpaceOnUse" style="mask-type:alpha"><path fill="#D9D9D9" d="M1460.02 545.414c6.53 6.647 28.85 24.263 43.01 28.251l5.98 53.18-28.85 16.619c-158.25-3.435-469.84-10.304-450.24-10.304s47-22.38 58.25-33.57c10.71 0 39.85-.531 70.78-2.659 30.92-2.127 61.88-32.351 73.49-47.197 1.82-.11 7.52-.265 15.79 0 8.28.266 13.98-2.769 15.79-4.32 62.61-2.77 189.46-6.648 196 0"/></mask><g mask="url(#u)"><path fill="url(#v)" d="M1460.02 545.414c6.53 6.647 28.85 24.263 43.01 28.251l5.98 53.18-28.85 16.619c-158.25-3.435-469.84-10.304-450.24-10.304s47-22.38 58.25-33.57c10.71 0 39.85-.531 70.78-2.659 30.92-2.127 61.88-32.351 73.49-47.197 1.82-.11 7.52-.265 15.79 0 8.28.266 13.98-2.769 15.79-4.32 62.61-2.77 189.46-6.648 196 0"/><path fill="#fff" d="m1389.78 553.723-167.14 2.992.55 3.656 247.17-.998h-239.55l207.97-1.661-207.97.997 222.67-1.994-223.76 1.329z"/><path fill="#008FDF" fill-opacity=".41" d="m1313.74 544.084 167.51 2.393-.55 2.925-247.71-.798h240.07l-208.43-1.329 208.43.798-223.16-1.596 224.26 1.064z"/><path fill="#fff" fill-opacity=".23" d="m1045.94 554.055 1256.31 17.949-4.09 21.936-1857.862-5.983H2240.87l-1563.224-9.971 1563.224 5.983-1673.714-11.966 1681.894 7.978z"/><path fill="#008FDF" fill-opacity=".41" d="m1342.05 577.321 167.51 2.393-.55 2.925-247.71-.797h240.07l-208.42-1.33 208.42.798-223.16-1.596 224.26 1.064zM1282.91 568.015l-138.12 2.393.45 2.925 204.26-.798h-197.96l171.86-1.329-171.86.797 184.01-1.595-184.91 1.064zM1216.11 597.928h-131.75l-16.33 6.648 74.58-.665h-60.97l1.09-.665h113.78l-116.51-.664 91.47-.333-89.83-.332 95.27-.665h-96.36c-.87 0 0-.443.54-.665l97.46-.664-89.29-.333 113.24-.664h-114.87z"/><path fill="#fff" fill-opacity=".41" d="M1481.25 608.565H984.272l-61.609 25.26 281.347-2.526H974.004l4.107-2.526h429.209l-439.477-2.526 345.007-1.263-338.846-1.263 359.386-2.526H969.897c-3.286 0 0-1.684 2.053-2.526l367.6-2.526-336.8-1.263 427.16-2.526H996.594z"/><path fill="#008FDF" fill-opacity=".41" d="M1432.25 570.674H1564l16.33-6.648-74.58.665h60.97l-1.08.665h-113.79l116.51.665-91.47.332 89.83.332-95.27.665h96.36c.87 0 0 .443-.54.665l-97.45.665 89.28.332-113.24.665h114.88z"/></g><mask id="x" width="526" height="199" x="1351" y="496" maskUnits="userSpaceOnUse" style="mask-type:alpha"><path fill="url(#w)" d="M1666.15 509.416c-25.08 4.375-185.61 29.895-314.79 148.018l18.81 37.551 461.46-6.292s48.31-122.281 44.54-170.922c-3.08-39.664-195.94-10.811-210.02-8.355"/></mask><g mask="url(#x)"><path fill="#DAB5F5" d="M1669 472c-24.49 6.965-188.46 67.311-317.64 185.434l18.81 37.551c78.7 9.358 367.42-18.35 397.83-52.985 4.7-5.357 153.85-241.916-99-170"/><path fill="url(#y)" d="M1647 441.5c-25.08 4.375-165.84 97.812-295.01 215.934l18.81 37.552c78.7 9.357 520.79-33.851 551.2-68.486 4.7-5.357-243.65-190.468-275-185"/><path fill="#000" fill-opacity=".15" d="M1576.79 569.571c12.79-42.874-105.87 5.712-166.8 35.364-33.44 23.211-100.83 70.217-102.84 72.551-2 2.333 247.69 31.774 366.52 28.372 10.35-8.993 15.87-65.924 5.33-79.048-13.17-16.406-29.78.729-75.87 10.208s-42.33-13.854-26.34-67.447"/><path stroke="#fff" stroke-opacity=".2" d="M1435.07 657.799c79.47-26.795 208.61-40.722 247.07-43.749M1411.56 608.216c78.07-61.978 196.9 21.146 256.16-19.322M1670.54 575.537c-14.55 5.345-28.58 6.917-39.5 5.16-10.94-1.76-18.63-6.833-20.75-14.642-2.13-7.809 1.66-17.097 9.75-25.848 8.07-8.734 20.33-16.824 34.88-22.17 14.55-5.345 28.59-6.917 39.51-5.16 10.94 1.76 18.63 6.833 20.75 14.642s-1.66 17.097-9.75 25.848c-8.07 8.734-20.33 16.824-34.89 22.17Z"/></g><path fill="#BDCBEE" d="M293.358 586.576c17.063 16.703 26.741 35.895 40.875 39.135-30.466 21.542-237.153-48.959-352.838-84.952 61.37-36.007 93.525-8.519 106.987-.538s21.04 3.759 47.162-3.64 36.042-1.519 59.58 15.308 51.854 12.834 62.092 14.786 14.814-.977 36.142 19.901"/><mask id="A" width="428" height="139" x="-66" y="530" maskUnits="userSpaceOnUse" style="mask-type:alpha"><path fill="url(#z)" d="M297.566 604.529c17.063 16.703 49.596 27.359 63.73 30.599C330.83 656.671-219 729.5-23.842 554.078c52.918-47.567 93.526-8.519 106.988-.538s21.039 3.759 47.161-3.64c26.123-7.399 36.042-1.519 59.58 15.308 23.539 16.826 51.854 12.834 62.092 14.786s24.26 3.657 45.587 24.535"/></mask><g mask="url(#A)"><path fill="#9D6BB5" d="M297.057 604.419c17.063 16.703 49.596 27.359 63.73 30.599-30.466 21.542-269.453-45.058-385.138-81.05 61.37-36.008 93.526-8.519 106.988-.539s21.039 3.759 47.161-3.64c26.123-7.399 36.042-1.518 59.58 15.308 23.539 16.827 51.854 12.835 62.092 14.786 10.237 1.952 24.259 3.658 45.587 24.536"/><path fill="url(#B)" d="M297.456 605.039c17.062 16.702 49.595 27.358 63.729 30.598C330.719 657.18-127.5 714.5-23.952 554.587c61.37-36.007 93.525-8.519 106.987-.538s21.04 3.759 47.162-3.64 36.042-1.519 59.58 15.308 51.854 12.834 62.092 14.786 24.259 3.657 45.587 24.536"/><path stroke="#fff" stroke-opacity=".5" d="M190.162 575.542c-3.551 5.502-10.045 8.432-17.763 8.65-7.715.218-16.599-2.281-24.804-7.577-8.206-5.295-14.143-12.361-17.122-19.48-2.981-7.123-2.986-14.248.565-19.75s10.046-8.433 17.763-8.651c7.715-.218 16.599 2.282 24.804 7.578 8.206 5.295 14.143 12.36 17.122 19.48 2.981 7.123 2.986 14.248-.565 19.75Z"/><path stroke="#fff" stroke-opacity=".5" d="M189.562 566.407c-3.551 5.502-10.046 8.432-17.763 8.65-7.715.218-16.599-2.282-24.804-7.577-8.206-5.296-14.143-12.361-17.122-19.481-2.981-7.122-2.986-14.247.565-19.75 3.551-5.502 10.045-8.432 17.763-8.65 7.715-.218 16.599 2.282 24.804 7.577 8.206 5.296 14.143 12.361 17.122 19.481 2.981 7.122 2.986 14.247-.565 19.75ZM296.461 597.031c-3.551 5.502-10.046 8.432-17.764 8.65-7.715.218-16.598-2.281-24.804-7.577s-14.142-12.36-17.122-19.48c-2.98-7.123-2.986-14.248.565-19.75s10.046-8.432 17.764-8.65c7.715-.218 16.598 2.281 24.804 7.577s14.142 12.36 17.122 19.48c2.98 7.123 2.986 14.248-.565 19.75ZM58.99 546.643c-3.552 5.503-10.046 8.433-17.764 8.651-7.715.218-16.598-2.282-24.804-7.577C8.216 542.421 2.279 535.356-.7 528.236c-2.98-7.122-2.986-14.247.565-19.75 3.55-5.502 10.046-8.432 17.763-8.65 7.715-.218 16.599 2.282 24.804 7.577 8.206 5.296 14.143 12.361 17.122 19.481 2.981 7.122 2.986 14.247-.565 19.749Z"/><path fill="#000" fill-opacity=".23" d="M149.192 541.465c7.505 3.492-58.01 44.358-72.89 21.519s65.384-25.01 72.89-21.519"/><path fill="#000" fill-opacity=".25" d="M190.303 574.359c15.25 7.355 45.064 3.99 58.065 1.388-11.667.137-38.571-1.322-52.846-8.253-17.845-8.663-24.281-2.329-5.219 6.865"/></g><mask id="D" width="1978" height="342" x="-72" y="624" maskUnits="userSpaceOnUse" style="mask-type:alpha"><path fill="url(#C)" d="M1633.76 636.173c-650.017-21.603-1276.086-9.001-1507.868 0L-72 630l33 315.5 1810 20c315.74-347.245-4-332-137.24-329.327"/></mask><g mask="url(#D)"><path fill="url(#E)" d="M1633.76 636.173c-650.017-21.603-1276.086-9.001-1507.868 0H-95.5l37 308.327h1876c3.2-106.852 244-312-183.74-308.327"/><path fill="#fff" fill-opacity=".12" d="M1417.76 819.525c-44.23 90.674-387.87 159.91-554.164 183.195l-257.993 97.53-272.472-57.99c-22.377-41.74-50.019-153.938 18.428-268.862 85.559-143.655 814.781-69.851 875.331-65.897s60.55-28.994-363.294-108.07C524.52 536.17 378.04 564.115 342.5 612L266 558.575c207.974-6.59 676.574-13.707 887.18 10.543 263.26 30.313 319.86 137.065 264.58 250.407"/><path stroke="#fff" stroke-opacity=".33" stroke-width=".5" d="M-177.001 810.522C-40.703 855.996 203.66 956.688 90.728 995.666c-141.166 48.724-87.62-253.355 253.125-214.377s561.418 209.505 626.322 191.64c64.905-17.865 243.385-66.587 165.505-181.896S559.658 909.59 726.786 1075.25M1389.52 847.208c85.32.894 239.2-14.522 305.48-22.342V627.139c-113.3-3.724-363.02 2.234-455.44 55.855-115.52 67.026 137.74 93.837 241.05 102.773 103.31 8.937-197.72 60.324-91.09 61.441Z"/></g><mask id="F" width="132" height="132" x="665" y="73" maskUnits="userSpaceOnUse" style="mask-type:alpha"><circle cx="730.934" cy="138.934" r="65.933" fill="#D9D9D9" transform="rotate(-180 730.934 138.934)"/></mask><g mask="url(#F)"><circle cx="730.934" cy="138.934" r="65.933" fill="#fff" transform="rotate(-180 730.934 138.934)"/><circle cx="728.492" cy="136.492" r="65.933" fill="url(#G)" transform="rotate(-180 728.492 136.492)"/><path fill="#7D76CC" fill-opacity=".28" d="M796.867 121.84H667.442V97.42h129.425zM784.657 204.867H679.652v-14.652h105.005zM809.077 148.701H655.232v-9.768h153.845z"/><circle cx="704.072" cy="124.282" r="65.933" fill="#fff" fill-opacity=".17" transform="rotate(-180 704.072 124.282)"/></g><rect width="176" height="11" x="1359" y="745.405" fill="#fff" rx="5.5"/><rect width="175" height="10" x="1283" y="768.405" fill="#fff" rx="5"/><rect width="77" height="11" x="1250" y="745.405" fill="#fff" rx="5.5"/><mask id="H" width="270" height="91" x="1258" y="683" maskUnits="userSpaceOnUse" style="mask-type:alpha"><path fill="#D9D9D9" d="M1287.37 773.446h165.57l-26.85-23.163h101.8L1433.92 683l-16.78 22.06h-72.71l-86.14 45.223h51.46z"/></mask><g mask="url(#H)"><path fill="url(#I)" d="M1287.37 773.446h165.57l-26.85-23.163h101.8L1433.92 683l-16.78 22.06h-72.71l-86.14 45.223h51.46z"/><path fill="#000" fill-opacity=".36" d="m1341.78 717.787-53.92 55.658 78.27 20.873h-37.4l-55.66-9.567-20-13.045-1.74-26.96 43.49-20.002zM1392.22 719.526l60.01 53.919 38.26-20.002zM1447.88 724.744l-31.31-19.133 15.65-26.959zM1392.22 753.443l21.74 21.742-47.83 2.609 13.04-33.048 13.05 15.654z"/><path fill="#D9B75F" fill-opacity=".23" d="m1373.82 695.175-110.31 10.175.36 12.437 163.14-3.392H1268.9l137.26-5.653-137.26 3.392 146.97-6.784-147.69 4.523zM1424.73 679.212l26.18 5.063 2.4 12.203-36.39 3.936 34.61-7.036-31.17.569 30.72-2.785-33.52-.107 33.23-2.141z"/><path fill="#fff" fill-opacity=".23" d="m1495.71 709.96 65.22 7.131-.62 26.786h-137.65l128.98-7.305-139.42-4.871h139.42l-151.59-7.305 152.83 2.435zM1327.3 731.701l-62.05 6.949.59 26.099h130.96l-122.72-7.118 132.65-4.745h-132.65l144.23-7.118-145.4 2.372z"/></g><rect width="176" height="14" x="253.942" y="748.931" fill="#fff" rx="7"/><rect width="176" height="13" x="133.942" y="778.931" fill="#fff" rx="6.5"/><rect width="286" height="19" x="-15.058" y="800.931" fill="#fff" rx="9.5"/><mask id="J" width="432" height="196" x="-16" y="615" maskUnits="userSpaceOnUse" style="mask-type:alpha"><path fill="#D9D9D9" d="m118.924 615.874-79.158 22.827-54.824 171.937h275.749l-34.787-25.221h73.053l-38.266-29.568h154.801c-35.656-32.178-99.142-33.048-141.756-39.135-34.091-4.87-57.688-27.54-65.225-38.266-52.18 0-82.34-38.223-89.587-62.574"/></mask><g mask="url(#J)"><path fill="url(#K)" d="M118.163 585.532H-39.993l3.38 244.125 362.803-4.546 133.553-68.89z"/><path fill="#262626" fill-opacity=".36" d="m148.504 708.887 77.4 76.531 37.396 5.218zM225.904 726.28l45.223 37.396h46.963z"/><path fill="#262626" fill-opacity=".36" d="m167.637 778.46 40.004 32.178 11.37 10.862-314.692 13.972 13.946-164.951 223.995-83.352L-11.6 726.28l-6.66 88.265 50.355-64.784v17.221l55.727-90.639 74.597 79.506-49.572-6.088 49.572 60.877zM316.35 757.588c7.827-18.263 75.661-19.132 80.879-19.132l26.09 19.132c-38.265 6.088-113.23 14.611-106.969 0"/><path fill="#fff" fill-opacity=".23" d="m36.278 646.914 326.254 37.57-1.063 45.919-482.473-12.524h467.595l-405.957-20.872 405.957 12.524-434.65-25.047 436.776 16.698z"/><path fill="#D9B75F" fill-opacity=".23" d="m152.026 657.633-239.409 12.523.78 15.306 354.045-4.174H-75.685l297.896-6.958-297.896 4.175 318.952-8.349-320.512 5.566zM50.936 623.958l197.161 12.523-.643 15.307-291.566-4.175h282.575l-245.326-6.957 245.326 4.174-262.666-8.349 263.951 5.566z"/></g><path fill="#fff" d="M368.625 752.731c6.125 0 9.625 3.6 18.375 3.6v3.6h-65.624c-19.25 0-28.875-3.6-17.5-3.6s9.625-5.4 19.25-5.4 8.75 5.4 21.875 5.4 16.961-3.6 23.624-3.6M1486.89 748.405c4.04 0 6.34 2 12.11 2v2h-43.25c-12.69 0-19.03-2-11.54-2 7.5 0 6.35-3 12.69-3s5.33 2.5 13.98 2.5 11.62-1.5 16.01-1.5M1356.19 771.026c2.82 0 4.78 2.433 8.81 2.433v1.622c-6.71 0-23.61.324-30.7.324-8.86 0-13.29-1.946-8.05-1.946 5.23 0 5.25-4.054 9.68-4.054 4.44 0 3.38 3.243 9.43 3.243 6.04 0 7.76-1.622 10.83-1.622M1290.96 748.405c5.79-.081 3.44 2 12.04 3l-10.32-.216c-3.1 0-10.89.216-14.16.216h-14.21c2.41 0 7.74-4 12.89-4 2.05 0 3.63 2.162 6.42 2.162s5.93-1.142 7.34-1.162M1441.28 766.405c2.82 0 3.03 1.818 8.8 1.818l3.92 6.364c-6.71 0-29.01 1.818-36.1 1.818-8.86 0-14.04-1.818-8.8-1.818h7.92c4.43 0 2.76-.909 8.81-.909 6.04 0 7.04-7.273 15.45-7.273M214.141 805.731c7.869 0 12.529 4.389 23.371 4.922l-5.383 2.278h-62.954c-19.236 0-35.042-2.431-23.675-2.431s15.806-6.569 25.424-6.569 8.743 5.4 21.859 5.4c13.115 0 14.699-3.6 21.358-3.6"/><path fill="#fff" d="M123.381 805.731c7.783 0 13.471 3.869 22.119 4.769l-4.328 2.431H78.909c-19.024 0-30.762-2.7-19.52-2.7s11.737-6.3 21.25-6.3 8.647 5.4 21.619 5.4 14.537-3.6 21.123-3.6"/><circle cx="339.5" cy="750.431" r="1.5" fill="#fff"/><circle cx="1462" cy="743.474" r="2" fill="#fff"/><circle cx="144" cy="805" r="2" fill="#fff"/><circle cx="416" cy="749.931" r="1" fill="#fff"/><circle cx="348" cy="751" r="1" fill="#fff"/><circle cx="1470" cy="744.405" r="1" fill="#fff"/><circle cx="1344" cy="770.474" r="1" fill="#fff"/><circle cx="1282" cy="746.405" r="1" fill="#fff"/><circle cx="1428" cy="767.474" r="1" fill="#fff"/><circle cx="1286.5" cy="746.974" r=".5" fill="#fff"/><circle cx="185.5" cy="805.5" r="1.5" fill="#fff"/></g><defs><linearGradient id="b" x1="793.566" x2="1467.49" y1="-221.33" y2="1790.66" gradientUnits="userSpaceOnUse"><stop offset=".271" stop-color="#DAEBFF"/><stop offset="1" stop-color="#5153E7"/></linearGradient><linearGradient id="j" x1="1589.06" x2="1589.06" y1="292.637" y2="658.213" gradientUnits="userSpaceOnUse"><stop stop-color="#B8B9FF"/><stop offset=".693" stop-color="#567EE4"/></linearGradient><linearGradient id="k" x1="1723.96" x2="1467.45" y1="504.619" y2="402.901" gradientUnits="userSpaceOnUse"><stop stop-color="#fff"/><stop offset="1" stop-color="#fff" stop-opacity="0"/></linearGradient><linearGradient id="l" x1="1727.78" x2="1511.15" y1="465.801" y2="364.453" gradientUnits="userSpaceOnUse"><stop stop-color="#fff" stop-opacity="0"/><stop offset="1" stop-color="#fff"/></linearGradient><linearGradient id="m" x1="1732.57" x2="1515.94" y1="448.94" y2="347.592" gradientUnits="userSpaceOnUse"><stop stop-color="#fff" stop-opacity="0"/><stop offset="1" stop-color="#fff" stop-opacity=".35"/></linearGradient><linearGradient id="n" x1="1757.01" x2="1534.07" y1="409.693" y2="323.13" gradientUnits="userSpaceOnUse"><stop stop-color="#F1C480"/><stop offset="1" stop-color="#F3D4A4" stop-opacity="0"/></linearGradient><linearGradient id="o" x1="1508.02" x2="1506.06" y1="324.653" y2="320.567" gradientUnits="userSpaceOnUse"><stop stop-color="#fff"/><stop offset="1" stop-color="#fff" stop-opacity="0"/></linearGradient><linearGradient id="p" x1="1741.15" x2="1589.76" y1="342.705" y2="283.767" gradientUnits="userSpaceOnUse"><stop stop-color="#F1C480"/><stop offset="1" stop-color="#F3D4A4" stop-opacity="0"/></linearGradient><linearGradient id="v" x1="1269.02" x2="1269.02" y1="541.743" y2="643.464" gradientUnits="userSpaceOnUse"><stop stop-color="#82A0ED"/><stop offset="1" stop-color="#386793"/></linearGradient><linearGradient id="w" x1="1675.55" x2="1496.6" y1="499.572" y2="571.713" gradientUnits="userSpaceOnUse"><stop stop-color="#353F7D"/><stop offset="1" stop-color="#1F234E"/></linearGradient><linearGradient id="y" x1="1676.18" x2="1451.26" y1="499.573" y2="620.282" gradientUnits="userSpaceOnUse"><stop stop-color="#75D5C4"/><stop offset="1" stop-color="#6C75D2"/></linearGradient><linearGradient id="z" x1="226.658" x2="88.661" y1="562.781" y2="592.046" gradientUnits="userSpaceOnUse"><stop stop-color="#354E8F"/><stop offset="1" stop-color="#1F3161"/></linearGradient><linearGradient id="B" x1="226.548" x2="89.378" y1="563.29" y2="572.746" gradientUnits="userSpaceOnUse"><stop stop-color="#A1B3AF"/><stop offset="1" stop-color="#4D9487"/></linearGradient><linearGradient id="C" x1="868.5" x2="868.5" y1="624.245" y2="953.245" gradientUnits="userSpaceOnUse"><stop stop-color="#1A2F65"/><stop offset="1" stop-color="#3D6491"/></linearGradient><linearGradient id="E" x1="868.5" x2="868.5" y1="624.245" y2="953.245" gradientUnits="userSpaceOnUse"><stop stop-color="#538EB0"/><stop offset="1" stop-color="#77B0D1"/></linearGradient><linearGradient id="I" x1="1393.09" x2="1393.09" y1="683" y2="773.446" gradientUnits="userSpaceOnUse"><stop offset=".239" stop-color="#7F9EE9"/><stop offset="1" stop-color="#372762"/></linearGradient><linearGradient id="K" x1="236.775" x2="236.775" y1="605.396" y2="810.638" gradientUnits="userSpaceOnUse"><stop stop-color="#819FEB"/><stop offset="1" stop-color="#221D55"/></linearGradient><filter id="c" width="523.046" height="480.21" x="502.454" y="275.061" color-interpolation-filters="sRGB" filterUnits="userSpaceOnUse"><feFlood flood-opacity="0" result="BackgroundImageFix"/><feBlend in="SourceGraphic" in2="BackgroundImageFix" result="shape"/><feGaussianBlur result="effect1_foregroundBlur_1001_303" stdDeviation="47"/></filter><filter id="d" width="906.694" height="770.032" x="1236.51" y="-535.038" color-interpolation-filters="sRGB" filterUnits="userSpaceOnUse"><feFlood flood-opacity="0" result="BackgroundImageFix"/><feBlend in="SourceGraphic" in2="BackgroundImageFix" result="shape"/><feGaussianBlur result="effect1_foregroundBlur_1001_303" stdDeviation="47"/></filter><filter id="e" width="906.695" height="770.032" x="64.795" y="-292.038" color-interpolation-filters="sRGB" filterUnits="userSpaceOnUse"><feFlood flood-opacity="0" result="BackgroundImageFix"/><feBlend in="SourceGraphic" in2="BackgroundImageFix" result="shape"/><feGaussianBlur result="effect1_foregroundBlur_1001_303" stdDeviation="47"/></filter><filter id="f" width="467" height="467" x="1347.03" y="233" color-interpolation-filters="sRGB" filterUnits="userSpaceOnUse"><feFlood flood-opacity="0" result="BackgroundImageFix"/><feBlend in="SourceGraphic" in2="BackgroundImageFix" result="shape"/><feGaussianBlur result="effect1_foregroundBlur_1001_303" stdDeviation="38"/></filter><filter id="g" width="350.272" height="349.309" x="1407.27" y="284.475" color-interpolation-filters="sRGB" filterUnits="userSpaceOnUse"><feFlood flood-opacity="0" result="BackgroundImageFix"/><feBlend in="SourceGraphic" in2="BackgroundImageFix" result="shape"/><feGaussianBlur result="effect1_foregroundBlur_1001_303" stdDeviation="8"/></filter><filter id="s" width="169.981" height="169.981" x="1457.02" y="261.776" color-interpolation-filters="sRGB" filterUnits="userSpaceOnUse"><feFlood flood-opacity="0" result="BackgroundImageFix"/><feBlend in="SourceGraphic" in2="BackgroundImageFix" result="shape"/><feGaussianBlur result="effect1_foregroundBlur_1001_303" stdDeviation="10"/></filter><filter id="t" width="73.009" height="73.009" x="1443.71" y="310.262" color-interpolation-filters="sRGB" filterUnits="userSpaceOnUse"><feFlood flood-opacity="0" result="BackgroundImageFix"/><feBlend in="SourceGraphic" in2="BackgroundImageFix" result="shape"/><feGaussianBlur result="effect1_foregroundBlur_1001_303" stdDeviation="6"/></filter><radialGradient id="h" cx="0" cy="0" r="1" gradientTransform="rotate(33.646 10.122 2859.588)scale(169.537)" gradientUnits="userSpaceOnUse"><stop offset=".719" stop-color="#2E1D5E"/><stop offset="1" stop-color="#413072"/></radialGradient><radialGradient id="q" cx="0" cy="0" r="1" gradientTransform="rotate(33.646 10.122 2859.588)scale(169.537)" gradientUnits="userSpaceOnUse"><stop offset=".719" stop-color="#2E1D5E"/><stop offset="1" stop-color="#413072"/></radialGradient><radialGradient id="G" cx="0" cy="0" r="1" gradientTransform="rotate(44.502 212.29 905.432)scale(99.2914)" gradientUnits="userSpaceOnUse"><stop offset="0" stop-color="#E8E4FF"/><stop offset="1" stop-color="#C4BFFF"/></radialGradient><clipPath id="a"><path fill="#fff" d="M1738 0H0v872h1738z"/></clipPath></defs></svg>