<svg xmlns="http://www.w3.org/2000/svg" width="1738" height="872" fill="none"><g clip-path="url(#a)"><path fill="url(#b)" d="M0 0h1761.6v1202H0z" transform="matrix(-1 0 0 1 1749.8 -330)"/><g filter="url(#c)"><ellipse cx="763.977" cy="515.166" fill="#000" fill-opacity=".3" rx="193.876" ry="108.652" transform="rotate(-37.462 763.977 515.166)"/></g><g filter="url(#d)"><ellipse cx="1689.86" cy="-150.022" fill="#000" fill-opacity=".6" rx="438.467" ry="146.5" transform="rotate(-37.462 1689.86 -150.022)"/></g><g filter="url(#e)"><ellipse cx="518.142" cy="92.978" fill="#000" fill-opacity=".6" rx="438.467" ry="146.5" transform="rotate(-37.462 518.142 92.978)"/></g><g fill="#fff"><circle r="1" transform="matrix(-1 0 0 1 1288 162)"/><circle r="1" transform="matrix(-1 0 0 1 839.5 399)"/><circle r="1" transform="matrix(-1 0 0 1 1363 102)"/><circle r="1" transform="matrix(-1 0 0 1 1226 348)"/><circle r="1" transform="matrix(-1 0 0 1 1529 197)"/><circle r="1" transform="matrix(-1 0 0 1 1530 47)"/><circle r="1" transform="matrix(-1 0 0 1 1331 29)"/><circle r="1" transform="matrix(-1 0 0 1 404 399)"/><circle r="1" transform="matrix(-1 0 0 1 944 235)"/><circle r="1" transform="matrix(-1 0 0 1 905.982 413)"/><circle r="1" transform="matrix(-1 0 0 1 998 472)"/><circle r="1" transform="matrix(-1 0 0 1 870 135)"/><circle r="1" transform="matrix(-1 0 0 1 542 115)"/><circle r="1" transform="matrix(-1 0 0 1 670 27)"/><circle r="1" transform="matrix(-1 0 0 1 625.657 330.416)"/><circle r="1" transform="matrix(-1 0 0 1 406 31)"/><circle r="1" transform="matrix(-1 0 0 1 279 113)"/><circle r="1" transform="matrix(-1 0 0 1 227 27)"/><circle r="1" transform="matrix(-1 0 0 1 70.854 163)"/><circle r="1" transform="matrix(-1 0 0 1 219 233)"/><circle r="1" transform="matrix(-1 0 0 1 540 433.886)"/><circle r="1" transform="matrix(-1 0 0 1 176 408)"/><circle r="1" transform="matrix(-1 0 0 1 135.942 461.129)"/><circle r="1" transform="matrix(-1 0 0 1 170 501)"/><circle r="1" transform="matrix(-1 0 0 1 1123 63)"/><circle r="1" transform="matrix(-1 0 0 1 1035 209)"/><circle r="1" transform="matrix(-1 0 0 1 1232 102)"/><circle r="1" transform="matrix(-1 0 0 1 1248 23)"/><circle r="1" transform="matrix(-1 0 0 1 1570 17)"/><circle r="1" transform="matrix(-1 0 0 1 1423 121)"/><circle r="1" transform="matrix(-1 0 0 1 1246 239)"/><circle r="1" transform="matrix(-1 0 0 1 1085 309)"/><circle r="1" transform="matrix(-1 0 0 1 1109 400)"/><circle r="1" transform="matrix(-1 0 0 1 1064 128)"/><circle r="1" transform="matrix(-1 0 0 1 1403.5 284.931)"/><circle r=".5" transform="matrix(-1 0 0 1 1343.5 116.5)"/><circle r=".5" transform="matrix(-1 0 0 1 1385.5 178.5)"/><circle r=".5" transform="matrix(-1 0 0 1 1166.5 226.5)"/><circle r=".5" transform="matrix(-1 0 0 1 1437.5 200.5)"/><circle r=".5" transform="matrix(-1 0 0 1 45.22 354.77)"/><circle r=".5" transform="matrix(-1 0 0 1 1571.5 272.916)"/><circle r=".5" transform="matrix(-1 0 0 1 1566.5 217.5)"/><circle r=".5" transform="matrix(-1 0 0 1 342.214 514.666)"/><circle r=".5" transform="matrix(-1 0 0 1 1703.57 227.931)"/><circle r=".5" transform="matrix(-1 0 0 1 1503.5 23.5)"/><circle r=".5" transform="matrix(-1 0 0 1 1451.5 63.5)"/><circle r=".5" transform="matrix(-1 0 0 1 1385.5 21.5)"/><circle r=".5" transform="matrix(-1 0 0 1 562.023 557.475)"/><circle r=".5" transform="matrix(-1 0 0 1 1299.5 89.5)"/><circle r=".5" transform="matrix(-1 0 0 1 1614.37 138.434)"/><circle r=".5" transform="matrix(-1 0 0 1 1159.5 181.5)"/><circle r=".5" transform="matrix(-1 0 0 1 1086.5 165.5)"/><circle r=".5" transform="matrix(-1 0 0 1 657.418 522.296)"/><circle r=".5" transform="matrix(-1 0 0 1 500.5 298.5)"/><circle r=".5" transform="matrix(-1 0 0 1 479.5 502.5)"/><circle r=".5" transform="matrix(-1 0 0 1 822.5 465.5)"/><circle r=".5" transform="matrix(-1 0 0 1 394.458 459.629)"/><circle r=".5" transform="matrix(-1 0 0 1 1044.5 423.5)"/><circle r=".5" transform="matrix(-1 0 0 1 1014.5 349.5)"/><circle r=".5" transform="matrix(-1 0 0 1 325.74 232.457)"/><circle r=".5" transform="matrix(-1 0 0 1 222.5 540.5)"/><circle r=".5" transform="matrix(-1 0 0 1 353.5 602.119)"/><circle r=".5" transform="matrix(-1 0 0 1 241.5 271.5)"/><circle r=".5" transform="matrix(-1 0 0 1 228.5 320.5)"/><circle r=".5" transform="matrix(-1 0 0 1 167.5 349.5)"/><circle r=".5" transform="matrix(-1 0 0 1 474 436)"/><circle r=".5" transform="matrix(-1 0 0 1 101.5 387.5)"/><circle r=".5" transform="matrix(-1 0 0 1 303.674 449.5)"/><circle r=".5" transform="matrix(-1 0 0 1 332.478 379.5)"/><circle r=".5" transform="matrix(-1 0 0 1 313.5 308)"/><circle r=".5" transform="matrix(-1 0 0 1 243.5 510.5)"/><circle r=".5" transform="matrix(-1 0 0 1 371.781 227.5)"/><circle r=".5" transform="matrix(-1 0 0 1 581.035 391.73)"/><circle r=".5" transform="matrix(-1 0 0 1 221.5 181.5)"/><circle r=".5" transform="matrix(-1 0 0 1 174.5 138.5)"/><circle r=".5" transform="matrix(-1 0 0 1 114.977 86.416)"/><circle r=".5" transform="matrix(-1 0 0 1 360.5 116.5)"/><circle r=".5" transform="matrix(-1 0 0 1 445.5 124.5)"/><circle r=".5" transform="matrix(-1 0 0 1 580.535 219.5)"/><circle r=".5" transform="matrix(-1 0 0 1 47.22 46.5)"/><circle r=".5" transform="matrix(-1 0 0 1 523.5 64.5)"/><circle r=".5" transform="matrix(-1 0 0 1 498.5 14.5)"/><circle r=".5" transform="matrix(-1 0 0 1 499.5 123.5)"/><circle r=".5" transform="matrix(-1 0 0 1 632.5 125.5)"/><circle r=".5" transform="matrix(-1 0 0 1 715.5 38.5)"/><circle r=".5" transform="matrix(-1 0 0 1 501.5 605.896)"/><circle r=".5" transform="matrix(-1 0 0 1 277.5 61.5)"/><circle r=".5" transform="matrix(-1 0 0 1 177.5 42.5)"/><circle r=".5" transform="matrix(-1 0 0 1 393.458 195.5)"/><circle r=".5" transform="matrix(-1 0 0 1 766.5 20.5)"/><circle r=".5" transform="matrix(-1 0 0 1 837.5 79.5)"/><circle r=".5" transform="matrix(-1 0 0 1 859.5 25.5)"/><circle r=".5" transform="matrix(-1 0 0 1 134.442 204.367)"/><circle r=".5" transform="matrix(-1 0 0 1 812.5 200.5)"/><circle r=".5" transform="matrix(-1 0 0 1 838.5 264.5)"/><circle r=".5" transform="matrix(-1 0 0 1 799.5 297.5)"/><circle r=".5" transform="matrix(-1 0 0 1 748.5 239.5)"/><circle r=".5" transform="matrix(-1 0 0 1 1116.02 29.208)"/><circle r=".5" transform="matrix(-1 0 0 1 1385.5 332.5)"/><circle r=".5" transform="matrix(-1 0 0 1 985.5 291.5)"/><circle r=".5" transform="matrix(-1 0 0 1 420.837 241.5)"/><circle r=".5" transform="matrix(-1 0 0 1 779.5 270.5)"/><circle r=".5" transform="matrix(-1 0 0 1 507.466 367.5)"/><circle r=".5" transform="matrix(-1 0 0 1 751.5 570.5)"/><circle r=".5" transform="matrix(-1 0 0 1 861.5 506.5)"/><circle r=".5" transform="matrix(-1 0 0 1 932.5 509.5)"/><circle r=".5" transform="matrix(-1 0 0 1 579.535 536.035)"/><circle r=".5" transform="matrix(-1 0 0 1 1093.5 472.5)"/><circle r=".5" transform="matrix(-1 0 0 1 1252.5 407.5)"/><circle r=".5" transform="matrix(-1 0 0 1 1371 401.5)"/><circle r=".5" transform="matrix(-1 0 0 1 1285.5 386.5)"/><circle r=".5" transform="matrix(-1 0 0 1 931.5 41.5)"/><circle r=".5" transform="matrix(-1 0 0 1 588.5 103.5)"/><circle r=".5" transform="matrix(-1 0 0 1 888.5 364.5)"/><circle r=".5" transform="matrix(-1 0 0 1 798.5 365.5)"/><circle r=".5" transform="matrix(-1 0 0 1 750.5 506.5)"/><circle r=".5" transform="matrix(-1 0 0 1 428.5 558.475)"/><circle r=".5" transform="matrix(-1 0 0 1 764.5 424.5)"/><circle r=".5" transform="matrix(-1 0 0 1 370.781 390.73)"/><circle r=".5" transform="matrix(-1 0 0 1 46.22 458.629)"/><circle r=".5" transform="matrix(-1 0 0 1 1156.5 332.5)"/><circle r=".5" transform="matrix(-1 0 0 1 645.58 381.5)"/><circle r=".5" transform="matrix(-1 0 0 1 671.5 443.818)"/><circle r=".5" transform="matrix(-1 0 0 1 1253.5 272.5)"/><circle r=".5" transform="matrix(-1 0 0 1 284.663 199.5)"/><circle r=".5" transform="matrix(-1 0 0 1 984.5 381.5)"/><circle r=".5" transform="matrix(-1 0 0 1 1662.98 183.5)"/><circle r=".5" transform="matrix(-1 0 0 1 1684.88 48)"/><circle r=".5" transform="matrix(-1 0 0 1 1559.5 120.5)"/><circle r=".5" transform="matrix(-1 0 0 1 459.05 211.416)"/><circle r=".5" transform="matrix(-1 0 0 1 1690.36 138.434)"/><circle r=".5" transform="matrix(-1 0 0 1 59.172 272.5)"/><circle r=".5" transform="matrix(-1 0 0 1 1237.5 58.5)"/><circle r=".5" transform="matrix(-1 0 0 1 517.642 241)"/><circle r=".5" transform="matrix(-1 0 0 1 1314.5 218.5)"/><circle r=".5" transform="matrix(-1 0 0 1 1633.65 72.5)"/></g><path fill="url(#f)" fill-rule="evenodd" d="M1132.58 478.538c-2.91-.638-5.81-1.16-8.7-1.576-10.21-3.109-20.02-5.022-29.37-5.63-28.58-1.877-52.92 8.435-71.44 34.072-20.45 28.305-52.498 36.64-74.498 35.561-4.822-.241-9.158-.935-12.782-1.97-7.817-2.233-18.52-4.898-30.32-5.479-18.647-.932-40.043 3.335-57.109 22.749-22.495 25.59-41.229 39.9-72.41 38.375-7.387-.367-15.472-1.622-24.47-3.824a89 89 0 0 0-16.86-2.475c-38.922-1.935-69.079 22.936-85.928 38.937-16.676 15.838-44.94 36.019-83.533 34.132-5.816-.289-11.866-1.079-18.146-2.46a120 120 0 0 0-8.826-1.594c-41.345-12.58-76.125-5.53-100.682 28.46-24.958 34.547-67.196 39.346-87.355 33.588-20.158-5.758-59.516-14.395-87.354 17.273-27.839 31.669-49.917 46.063-96.954 34.548-47.038-11.516-83.515 18.233-102.714 36.466S9.372 849.915-38.625 839.359c-38.398-8.445-76.795 3.52-91.194 10.556v209.205h732.435V878.708h585.634V698.295h585.57v-401.13c-6.72 4.48-28.61 10.748-62.4 0-42.23-13.435-77.75-6.717-102.71 27.83s-67.2 39.345-87.36 33.587c-20.15-5.758-59.51-14.394-87.35 17.274s-49.92 46.063-96.95 34.547c-47.04-11.516-83.52 18.233-102.72 36.466-19.2 18.234-53.75 42.225-101.75 31.669" clip-rule="evenodd"/><g fill="#fff"><path d="m1590 221.931 1.13 4.256 3.87 1.244-3.87 1.245-1.13 4.255-1.13-4.255-3.87-1.245 3.87-1.244zM1512 90l1.13 3.869L1517 95l-3.87 1.131L1512 100l-1.13-3.869L1507 95l3.87-1.131zM1330 303.589l1.13 3.869 3.87 1.131-3.87 1.131-1.13 3.869-1.13-3.869-3.87-1.131 3.87-1.131zM1164 376l1.13 4.255 3.87 1.245-3.87 1.245L1164 387l-1.13-4.255-3.87-1.245 3.87-1.245zM1015.5 48l1.24 4.255L1021 53.5l-4.26 1.245L1015.5 59l-1.24-4.255L1010 53.5l4.26-1.245zM760.5 309l1.245 4.255L766 314.5l-4.255 1.245L760.5 320l-1.245-4.255L755 314.5l4.255-1.245zM220.5 482l1.245 4.255L226 487.5l-4.255 1.245L220.5 493l-1.245-4.255L215 487.5l4.255-1.245zM195.5 97l1.245 4.255L201 102.5l-4.255 1.245L195.5 108l-1.245-4.255L190 102.5l4.255-1.245zM473.5 73l1.245 4.255L479 78.5l-4.255 1.245L473.5 84l-1.245-4.255L468 78.5l4.255-1.245z"/></g><g filter="url(#g)"><circle cx="1580.53" cy="466.5" r="157.5" fill="#76B8DE" fill-opacity=".29"/></g><path stroke="#9DC1F8" d="M1786.46 325.376c3.8 7.437 1.75 17.561-5.5 29.633-7.24 12.046-19.58 25.889-36.07 40.655-32.99 29.527-82.5 62.665-140.71 92.402-58.22 29.737-114.08 50.428-157.34 59.847-21.63 4.71-40.08 6.595-54.08 5.398-14.03-1.2-23.43-5.477-27.23-12.915s-1.76-17.561 5.49-29.633c7.24-12.046 19.58-25.889 36.08-40.655 32.98-29.527 82.49-62.664 140.7-92.402 58.22-29.737 114.09-50.427 157.34-59.846 21.63-4.711 40.08-6.596 54.08-5.399 14.04 1.2 23.44 5.477 27.24 12.915Z"/><g filter="url(#h)"><ellipse cx="1582.41" cy="459.129" fill="#fff" fill-opacity=".18" rx="158.255" ry="159.5" transform="rotate(-56.353 1582.41 459.129)"/></g><circle cx="1582.5" cy="467.46" r="166.175" fill="#fff" transform="rotate(-56.353 1582.5 467.46)"/><mask id="j" width="341" height="341" x="1416" y="303" maskUnits="userSpaceOnUse" style="mask-type:alpha"><path fill="url(#i)" d="M1680.03 332.318c30.56 20.337 52.38 48.875 64.5 80.755 2.67 7.019 8.04 6.188 9.12 9.675.84 5.411 1.85 7.091 2.9 12.891.53 2.922-3.91 5.361-2.86 12.245 6.16 40.286-2.1 82.904-26.46 119.503-51.88 77.947-157.12 99.079-235.07 47.2s-99.08-157.123-47.2-235.069c14.08-21.159 32.1-38.131 52.43-50.593 3.12-1.908.69-6.16 2.73-7.091 5.09-2.329 6.16-3.176 10.77-5.559 1.37-.622 5.52 2.552 9.14 1.024 50.68-21.387 110.78-17.74 160 15.019"/></mask><g mask="url(#j)"><ellipse cx="1589.06" cy="475.425" fill="url(#k)" rx="169.537" ry="182.788" transform="rotate(-56.353 1589.06 475.425)"/><path stroke="url(#l)" stroke-opacity=".03" stroke-width="3" d="M1748.09 476.912c-31.07 18.081-104.73 41.164-150.78-11.158-57.56-65.403-108.03-85.758-206.35-23.797"/><path stroke="url(#m)" stroke-opacity=".3" stroke-width="2" d="M1754.68 443.989c-31.07 18.081-104.73 41.163-150.78-11.158-57.56-65.403-108.02-85.758-206.35-23.797"/><path stroke="url(#n)" stroke-opacity=".3" stroke-width="2" d="M1759.47 427.128c-31.07 18.081-104.73 41.164-150.78-11.158-57.56-65.403-108.02-85.758-206.35-23.797"/><path stroke="url(#o)" stroke-opacity=".05" stroke-width="28" d="M1748.9 361.426c-6.16 46.911-68.24 72.804-117.7 23.695-61.82-61.387-123.93-147.385-217.86-78.958"/><path stroke="url(#p)" d="M1510.55 318.75c2.39-1.818 1.43-3.302.65-3.817-.78-.996-10.64 1.457-13.27 6.629-2.63 5.173 9.64-.539 12.62-2.812Z"/><path fill="#1F0836" d="M1509.88 317.476c2.38-1.855 1.42-3.367.65-3.891-.78-1.013-10.65 1.493-13.28 6.767-2.63 5.273 9.64-.558 12.63-2.876"/><path stroke="url(#q)" stroke-opacity=".05" stroke-width="39" d="M1735.69 309.841c-4.24 31.96-46.49 49.678-80.06 16.294-41.97-41.731-84.09-100.224-148.06-53.493"/></g><mask id="s" width="341" height="341" x="1416" y="303" maskUnits="userSpaceOnUse" style="mask-type:alpha"><path fill="url(#r)" d="M1680.03 332.318c30.56 20.337 52.38 48.875 64.5 80.755 2.67 7.019 8.04 6.188 9.12 9.675.84 5.411 1.85 7.091 2.9 12.891.53 2.922-3.91 5.361-2.86 12.245 6.16 40.286-2.1 82.904-26.46 119.503-51.88 77.947-157.12 99.079-235.07 47.2s-99.08-157.123-47.2-235.069c14.08-21.159 32.1-38.131 52.43-50.593 3.12-1.908.69-6.16 2.73-7.091 5.09-2.329 6.16-3.176 10.77-5.559 1.37-.622 5.52 2.552 9.14 1.024 50.68-21.387 110.78-17.74 160 15.019"/></mask><g mask="url(#s)"><path stroke="#9DC1F8" d="M1786.46 325.375c2.19 4.301 2.44 9.607.7 15.835-1.74 6.231-5.47 13.349-11.17 21.223-11.41 15.749-30.32 33.975-55.17 53.149-24.86 19.17-54.91 38.712-87.64 56.987s-67.18 34.748-100.46 48.038c-33.29 13.291-64.43 23.008-90.81 28.341-26.41 5.338-47.22 6.117-60.74 2.34-6.75-1.886-11.54-4.867-14.37-8.811-2.83-3.933-3.77-8.892-2.69-14.844 2.16-11.949 12.36-27.415 29.88-45.107"/><g filter="url(#t)"><circle cx="1542.01" cy="346.766" r="64.99" fill="#76B8DE" fill-opacity=".35"/></g><g filter="url(#u)"><circle cx="1480.21" cy="346.766" r="24.505" fill="#7686DE" fill-opacity=".65"/></g></g><mask id="v" width="481" height="103" x="1029" y="541" maskUnits="userSpaceOnUse" style="mask-type:alpha"><path fill="#D9D9D9" d="M1460.02 545.414c6.53 6.647 28.85 24.263 43.01 28.251l5.98 53.18-28.85 16.619c-158.25-3.435-469.84-10.304-450.24-10.304s47-22.38 58.25-33.57c10.71 0 39.85-.531 70.78-2.659 30.92-2.127 61.88-32.351 73.49-47.197 1.82-.11 7.52-.265 15.79 0 8.28.266 13.98-2.769 15.79-4.32 62.61-2.77 189.46-6.648 196 0"/></mask><g mask="url(#v)"><path fill="url(#w)" d="M1460.02 545.414c6.53 6.647 28.85 24.263 43.01 28.251l5.98 53.18-28.85 16.619c-158.25-3.435-469.84-10.304-450.24-10.304s47-22.38 58.25-33.57c10.71 0 39.85-.531 70.78-2.659 30.92-2.127 61.88-32.351 73.49-47.197 1.82-.11 7.52-.265 15.79 0 8.28.266 13.98-2.769 15.79-4.32 62.61-2.77 189.46-6.648 196 0"/><path fill="#603F71" d="m1389.78 553.723-167.14 2.992.55 3.656 247.17-.998h-239.55l207.97-1.661-207.97.997 222.67-1.994-223.76 1.329z"/><path fill="#008FDF" fill-opacity=".41" d="m1313.74 544.084 167.51 2.393-.55 2.925-247.71-.798h240.07l-208.43-1.329 208.43.798-223.16-1.596 224.26 1.064z"/><path fill="#000" fill-opacity=".23" d="m1045.94 554.055 1256.31 17.949-4.09 21.936-1857.862-5.983H2240.87l-1563.224-9.971 1563.224 5.983-1673.714-11.966 1681.894 7.978z"/><path fill="#008FDF" fill-opacity=".41" d="m1342.05 577.321 167.51 2.393-.55 2.925-247.71-.797h240.07l-208.42-1.33 208.42.798-223.16-1.596 224.26 1.064zM1282.91 568.015l-138.12 2.393.45 2.925 204.26-.798h-197.96l171.86-1.329-171.86.797 184.01-1.595-184.91 1.064zM1216.11 597.928h-131.75l-16.33 6.648 74.58-.665h-60.97l1.09-.665h113.78l-116.51-.664 91.47-.333-89.83-.332 95.27-.665h-96.36c-.87 0 0-.443.54-.665l97.46-.664-89.29-.333 113.24-.664h-114.87z"/><path fill="#000" fill-opacity=".41" d="M1481.25 608.565H984.272l-61.609 25.26 281.347-2.526H974.004l4.107-2.526h429.209l-439.477-2.526 345.007-1.263-338.846-1.263 359.386-2.526H969.897c-3.286 0 0-1.684 2.053-2.526l367.6-2.526-336.8-1.263 427.16-2.526H996.594z"/><path fill="#008FDF" fill-opacity=".41" d="M1432.25 570.674H1564l16.33-6.648-74.58.665h60.97l-1.08.665h-113.79l116.51.665-91.47.332 89.83.332-95.27.665h96.36c.87 0 0 .443-.54.665l-97.45.665 89.28.332-113.24.665h114.88z"/></g><path fill="#9B7CB0" d="M1667.23 508.388c-25.08 4.375-185.61 29.896-314.78 148.018l435.5 17.529s24.44-132.861 14.69-173.476c-3.15-13.107-127.76 6.595-135.41 7.929"/><mask id="y" width="526" height="199" x="1351" y="496" maskUnits="userSpaceOnUse" style="mask-type:alpha"><path fill="url(#x)" d="M1666.15 509.416c-25.08 4.375-185.61 29.895-314.79 148.018l18.81 37.551 461.46-6.292s48.31-122.281 44.54-170.922c-3.08-39.664-195.94-10.811-210.02-8.355"/></mask><g mask="url(#y)"><path fill="url(#z)" d="m1675.5 460.156-356.56 127.877 51.86 106.952 359.94 3.975 186.31-146.032z"/><path fill="#000" fill-opacity=".15" d="M1576.79 569.571c12.79-42.874-105.87 5.712-166.8 35.364-33.44 23.211-100.83 70.217-102.84 72.551-2 2.333 247.69 31.774 366.52 28.372 10.35-8.993 15.87-65.924 5.33-79.048-13.17-16.406-29.78.729-75.87 10.208s-42.33-13.854-26.34-67.447"/><path stroke="#fff" stroke-opacity=".2" d="M1435.07 657.799c79.47-26.795 257.49-45.208 311.83-41.687M1411.56 608.216c78.07-61.978 196.9 21.146 256.16-19.322M1670.54 575.537c-14.55 5.345-28.58 6.917-39.5 5.16-10.94-1.76-18.63-6.833-20.75-14.642-2.13-7.809 1.66-17.097 9.75-25.848 8.07-8.734 20.33-16.824 34.88-22.17 14.55-5.345 28.59-6.917 39.51-5.16 10.94 1.76 18.63 6.833 20.75 14.642s-1.66 17.097-9.75 25.848c-8.07 8.734-20.33 16.824-34.89 22.17Z"/></g><path fill="#BDCBEE" d="M293.358 586.576c17.063 16.703 26.741 35.895 40.875 39.135-30.466 21.542-237.153-48.959-352.838-84.952 61.37-36.007 93.525-8.519 106.987-.538s21.04 3.759 47.162-3.64 36.042-1.519 59.58 15.308 51.854 12.834 62.092 14.786 14.814-.977 36.142 19.901"/><mask id="B" width="435" height="129" x="-73" y="535" maskUnits="userSpaceOnUse" style="mask-type:alpha"><path fill="url(#A)" d="M297.567 604.529c17.062 16.703 49.595 27.359 63.729 30.599-21.147 14.953-308.757 47.425-408.636 14.691-44.015-14.426-27.682-65.713 23.498-95.741 61.37-36.007 93.526-8.519 106.988-.538s21.039 3.759 47.162-3.64 36.041-1.519 59.58 15.308c23.538 16.826 51.853 12.834 62.091 14.786s24.26 3.657 45.588 24.535"/></mask><g mask="url(#B)"><path fill="#9D6BB5" d="M297.058 604.419c17.062 16.703 49.595 27.358 63.729 30.599-30.466 21.542-269.453-45.058-385.138-81.051 61.37-36.007 93.526-8.518 106.988-.538s21.039 3.759 47.162-3.64 36.041-1.518 59.58 15.308c23.538 16.827 51.854 12.835 62.091 14.786 10.238 1.952 24.26 3.658 45.588 24.536"/><path fill="url(#C)" d="M297.456 605.039c17.063 16.702 49.596 27.358 63.729 30.598 3.897 60.888-337.59 75.077-453.705 51.425-71.429-14.55.155-102.027 68.568-132.475 61.37-36.007 93.526-8.519 106.988-.538s21.039 3.759 47.161-3.64c26.123-7.399 36.042-1.519 59.58 15.308 23.539 16.826 51.854 12.834 62.092 14.786s24.259 3.657 45.587 24.536"/><path stroke="#000" stroke-opacity=".5" d="M190.163 575.542c-3.551 5.502-10.046 8.432-17.764 8.65-7.715.218-16.598-2.281-24.804-7.577s-14.142-12.361-17.122-19.481c-2.98-7.122-2.986-14.247.565-19.749s10.046-8.433 17.764-8.651c7.715-.218 16.598 2.282 24.804 7.578 8.205 5.295 14.142 12.36 17.122 19.48 2.98 7.122 2.986 14.248-.565 19.75Z"/><path stroke="#000" stroke-opacity=".5" d="M189.562 566.407c-3.55 5.502-10.045 8.432-17.763 8.65-7.715.218-16.599-2.282-24.804-7.577-8.206-5.296-14.143-12.361-17.122-19.481-2.981-7.122-2.986-14.247.565-19.75 3.551-5.502 10.046-8.432 17.763-8.65 7.715-.218 16.599 2.282 24.804 7.577 8.206 5.296 14.143 12.361 17.123 19.481 2.98 7.122 2.985 14.247-.566 19.75ZM296.461 597.031c-3.551 5.502-10.046 8.432-17.764 8.65-7.715.218-16.598-2.281-24.804-7.577s-14.142-12.361-17.122-19.48c-2.98-7.123-2.986-14.248.565-19.75s10.046-8.433 17.764-8.651c7.715-.218 16.598 2.282 24.804 7.578 8.205 5.295 14.143 12.36 17.122 19.48 2.98 7.123 2.986 14.248-.565 19.75ZM58.99 546.643c-3.551 5.503-10.046 8.433-17.764 8.651-7.715.218-16.598-2.282-24.804-7.577C8.217 542.421 2.28 535.356-.7 528.236c-2.98-7.122-2.986-14.248.565-19.75s10.046-8.432 17.764-8.65c7.715-.218 16.598 2.281 24.804 7.577s14.142 12.361 17.122 19.481c2.98 7.122 2.986 14.247-.565 19.749Z"/><path fill="#000" fill-opacity=".23" d="M149.192 541.465c7.505 3.492-58.01 44.358-72.89 21.519-14.88-22.84 65.385-25.011 72.89-21.519"/><path fill="#000" fill-opacity=".25" d="M190.303 574.359c15.25 7.355 45.065 3.99 58.066 1.388-11.668.137-38.571-1.322-52.847-8.253-17.845-8.663-24.281-2.329-5.219 6.865"/></g><mask id="E" width="1882" height="308" x="-67" y="630" maskUnits="userSpaceOnUse" style="mask-type:alpha"><path fill="url(#D)" d="M1776.94 640.166c-573.18-14.112-1593.613-11.941-1843.294 0l17.37 297.446H1813.85c3.2-106.852-29.23-300.233-36.91-297.446"/></mask><g mask="url(#E)"><path fill="url(#F)" d="M1771.51 591.316c-650.01-21.603-1603.91 2.94-1835.693 11.941l-19.54 343.039H1762.83c3.2-106.852 16.37-357.768 8.68-354.98"/><path fill="#98E6FF" fill-opacity=".12" d="M1417.76 819.525c-44.23 90.674-387.87 159.909-554.164 183.195l-257.993 97.52-272.472-57.98c-22.377-41.74-50.019-153.939 18.428-268.863 85.559-143.654 814.781-69.85 875.331-65.896s151.7-91.755-648.605-74.966c-182.409 3.827-231.92-9.792-243.35-16.385.421 2.987-.799 8.17-6.897 16.385L266 558.574c207.974-6.589 676.574-13.706 887.18 10.544 263.26 30.312 319.86 137.065 264.58 250.407"/><path stroke="#fff" stroke-opacity=".33" stroke-width=".5" d="M-177 810.522c136.298 45.474 380.661 146.166 267.729 185.143-141.166 48.725-87.62-253.354 253.125-214.377s561.418 209.505 626.322 191.641 243.394-66.587 165.504-181.896C1057.8 675.724 559.659 909.59 726.786 1075.24M1389.52 847.208c85.32.893 302.69-19.018 368.97-26.837l-7.6-195.403c-113.31-3.723-418.91 4.405-511.33 58.026-115.52 67.026 137.74 93.836 241.05 102.773s-197.72 60.324-91.09 61.441Z"/></g><mask id="G" width="132" height="132" x="665" y="73" maskUnits="userSpaceOnUse" style="mask-type:alpha"><circle cx="730.934" cy="138.934" r="65.933" fill="#D9D9D9" transform="rotate(-180 730.934 138.934)"/></mask><g mask="url(#G)"><circle cx="730.934" cy="138.934" r="65.933" fill="#fff" transform="rotate(-180 730.934 138.934)"/><circle cx="728.492" cy="136.492" r="65.933" fill="url(#H)" transform="rotate(-180 728.492 136.492)"/><path fill="#AB76CC" fill-opacity=".28" d="M796.867 121.84H667.442V97.42h129.425zM784.657 204.867H679.652v-14.652h105.005zM809.077 148.701H655.232v-9.768h153.845z"/><circle cx="704.072" cy="124.282" r="65.933" fill="#000" fill-opacity=".17" transform="rotate(-180 704.072 124.282)"/></g><rect width="176" height="11" x="1359" y="745.405" fill="#fff" rx="5.5"/><rect width="175" height="10" x="1283" y="768.405" fill="#fff" rx="5"/><rect width="77" height="11" x="1250" y="745.405" fill="#fff" rx="5.5"/><mask id="I" width="270" height="91" x="1258" y="683" maskUnits="userSpaceOnUse" style="mask-type:alpha"><path fill="#D9D9D9" d="M1287.37 773.446h165.57l-26.85-23.163h101.8L1433.92 683l-16.78 22.06h-72.71l-86.14 45.223h51.46z"/></mask><g mask="url(#I)"><path fill="url(#J)" d="M1287.37 773.446h165.57l-26.85-23.163h101.8L1433.92 683l-16.78 22.06h-72.71l-86.14 45.223h51.46z"/><g fill="#000" fill-opacity=".36"><path d="m1341.78 717.787-53.92 55.658 78.27 20.873h-37.4l-55.66-9.567-20-13.045-1.74-26.96 43.49-20.002zM1392.22 719.526l60.01 53.919 38.26-20.002zM1447.88 724.744l-31.31-19.133 15.65-26.959zM1392.22 753.443l21.74 21.742-47.83 2.609 13.04-33.048 13.05 15.654z"/></g><path fill="#D9B75F" fill-opacity=".23" d="m1373.82 695.175-110.31 10.175.36 12.437 163.14-3.392H1268.9l137.26-5.653-137.26 3.392 146.97-6.784-147.69 4.523zM1424.73 679.212l26.18 5.063 2.4 12.203-36.39 3.936 34.61-7.036-31.17.569 30.72-2.785-33.52-.107 33.23-2.141z"/><path fill="#000" fill-opacity=".23" d="m1495.71 709.96 65.22 7.131-.62 26.786h-137.65l128.98-7.305-139.42-4.871h139.42l-151.59-7.305 152.83 2.435zM1327.3 731.701l-62.05 6.949.59 26.099h130.96l-122.72-7.118 132.65-4.745h-132.65l144.23-7.118-145.4 2.372z"/></g><rect width="176" height="14" x="253.942" y="748.931" fill="#fff" rx="7"/><rect width="176" height="13" x="133.942" y="778.931" fill="#fff" rx="6.5"/><rect width="286" height="19" x="-15.058" y="800.931" fill="#fff" rx="9.5"/><mask id="K" width="432" height="196" x="-16" y="615" maskUnits="userSpaceOnUse" style="mask-type:alpha"><path fill="#D9D9D9" d="m118.924 615.874-79.158 22.827-54.824 171.937h275.749l-34.787-25.221h73.053l-38.266-29.568h154.801c-35.656-32.178-99.142-33.048-141.756-39.135-34.091-4.87-57.688-27.54-65.225-38.266-52.18 0-82.34-38.223-89.587-62.574"/></mask><g mask="url(#K)"><path fill="url(#L)" d="M118.163 585.532H-39.993l3.38 244.125 362.803-4.546 133.553-68.89z"/><g fill="#000" fill-opacity=".36"><path d="m148.504 708.887 77.4 76.531 37.396 5.218zM225.904 726.28l45.223 37.396h46.963z"/><path d="m167.637 778.46 40.004 32.178 11.37 10.862-314.692 13.972 13.946-164.951 223.995-83.352L-11.6 726.28l-6.66 88.265 50.355-64.784v17.221l55.727-90.639 74.597 79.506-49.572-6.088 49.572 60.877zM316.35 757.588c7.827-18.263 75.661-19.132 80.879-19.132l26.09 19.132c-38.265 6.088-113.23 14.611-106.969 0"/></g><path fill="#000" fill-opacity=".23" d="m36.278 646.914 326.254 37.57-1.063 45.919-482.473-12.524h467.595l-405.957-20.872 405.957 12.524-434.65-25.047 436.776 16.698z"/><path fill="#D9B75F" fill-opacity=".23" d="m152.026 657.633-239.409 12.523.78 15.306 354.045-4.174H-75.685l297.896-6.958-297.896 4.175 318.952-8.349-320.512 5.566zM50.936 623.958l197.161 12.523-.643 15.307-291.566-4.175h282.575l-245.326-6.957 245.326 4.174-262.666-8.349 263.951 5.566z"/></g><mask id="M" width="168" height="17" x="258" y="744" maskUnits="userSpaceOnUse" style="mask-type:alpha"><path fill="#D9D9D9" d="M258.571 744h167.371v17H267.623l-7.102-4.667z"/></mask><g fill="#fff" mask="url(#M)"><path d="M362.567 752.731c6.125 0 9.625 3.6 18.375 3.6v3.6h-65.624c-19.25 0-28.875-3.6-17.5-3.6s9.625-5.4 19.25-5.4 8.75 5.4 21.875 5.4 16.961-3.6 23.624-3.6"/><circle cx="333.442" cy="750.431" r="1.5" class="affiliate-svg-splash"/><circle cx="372.942" cy="749.931" r="1" class="affiliate-svg-splash"/><circle cx="341.942" cy="751" r="1" class="affiliate-svg-splash"/></g><mask id="N" width="305" height="17" x="-37" y="797" maskUnits="userSpaceOnUse" style="mask-type:alpha"><path fill="#D9D9D9" d="M-36.487 797h303.929v17h-295.25z"/></mask><g fill="#fff" mask="url(#N)"><path d="M171.083 805.731c7.869 0 14.359 4.769 24.359 5.269l-6.371 1.931h-62.954c-6.103 0-30.334-.744-34.447-1.116 5.394-.74 6.592-.815 14.71-1.584 11.316-1.071 11.868-6.3 21.486-6.3s8.743 5.4 21.859 5.4c13.115 0 14.699-3.6 21.358-3.6"/><circle cx="142.442" cy="805.5" r="1.5" class="affiliate-svg-splash"/></g><mask id="O" width="102" height="15" x="1430" y="739" maskUnits="userSpaceOnUse" style="mask-type:alpha"><path fill="#D9D9D9" d="M1430.06 739.138h101.64v14.572h-101.64z"/></mask><g fill="#fff" mask="url(#O)"><path d="M1486.89 748.405c4.04 0 6.34 2 12.11 2v2h-43.25c-12.69 0-19.03-2-11.54-2 7.5 0 6.35-3 12.69-3s5.33 2.5 13.98 2.5 11.62-1.5 16.01-1.5"/><circle cx="1462" cy="743.474" r="2" class="affiliate-svg-splash"/><circle cx="1470" cy="744.405" r="1" class="affiliate-svg-splash"/></g><mask id="P" width="171" height="19" x="1284" y="758" maskUnits="userSpaceOnUse" style="mask-type:alpha"><path fill="#D9D9D9" d="m1284 758 154.02 1.789L1455 768v9l-171-1.5z"/></mask><g fill="#fff" mask="url(#P)"><path d="M1417.82 767.508c9.83.308 7.16 5.471 20.73 6.144 13.56.673-23.38 3.074-48.85 2.727-8.86-.12-19.93-2.727-14.7-2.727 7.64 0 9.04-1.285 13.47-1.285s2.99 1.285 9.03 1.285 11.92-6.408 20.32-6.144"/><circle cx="1428" cy="767.474" r="1" class="affiliate-svg-splash"/><path d="M1356.19 771.026c2.82 0 4.78 2.433 8.81 2.433v1.622c-6.71 0-23.61.324-30.7.324-8.86 0-13.29-1.946-8.05-1.946 5.23 0 5.25-4.054 9.68-4.054 4.44 0 3.38 3.243 9.43 3.243 6.04 0 7.76-1.622 10.83-1.622"/><circle cx="1344" cy="770.474" r="1" class="affiliate-svg-splash"/></g><mask id="Q" width="63" height="15" x="1253" y="741" maskUnits="userSpaceOnUse" style="mask-type:alpha"><path fill="#D9D9D9" d="M1253.5 741h62.43l-3.68 7-8.25 8h-50.5z"/></mask><g fill="#fff" mask="url(#Q)"><path d="M1290.96 748.405c5.79-.081 3.44 2 12.04 3l-10.32-.216c-3.1 0-10.89.216-14.16.216h-14.21c2.41 0 7.74-4 12.89-4 2.05 0 3.63 2.162 6.42 2.162s5.93-1.142 7.34-1.162"/><circle cx="1282" cy="746.405" r="1" class="affiliate-svg-splash"/><circle cx="1286.5" cy="746.974" r=".5" class="affiliate-svg-splash"/></g><path stroke="url(#R)" stroke-linecap="round" stroke-width=".5" d="m1260.62 92 86.38 73.416"/><g filter="url(#S)"><circle r="2.5" fill="#E89D67" transform="matrix(-1 0 0 1 1346.5 164.916)"/></g><circle r="1.5" fill="#fff" transform="matrix(-1 0 0 1 1346.5 164.916)"/><path stroke="url(#T)" stroke-linecap="round" stroke-width=".5" d="m1073.33 201 86.38 73.416"/><g filter="url(#U)"><circle r="2.5" fill="#E89D67" transform="matrix(-1 0 0 1 1159.21 273.916)"/></g><circle r="1.5" fill="#fff" transform="matrix(-1 0 0 1 1159.21 273.916)"/><path stroke="url(#V)" stroke-linecap="round" stroke-width=".5" d="m1394.62 136 86.38 73.416"/><g filter="url(#W)"><circle r="2.5" fill="#E89D67" transform="matrix(-1 0 0 1 1480.5 208.916)"/></g><circle r="1.5" fill="#fff" transform="matrix(-1 0 0 1 1480.5 208.916)"/><path stroke="url(#X)" stroke-linecap="round" stroke-width=".5" d="m890.332 79 86.382 73.416"/><g filter="url(#Y)"><circle r="2.5" fill="#E89D67" transform="matrix(-1 0 0 1 976.214 151.916)"/></g><circle r="1.5" fill="#fff" transform="matrix(-1 0 0 1 976.214 151.916)"/><path stroke="url(#Z)" stroke-linecap="round" stroke-width=".5" d="m519.332 11 86.382 73.416"/><g filter="url(#aa)"><circle r="2.5" fill="#E89D67" transform="matrix(-1 0 0 1 605.214 83.916)"/></g><circle r="1.5" fill="#fff" transform="matrix(-1 0 0 1 605.214 83.916)"/><path stroke="url(#ab)" stroke-linecap="round" stroke-width=".5" d="m101.332 254 86.382 73.416"/><g filter="url(#ac)"><circle r="2.5" fill="#E89D67" transform="matrix(-1 0 0 1 187.214 326.916)"/></g><circle r="1.5" fill="#fff" transform="matrix(-1 0 0 1 187.214 326.916)"/><path stroke="url(#ad)" stroke-linecap="round" stroke-width=".5" d="m253.332-8 86.382 73.416"/><g filter="url(#ae)"><circle r="2.5" fill="#E89D67" transform="matrix(-1 0 0 1 339.214 64.916)"/></g><circle r="1.5" fill="#fff" transform="matrix(-1 0 0 1 339.214 64.916)"/><path stroke="url(#af)" stroke-linecap="round" stroke-width=".5" d="m1361.35 40.827 42.65 36.59"/><g filter="url(#ag)"><circle r="2.5" fill="#E89D67" transform="matrix(-1 0 0 1 1403.5 76.916)"/></g><circle r="1.5" fill="#fff" transform="matrix(-1 0 0 1 1403.5 76.916)"/><path stroke="url(#ah)" stroke-linecap="round" stroke-width=".5" d="m860.332 276 42.65 36.589"/><g filter="url(#ai)"><circle r="2.5" fill="#E89D67" transform="matrix(-1 0 0 1 902.482 312.089)"/></g><circle r="1.5" fill="#fff" transform="matrix(-1 0 0 1 902.482 312.089)"/><path stroke="url(#aj)" stroke-linecap="round" stroke-width=".5" d="m1566.35 183 42.65 36.589"/><g filter="url(#ak)"><circle r="2.5" fill="#E89D67" transform="matrix(-1 0 0 1 1608.5 219.089)"/></g><circle r="1.5" fill="#fff" transform="matrix(-1 0 0 1 1608.5 219.089)"/></g><defs><linearGradient id="b" x1="880.803" x2="880.803" y1="0" y2="1761.34" gradientUnits="userSpaceOnUse"><stop offset=".271" stop-color="#21284B"/><stop offset="1" stop-color="#5153E7"/></linearGradient><linearGradient id="f" x1="185.041" x2="307.844" y1="554.607" y2="951.92" gradientUnits="userSpaceOnUse"><stop stop-color="#8886D9" stop-opacity=".33"/><stop offset=".779" stop-color="#fff" stop-opacity="0"/></linearGradient><linearGradient id="k" x1="1589.06" x2="1589.06" y1="292.637" y2="658.213" gradientUnits="userSpaceOnUse"><stop stop-color="#6567CE"/><stop offset=".693" stop-color="#271745"/></linearGradient><linearGradient id="l" x1="1723.96" x2="1467.45" y1="504.619" y2="402.901" gradientUnits="userSpaceOnUse"><stop stop-color="#fff"/><stop offset="1" stop-color="#fff" stop-opacity="0"/></linearGradient><linearGradient id="m" x1="1727.78" x2="1511.15" y1="465.801" y2="364.453" gradientUnits="userSpaceOnUse"><stop stop-color="#fff" stop-opacity="0"/><stop offset="1" stop-color="#fff"/></linearGradient><linearGradient id="n" x1="1732.57" x2="1515.94" y1="448.94" y2="347.592" gradientUnits="userSpaceOnUse"><stop stop-color="#fff" stop-opacity="0"/><stop offset="1" stop-color="#fff" stop-opacity=".35"/></linearGradient><linearGradient id="o" x1="1757.01" x2="1534.07" y1="409.692" y2="323.13" gradientUnits="userSpaceOnUse"><stop stop-color="#F1C480"/><stop offset="1" stop-color="#F3D4A4" stop-opacity="0"/></linearGradient><linearGradient id="p" x1="1508.02" x2="1506.06" y1="324.653" y2="320.567" gradientUnits="userSpaceOnUse"><stop stop-color="#fff"/><stop offset="1" stop-color="#fff" stop-opacity="0"/></linearGradient><linearGradient id="q" x1="1741.15" x2="1589.76" y1="342.705" y2="283.766" gradientUnits="userSpaceOnUse"><stop stop-color="#F1C480"/><stop offset="1" stop-color="#F3D4A4" stop-opacity="0"/></linearGradient><linearGradient id="w" x1="1269.02" x2="1269.02" y1="541.743" y2="643.464" gradientUnits="userSpaceOnUse"><stop stop-color="#7E549F"/><stop offset="1" stop-color="#090752"/></linearGradient><linearGradient id="x" x1="1675.55" x2="1496.6" y1="499.572" y2="571.713" gradientUnits="userSpaceOnUse"><stop stop-color="#353F7D"/><stop offset="1" stop-color="#1F234E"/></linearGradient><linearGradient id="z" x1="1676.18" x2="1451.26" y1="499.572" y2="620.281" gradientUnits="userSpaceOnUse"><stop stop-color="#765387"/><stop offset="1" stop-color="#1F234E"/></linearGradient><linearGradient id="A" x1="226.659" x2="88.661" y1="562.781" y2="592.046" gradientUnits="userSpaceOnUse"><stop stop-color="#354E8F"/><stop offset="1" stop-color="#1F3161"/></linearGradient><linearGradient id="C" x1="226.549" x2="89.379" y1="563.29" y2="572.746" gradientUnits="userSpaceOnUse"><stop stop-color="#765387"/><stop offset="1" stop-color="#1F3161"/></linearGradient><linearGradient id="D" x1="868.5" x2="868.5" y1="624.244" y2="953.244" gradientUnits="userSpaceOnUse"><stop stop-color="#1A2F65"/><stop offset="1" stop-color="#3D6491"/></linearGradient><linearGradient id="F" x1="868.499" x2="868.499" y1="624.245" y2="953.245" gradientUnits="userSpaceOnUse"><stop stop-color="#1A2F65"/><stop offset="1" stop-color="#3D6491"/></linearGradient><linearGradient id="J" x1="1393.09" x2="1393.09" y1="683" y2="773.446" gradientUnits="userSpaceOnUse"><stop offset=".239" stop-color="#5B3879"/><stop offset="1" stop-color="#372762"/></linearGradient><linearGradient id="L" x1="236.775" x2="236.775" y1="605.396" y2="810.638" gradientUnits="userSpaceOnUse"><stop stop-color="#5D397A"/><stop offset="1" stop-color="#221D55"/></linearGradient><linearGradient id="R" x1="1346.83" x2="1264.54" y1="166.271" y2="96.988" gradientUnits="userSpaceOnUse"><stop/><stop offset="0" stop-color="#fff"/><stop offset="1" stop-color="#fff" stop-opacity="0"/></linearGradient><linearGradient id="T" x1="1159.54" x2="1077.26" y1="275.271" y2="205.988" gradientUnits="userSpaceOnUse"><stop/><stop offset="0" stop-color="#fff"/><stop offset="1" stop-color="#fff" stop-opacity="0"/></linearGradient><linearGradient id="V" x1="1480.83" x2="1398.54" y1="210.271" y2="140.988" gradientUnits="userSpaceOnUse"><stop/><stop offset="0" stop-color="#fff"/><stop offset="1" stop-color="#fff" stop-opacity="0"/></linearGradient><linearGradient id="X" x1="976.542" x2="894.256" y1="153.271" y2="83.988" gradientUnits="userSpaceOnUse"><stop/><stop offset="0" stop-color="#fff"/><stop offset="1" stop-color="#fff" stop-opacity="0"/></linearGradient><linearGradient id="Z" x1="605.542" x2="523.256" y1="85.271" y2="15.988" gradientUnits="userSpaceOnUse"><stop/><stop offset="0" stop-color="#fff"/><stop offset="1" stop-color="#fff" stop-opacity="0"/></linearGradient><linearGradient id="ab" x1="187.542" x2="105.256" y1="328.271" y2="258.988" gradientUnits="userSpaceOnUse"><stop/><stop offset="0" stop-color="#fff"/><stop offset="1" stop-color="#fff" stop-opacity="0"/></linearGradient><linearGradient id="ad" x1="339.542" x2="257.256" y1="66.271" y2="-3.012" gradientUnits="userSpaceOnUse"><stop/><stop offset="0" stop-color="#fff"/><stop offset="1" stop-color="#fff" stop-opacity="0"/></linearGradient><linearGradient id="af" x1="1403.67" x2="1362.88" y1="78.135" y2="43.791" gradientUnits="userSpaceOnUse"><stop/><stop offset="0" stop-color="#fff"/><stop offset="1" stop-color="#fff" stop-opacity="0"/></linearGradient><linearGradient id="ah" x1="902.648" x2="861.862" y1="313.307" y2="278.964" gradientUnits="userSpaceOnUse"><stop/><stop offset="0" stop-color="#fff"/><stop offset="1" stop-color="#fff" stop-opacity="0"/></linearGradient><linearGradient id="aj" x1="1608.67" x2="1567.88" y1="220.307" y2="185.964" gradientUnits="userSpaceOnUse"><stop/><stop offset="0" stop-color="#fff"/><stop offset="1" stop-color="#fff" stop-opacity="0"/></linearGradient><filter id="c" width="523.046" height="480.21" x="502.454" y="275.061" color-interpolation-filters="sRGB" filterUnits="userSpaceOnUse"><feFlood flood-opacity="0" result="BackgroundImageFix"/><feBlend in="SourceGraphic" in2="BackgroundImageFix" result="shape"/><feGaussianBlur result="effect1_foregroundBlur_442_4387" stdDeviation="47"/></filter><filter id="d" width="906.694" height="770.032" x="1236.51" y="-535.038" color-interpolation-filters="sRGB" filterUnits="userSpaceOnUse"><feFlood flood-opacity="0" result="BackgroundImageFix"/><feBlend in="SourceGraphic" in2="BackgroundImageFix" result="shape"/><feGaussianBlur result="effect1_foregroundBlur_442_4387" stdDeviation="47"/></filter><filter id="e" width="906.695" height="770.032" x="64.795" y="-292.038" color-interpolation-filters="sRGB" filterUnits="userSpaceOnUse"><feFlood flood-opacity="0" result="BackgroundImageFix"/><feBlend in="SourceGraphic" in2="BackgroundImageFix" result="shape"/><feGaussianBlur result="effect1_foregroundBlur_442_4387" stdDeviation="47"/></filter><filter id="g" width="467" height="467" x="1347.03" y="233" color-interpolation-filters="sRGB" filterUnits="userSpaceOnUse"><feFlood flood-opacity="0" result="BackgroundImageFix"/><feBlend in="SourceGraphic" in2="BackgroundImageFix" result="shape"/><feGaussianBlur result="effect1_foregroundBlur_442_4387" stdDeviation="38"/></filter><filter id="h" width="350.272" height="349.309" x="1407.27" y="284.475" color-interpolation-filters="sRGB" filterUnits="userSpaceOnUse"><feFlood flood-opacity="0" result="BackgroundImageFix"/><feBlend in="SourceGraphic" in2="BackgroundImageFix" result="shape"/><feGaussianBlur result="effect1_foregroundBlur_442_4387" stdDeviation="8"/></filter><filter id="t" width="169.981" height="169.981" x="1457.02" y="261.776" color-interpolation-filters="sRGB" filterUnits="userSpaceOnUse"><feFlood flood-opacity="0" result="BackgroundImageFix"/><feBlend in="SourceGraphic" in2="BackgroundImageFix" result="shape"/><feGaussianBlur result="effect1_foregroundBlur_442_4387" stdDeviation="10"/></filter><filter id="u" width="73.009" height="73.009" x="1443.71" y="310.262" color-interpolation-filters="sRGB" filterUnits="userSpaceOnUse"><feFlood flood-opacity="0" result="BackgroundImageFix"/><feBlend in="SourceGraphic" in2="BackgroundImageFix" result="shape"/><feGaussianBlur result="effect1_foregroundBlur_442_4387" stdDeviation="6"/></filter><filter id="S" width="31" height="31" x="1331" y="149.416" color-interpolation-filters="sRGB" filterUnits="userSpaceOnUse"><feFlood flood-opacity="0" result="BackgroundImageFix"/><feBlend in="SourceGraphic" in2="BackgroundImageFix" result="shape"/><feGaussianBlur result="effect1_foregroundBlur_442_4387" stdDeviation="6.5"/></filter><filter id="U" width="31" height="31" x="1143.71" y="258.416" color-interpolation-filters="sRGB" filterUnits="userSpaceOnUse"><feFlood flood-opacity="0" result="BackgroundImageFix"/><feBlend in="SourceGraphic" in2="BackgroundImageFix" result="shape"/><feGaussianBlur result="effect1_foregroundBlur_442_4387" stdDeviation="6.5"/></filter><filter id="W" width="31" height="31" x="1465" y="193.416" color-interpolation-filters="sRGB" filterUnits="userSpaceOnUse"><feFlood flood-opacity="0" result="BackgroundImageFix"/><feBlend in="SourceGraphic" in2="BackgroundImageFix" result="shape"/><feGaussianBlur result="effect1_foregroundBlur_442_4387" stdDeviation="6.5"/></filter><filter id="Y" width="31" height="31" x="960.714" y="136.416" color-interpolation-filters="sRGB" filterUnits="userSpaceOnUse"><feFlood flood-opacity="0" result="BackgroundImageFix"/><feBlend in="SourceGraphic" in2="BackgroundImageFix" result="shape"/><feGaussianBlur result="effect1_foregroundBlur_442_4387" stdDeviation="6.5"/></filter><filter id="aa" width="31" height="31" x="589.714" y="68.416" color-interpolation-filters="sRGB" filterUnits="userSpaceOnUse"><feFlood flood-opacity="0" result="BackgroundImageFix"/><feBlend in="SourceGraphic" in2="BackgroundImageFix" result="shape"/><feGaussianBlur result="effect1_foregroundBlur_442_4387" stdDeviation="6.5"/></filter><filter id="ac" width="31" height="31" x="171.714" y="311.416" color-interpolation-filters="sRGB" filterUnits="userSpaceOnUse"><feFlood flood-opacity="0" result="BackgroundImageFix"/><feBlend in="SourceGraphic" in2="BackgroundImageFix" result="shape"/><feGaussianBlur result="effect1_foregroundBlur_442_4387" stdDeviation="6.5"/></filter><filter id="ae" width="31" height="31" x="323.714" y="49.416" color-interpolation-filters="sRGB" filterUnits="userSpaceOnUse"><feFlood flood-opacity="0" result="BackgroundImageFix"/><feBlend in="SourceGraphic" in2="BackgroundImageFix" result="shape"/><feGaussianBlur result="effect1_foregroundBlur_442_4387" stdDeviation="6.5"/></filter><filter id="ag" width="31" height="31" x="1388" y="61.416" color-interpolation-filters="sRGB" filterUnits="userSpaceOnUse"><feFlood flood-opacity="0" result="BackgroundImageFix"/><feBlend in="SourceGraphic" in2="BackgroundImageFix" result="shape"/><feGaussianBlur result="effect1_foregroundBlur_442_4387" stdDeviation="6.5"/></filter><filter id="ai" width="31" height="31" x="886.982" y="296.589" color-interpolation-filters="sRGB" filterUnits="userSpaceOnUse"><feFlood flood-opacity="0" result="BackgroundImageFix"/><feBlend in="SourceGraphic" in2="BackgroundImageFix" result="shape"/><feGaussianBlur result="effect1_foregroundBlur_442_4387" stdDeviation="6.5"/></filter><filter id="ak" width="31" height="31" x="1593" y="203.589" color-interpolation-filters="sRGB" filterUnits="userSpaceOnUse"><feFlood flood-opacity="0" result="BackgroundImageFix"/><feBlend in="SourceGraphic" in2="BackgroundImageFix" result="shape"/><feGaussianBlur result="effect1_foregroundBlur_442_4387" stdDeviation="6.5"/></filter><radialGradient id="i" cx="0" cy="0" r="1" gradientTransform="rotate(33.646 10.122 2859.588)scale(169.537)" gradientUnits="userSpaceOnUse"><stop offset=".719" stop-color="#2E1D5E"/><stop offset="1" stop-color="#413072"/></radialGradient><radialGradient id="r" cx="0" cy="0" r="1" gradientTransform="rotate(33.646 10.122 2859.588)scale(169.537)" gradientUnits="userSpaceOnUse"><stop offset=".719" stop-color="#2E1D5E"/><stop offset="1" stop-color="#413072"/></radialGradient><radialGradient id="H" cx="0" cy="0" r="1" gradientTransform="rotate(44.502 212.29 905.432)scale(99.2914)" gradientUnits="userSpaceOnUse"><stop offset="0" stop-color="#6C5FBD"/><stop offset="1" stop-color="#352F79"/></radialGradient><clipPath id="a"><path fill="#fff" d="M1738 0H0v872h1738z"/></clipPath></defs></svg>