<svg xmlns="http://www.w3.org/2000/svg" width="604" height="256" fill="none"><g clip-path="url(#a)"><path fill="url(#b)" d="M0 0h604v256H0z"/><g filter="url(#c)"><ellipse cx="569.882" cy="-74.824" fill="#FFD2F2" fill-opacity=".6" rx="370" ry="123.624" transform="rotate(-37.462 569.882 -74.824)"/></g><mask id="e" width="302" height="302" x="376" y="119" maskUnits="userSpaceOnUse" style="mask-type:alpha"><circle cx="527" cy="270" r="151" fill="url(#d)"/></mask><g mask="url(#e)"><circle cx="527" cy="270" r="151" fill="#fff"/><circle cx="532" cy="275" r="156" fill="url(#f)"/><path stroke="#fff" stroke-opacity=".18" stroke-width="12" d="M561.5 144c22.8-11.6 56.5 5.833 70.5 16l-29.5-34.5c-30.833-6.333-92.5-19-109.5 18.5s-2.5 74.028 50.5 93.5c34.862 12.808 46 36.833 47.5 46.5h52c2.5 0 20 7 11.5-20.5s-61-55.5-83.5-67-38-38-9.5-52.5Z"/><path stroke="#fff" stroke-opacity=".22" stroke-width="8" d="M449 163.5c-2-16.4 12.5-30.5 32-41 2.8 0-141.414-46.472-208.5 144.029-17.667 50.166 222.295 69.458 238 35.5 18.5-40-59.469-76.852-72.5-89.529-19.5-18.972 13.5-28.5 11-49Z"/><path stroke="#000" stroke-opacity=".08" stroke-width="8" d="M409.777 236.04c36.12 3.772 57.56 39.702 63.765 57.196l-2.936 11.379-133.772-20.648c9.264-17.548 36.823-51.7 72.943-47.927Z"/><path stroke="#fff" stroke-opacity=".13" d="M618 187.5c6-8.4-7.833-19.167-15.5-23.5-33-15-33.102 7.935-16.5 18.5 11 7 26.643 12.5 32 5Z"/><g filter="url(#g)"><circle cx="580.5" cy="143.028" r="66.5" fill="#B0B8FF" fill-opacity=".32"/></g><g filter="url(#h)"><circle cx="455" cy="247.529" r="32" fill="#B0FAFF" fill-opacity=".29"/></g></g><mask id="j" width="695" height="145" x="141" y="198" maskUnits="userSpaceOnUse" style="mask-type:alpha"><path fill="url(#i)" d="M250.7 275.839c-30.631 22.505-85.72 35.178-109.435 38.702 46.656 33.107 904.485 67.398 645.099-85.687-95.14-56.15-152.241-19.43-175.595-9.09-23.355 10.34-35.137 3.727-76.873-8.862s-58.944-4.97-100.229 17.207c-41.284 22.178-87.155 14.28-104.271 16.268s-40.408 3.331-78.696 31.462"/></mask><g mask="url(#j)"><path fill="#9D6BB5" d="M251.553 275.722c-30.631 22.504-85.719 35.178-109.435 38.701 46.656 33.107 449.506-43.33 645.099-85.687-95.139-56.15-152.241-19.43-175.595-9.09s-35.136 3.727-76.873-8.862c-41.736-12.589-58.944-4.97-100.228 17.208s-87.156 14.279-104.272 16.267c-17.116 1.989-40.408 3.332-78.696 31.463"/><path fill="url(#k)" d="M250.801 276.574c-30.631 22.505-85.719 35.178-109.435 38.702 46.656 33.107 927.544 42.351 645.099-85.687-95.139-56.15-152.241-19.43-175.595-9.09s-35.136 3.727-76.872-8.862c-41.737-12.589-58.945-4.97-100.229 17.207-41.284 22.178-87.155 14.28-104.272 16.268-17.116 1.988-40.407 3.331-78.696 31.462"/><path stroke="#000" stroke-opacity=".5" d="M431.316 242.97c5.007 8.186 15.29 12.905 28.009 13.822 12.709.917 27.76-1.976 42.122-8.923 14.362-6.946 25.273-16.61 31.315-26.596 6.047-9.993 7.182-20.234 2.175-28.421-5.006-8.187-15.289-12.905-28.009-13.822-12.709-.917-27.76 1.976-42.122 8.922s-25.272 16.61-31.314 26.596c-6.047 9.994-7.182 20.235-2.176 28.422Z"/><path stroke="#000" stroke-opacity=".5" d="M433.732 229.982c5.006 8.187 15.289 12.905 28.008 13.822 12.71.917 27.761-1.976 42.123-8.922s25.272-16.61 31.314-26.596c6.047-9.994 7.182-20.235 2.175-28.422-5.006-8.186-15.289-12.905-28.008-13.822-12.709-.917-27.76 1.976-42.122 8.923-14.362 6.946-25.273 16.61-31.315 26.596-6.047 9.993-7.182 20.234-2.175 28.421ZM253.407 265.363c5.006 8.186 15.289 12.905 28.008 13.822 12.709.917 27.76-1.976 42.122-8.923 14.362-6.946 25.273-16.61 31.315-26.596 6.047-9.993 7.182-20.234 2.175-28.421-5.006-8.187-15.289-12.905-28.008-13.822-12.71-.917-27.761 1.976-42.123 8.922s-25.272 16.61-31.314 26.596c-6.047 9.994-7.182 20.235-2.175 28.422Z"/><path fill="#000" fill-opacity=".23" d="M504.207 197.399c-12.87 4.398 88.314 67.803 116.321 36.372S517.077 193 504.207 197.399"/><path fill="#000" fill-opacity=".25" d="M431.553 241.135c-26.192 9.308-74.622 2.187-95.564-2.537 19.137 1.103 63.543 1.115 88.069-7.664 30.658-10.973 40.235-1.435 7.495 10.201"/></g></g><defs><linearGradient id="b" x1="302" x2="302" y1="0" y2="469.5" gradientUnits="userSpaceOnUse"><stop offset=".271" stop-color="#D1D9FD"/><stop offset="1" stop-color="#8FB5FF"/></linearGradient><linearGradient id="i" x1="373.667" x2="587.133" y1="221.787" y2="298.18" gradientUnits="userSpaceOnUse"><stop stop-color="#354E8F"/><stop offset="1" stop-color="#1F3161"/></linearGradient><linearGradient id="k" x1="373.768" x2="594.18" y1="222.522" y2="264.339" gradientUnits="userSpaceOnUse"><stop stop-color="#A0CFBC"/><stop offset="1" stop-color="#5E796E"/></linearGradient><filter id="c" width="794.469" height="679.147" x="172.647" y="-414.398" color-interpolation-filters="sRGB" filterUnits="userSpaceOnUse"><feFlood flood-opacity="0" result="BackgroundImageFix"/><feBlend in="SourceGraphic" in2="BackgroundImageFix" result="shape"/><feGaussianBlur result="effect1_foregroundBlur_1735_1137" stdDeviation="47"/></filter><filter id="g" width="215" height="215" x="473" y="35.529" color-interpolation-filters="sRGB" filterUnits="userSpaceOnUse"><feFlood flood-opacity="0" result="BackgroundImageFix"/><feBlend in="SourceGraphic" in2="BackgroundImageFix" result="shape"/><feGaussianBlur result="effect1_foregroundBlur_1735_1137" stdDeviation="20.5"/></filter><filter id="h" width="130" height="130" x="390" y="182.529" color-interpolation-filters="sRGB" filterUnits="userSpaceOnUse"><feFlood flood-opacity="0" result="BackgroundImageFix"/><feBlend in="SourceGraphic" in2="BackgroundImageFix" result="shape"/><feGaussianBlur result="effect1_foregroundBlur_1735_1137" stdDeviation="16.5"/></filter><radialGradient id="d" cx="0" cy="0" r="1" gradientTransform="matrix(0 173 -173 0 527 270)" gradientUnits="userSpaceOnUse"><stop offset=".321" stop-color="#241C62"/><stop offset="1" stop-color="#70426E"/></radialGradient><radialGradient id="f" cx="0" cy="0" r="1" gradientTransform="rotate(90 128.5 403.5)scale(178.728)" gradientUnits="userSpaceOnUse"><stop offset=".321" stop-color="#BCCEFE"/><stop offset="1" stop-color="#92ABEC"/></radialGradient><clipPath id="a"><path fill="#fff" d="M0 0h604v256H0z"/></clipPath></defs></svg>