<svg xmlns="http://www.w3.org/2000/svg" width="604" height="256" fill="none"><g clip-path="url(#a)"><path fill="url(#b)" d="M0 0h604v256H0z"/><g filter="url(#c)"><ellipse cx="569.882" cy="-74.824" fill="#fff" fill-opacity=".6" rx="252.089" ry="84.228" transform="rotate(-37.462 569.882 -74.824)"/></g><g filter="url(#d)"><ellipse cx="-37.673" cy="280.186" fill="#fff" fill-opacity=".6" rx="252.089" ry="84.228" transform="rotate(-37.462 -37.673 280.186)"/></g><g filter="url(#e)"><ellipse cx="423.327" cy="297.186" fill="#fff" fill-opacity=".6" rx="252.089" ry="84.228" transform="rotate(-37.462 423.327 297.186)"/></g><g filter="url(#f)"><circle cx="474.572" cy="169.572" r="31.494" fill="#FFDCC8" fill-opacity=".72" transform="rotate(15 474.572 169.572)"/></g><mask id="g" width="76" height="77" x="437" y="131" maskUnits="userSpaceOnUse" style="mask-type:alpha"><circle cx="474.943" cy="169.787" r="37.907" fill="#D9D9D9" transform="rotate(15 474.943 169.787)"/></mask><g mask="url(#g)"><circle cx="474.943" cy="169.787" r="37.907" fill="#fff" transform="rotate(15 474.943 169.787)"/><circle cx="475.936" cy="171.507" r="37.907" fill="url(#h)" transform="rotate(15 475.936 171.507)"/><path fill="#fff" fill-opacity=".28" d="m435.784 169.469 71.875 19.259-3.634 13.561-71.875-19.258zM454.919 125.178l58.314 15.625-2.18 8.137-58.314-15.625zM433 152.735l85.436 22.893-1.453 5.424-85.437-22.892z"/><circle cx="487.68" cy="181.921" r="37.907" fill="#fff" fill-opacity=".17" transform="rotate(15 487.68 181.921)"/></g><path stroke="#A1ABFF" stroke-opacity=".5" stroke-width=".5" d="M658.675 226.286c-7.692 28.709-35.452 49.181-74.22 59.026-38.759 9.842-88.463 9.043-139.922-4.745-51.458-13.788-94.903-37.949-123.548-65.852-28.651-27.91-42.456-59.519-34.763-88.228 7.692-28.709 35.452-49.181 74.22-59.026 38.758-9.843 88.463-9.044 139.922 4.745 51.458 13.788 94.903 37.948 123.548 65.852 28.651 27.909 42.456 59.519 34.763 88.228Z"/><path stroke="#A1ABFF" stroke-opacity=".5" stroke-width=".5" d="M635.718 214.32c-6.588 24.589-30.539 42.085-64.044 50.447-33.496 8.36-76.481 7.572-121.012-4.36s-82.151-32.743-106.979-56.73c-24.836-23.995-36.83-51.122-30.241-75.71 6.588-24.589 30.539-42.085 64.044-50.447 33.496-8.36 76.481-7.572 121.012 4.36s82.151 32.743 106.979 56.73c24.836 23.995 36.83 51.122 30.241 75.71Z"/><path stroke="#A1ABFF" stroke-opacity=".5" stroke-width=".5" d="M589.61 201.966c-4.682 17.472-21.746 29.91-45.658 35.845-23.902 5.933-54.588 5.35-86.386-3.171s-58.665-23.358-76.398-40.447c-17.741-17.096-26.3-36.399-21.618-53.872s21.745-29.91 45.657-35.845c23.903-5.933 54.588-5.35 86.387 3.171 31.798 8.52 58.664 23.358 76.398 40.447 17.741 17.096 26.3 36.399 21.618 53.872Z"/><path stroke="#A1ABFF" stroke-opacity=".5" stroke-width=".5" d="M572.344 195.886c-4.081 15.229-18.631 26.159-38.956 31.476-20.316 5.314-46.349 5.001-73.278-2.215-26.929-7.215-49.631-19.961-64.569-34.721-14.943-14.767-22.078-31.508-17.998-46.737 4.081-15.229 18.631-26.159 38.955-31.476 20.317-5.314 46.35-5.001 73.279 2.214 26.929 7.216 49.631 19.961 64.568 34.722 14.944 14.767 22.079 31.507 17.999 46.737Z"/><path stroke="#A1ABFF" stroke-opacity=".5" stroke-width=".5" d="M560.138 192.615c-3.579 13.358-16.309 22.958-34.096 27.64-17.779 4.679-40.557 4.424-64.115-1.888-23.559-6.313-43.413-17.481-56.47-30.423-13.064-12.948-19.288-27.627-15.709-40.985 3.579-13.357 16.309-22.958 34.096-27.639 17.779-4.679 40.558-4.424 64.116 1.888s43.412 17.481 56.47 30.423c13.063 12.947 19.287 27.627 15.708 40.984Z"/><path stroke="#A1ABFF" stroke-opacity=".5" stroke-width=".5" d="M551.609 191.848c-3.503 12.174-15.212 20.787-31.405 24.829-16.186 4.04-36.801 3.496-58.004-2.606-21.202-6.101-38.954-16.597-50.517-28.622-11.568-12.03-16.908-25.55-13.405-37.723s15.212-20.786 31.405-24.828c16.186-4.04 36.801-3.496 58.003 2.605 21.203 6.101 38.954 16.597 50.517 28.623 11.568 12.03 16.909 25.549 13.406 37.722Z"/><path stroke="#A1ABFF" stroke-opacity=".5" stroke-width=".5" d="M544.04 192.572c-3.602 10.925-14.556 18.329-29.448 21.422-14.883 3.091-33.648 1.859-52.761-4.444-19.112-6.302-34.929-16.473-45.055-27.811-10.131-11.344-14.532-23.811-10.929-34.736s14.556-18.33 29.447-21.422c14.884-3.091 33.649-1.859 52.761 4.443s34.93 16.474 45.056 27.812c10.131 11.343 14.532 23.811 10.929 34.736Z"/><mask id="i" width="22" height="22" x="461" y="93" maskUnits="userSpaceOnUse" style="mask-type:alpha"><circle cx="471.897" cy="103.896" r="10.53" fill="#D9D9D9" transform="rotate(15 471.897 103.896)"/></mask><g mask="url(#i)"><circle cx="471.897" cy="103.896" r="10.53" fill="#F7FAFF" transform="rotate(15 471.897 103.896)"/><circle cx="478.314" cy="107.069" r="10.53" fill="url(#j)" transform="rotate(15 478.314 107.069)"/></g><mask id="k" width="22" height="23" x="383" y="136" maskUnits="userSpaceOnUse" style="mask-type:alpha"><circle cx="394.435" cy="147.489" r="10.53" fill="#D9D9D9" transform="rotate(15 394.435 147.489)"/></mask><g mask="url(#k)"><circle cx="394.435" cy="147.489" r="10.53" fill="#F7FAFF" transform="rotate(15 394.435 147.489)"/><circle cx="400.852" cy="150.662" r="10.53" fill="url(#l)" transform="rotate(15 400.852 150.662)"/></g><mask id="m" width="22" height="22" x="355" y="211" maskUnits="userSpaceOnUse" style="mask-type:alpha"><circle cx="365.896" cy="221.896" r="10.53" fill="#D9D9D9" transform="rotate(15 365.896 221.896)"/></mask><g mask="url(#m)"><circle cx="365.896" cy="221.896" r="10.53" fill="#F7FAFF" transform="rotate(15 365.896 221.896)"/><circle cx="372.314" cy="225.069" r="10.53" fill="url(#n)" transform="rotate(15 372.314 225.069)"/></g><mask id="o" width="22" height="22" x="278" y="118" maskUnits="userSpaceOnUse" style="mask-type:alpha"><circle cx="288.896" cy="128.896" r="10.53" fill="#D9D9D9" transform="rotate(15 288.896 128.896)"/></mask><g mask="url(#o)"><circle cx="288.896" cy="128.896" r="10.53" fill="#F7FAFF" transform="rotate(15 288.896 128.896)"/><circle cx="295.314" cy="132.069" r="10.53" fill="url(#p)" transform="rotate(15 295.314 132.069)"/></g><mask id="q" width="22" height="22" x="561" y="180" maskUnits="userSpaceOnUse" style="mask-type:alpha"><circle cx="571.822" cy="190.659" r="10.53" fill="#D9D9D9" transform="rotate(15 571.822 190.659)"/></mask><g mask="url(#q)"><circle cx="571.822" cy="190.659" r="10.53" fill="#F7FAFF" transform="rotate(15 571.822 190.659)"/><circle cx="578.24" cy="193.832" r="10.53" fill="url(#r)" transform="rotate(15 578.24 193.832)"/></g><mask id="s" width="22" height="22" x="489" y="208" maskUnits="userSpaceOnUse" style="mask-type:alpha"><circle cx="500.161" cy="219.423" r="10.53" fill="#D9D9D9" transform="rotate(15 500.161 219.423)"/></mask><g mask="url(#s)"><circle cx="500.161" cy="219.423" r="10.53" fill="#F7FAFF" transform="rotate(15 500.161 219.423)"/><circle cx="506.578" cy="222.596" r="10.53" fill="url(#t)" transform="rotate(15 506.578 222.596)"/></g></g><defs><linearGradient id="b" x1="302" x2="430" y1="0" y2="256" gradientUnits="userSpaceOnUse"><stop offset=".271" stop-color="#BDCEFE"/><stop offset="1" stop-color="#ECD7F8"/></linearGradient><linearGradient id="j" x1="478.314" x2="478.314" y1="96.54" y2="117.599" gradientUnits="userSpaceOnUse"><stop stop-color="#9FBAFF"/><stop offset="1" stop-color="#5277D5"/></linearGradient><linearGradient id="l" x1="400.852" x2="400.852" y1="140.132" y2="161.191" gradientUnits="userSpaceOnUse"><stop stop-color="#9FBAFF"/><stop offset="1" stop-color="#5277D5"/></linearGradient><linearGradient id="n" x1="372.314" x2="372.314" y1="214.539" y2="235.599" gradientUnits="userSpaceOnUse"><stop stop-color="#9FBAFF"/><stop offset="1" stop-color="#5277D5"/></linearGradient><linearGradient id="p" x1="295.314" x2="295.314" y1="121.54" y2="142.599" gradientUnits="userSpaceOnUse"><stop stop-color="#9FBAFF"/><stop offset="1" stop-color="#5277D5"/></linearGradient><linearGradient id="r" x1="578.24" x2="578.24" y1="183.302" y2="204.362" gradientUnits="userSpaceOnUse"><stop stop-color="#9FBAFF"/><stop offset="1" stop-color="#5277D5"/></linearGradient><linearGradient id="t" x1="506.578" x2="506.578" y1="212.066" y2="233.126" gradientUnits="userSpaceOnUse"><stop stop-color="#9FBAFF"/><stop offset="1" stop-color="#5277D5"/></linearGradient><filter id="c" width="601.2" height="522.629" x="269.281" y="-336.139" color-interpolation-filters="sRGB" filterUnits="userSpaceOnUse"><feFlood flood-opacity="0" result="BackgroundImageFix"/><feBlend in="SourceGraphic" in2="BackgroundImageFix" result="shape"/><feGaussianBlur result="effect1_foregroundBlur_1735_1254" stdDeviation="47"/></filter><filter id="d" width="601.2" height="522.629" x="-338.273" y="18.872" color-interpolation-filters="sRGB" filterUnits="userSpaceOnUse"><feFlood flood-opacity="0" result="BackgroundImageFix"/><feBlend in="SourceGraphic" in2="BackgroundImageFix" result="shape"/><feGaussianBlur result="effect1_foregroundBlur_1735_1254" stdDeviation="47"/></filter><filter id="e" width="601.2" height="522.629" x="122.727" y="35.872" color-interpolation-filters="sRGB" filterUnits="userSpaceOnUse"><feFlood flood-opacity="0" result="BackgroundImageFix"/><feBlend in="SourceGraphic" in2="BackgroundImageFix" result="shape"/><feGaussianBlur result="effect1_foregroundBlur_1735_1254" stdDeviation="47"/></filter><filter id="f" width="163.003" height="163.003" x="393.07" y="88.07" color-interpolation-filters="sRGB" filterUnits="userSpaceOnUse"><feFlood flood-opacity="0" result="BackgroundImageFix"/><feBlend in="SourceGraphic" in2="BackgroundImageFix" result="shape"/><feGaussianBlur result="effect1_foregroundBlur_1735_1254" stdDeviation="25"/></filter><radialGradient id="h" cx="0" cy="0" r="1" gradientTransform="rotate(44.502 36.907 636.864)scale(57.0858)" gradientUnits="userSpaceOnUse"><stop offset="0" stop-color="#CBC4FA"/><stop offset="1" stop-color="#8F85FF"/></radialGradient><clipPath id="a"><path fill="#fff" d="M0 0h604v256H0z"/></clipPath></defs></svg>