<svg xmlns="http://www.w3.org/2000/svg" width="604" height="256" fill="none"><g clip-path="url(#a)"><path fill="url(#b)" d="M0 0h604v256H0z"/><g filter="url(#c)"><ellipse cx="569.882" cy="-74.824" fill="#DAE2FF" fill-opacity=".6" rx="370" ry="123.624" transform="rotate(-37.462 569.882 -74.824)"/></g><path fill="#fff" fill-rule="evenodd" d="M409.361 80.44c.545-.67 1.53-.77 2.199-.225l63.328 51.6a1.564 1.564 0 0 1-1.976 2.425l-63.327-51.6a1.564 1.564 0 0 1-.224-2.2" clip-rule="evenodd"/><path fill="url(#d)" fill-rule="evenodd" d="M378.662 104.236a1.563 1.563 0 0 1 2.065.789l33.228 74.273a1.565 1.565 0 0 1-2.855 1.277l-33.227-74.273c-.353-.788 0-1.713.789-2.066" clip-rule="evenodd"/><path fill="#5A707B" fill-rule="evenodd" d="M400.293 105.947a1.563 1.563 0 0 1 2.178.382l36.746 52.382a1.565 1.565 0 0 1-2.561 1.796l-36.745-52.382a1.563 1.563 0 0 1 .382-2.178" clip-rule="evenodd"/><mask id="e" width="43" height="43" x="375" y="74" maskUnits="userSpaceOnUse" style="mask-type:alpha"><circle cx="396.109" cy="95.109" r="21.109" fill="#D9D9D9"/></mask><g mask="url(#e)"><circle cx="396.109" cy="95.109" r="21.109" fill="url(#f)"/><path fill="#2B2969" fill-opacity=".47" fill-rule="evenodd" d="m373.886 110.995 41.436-32.446 1.446 1.847-41.436 32.446z" clip-rule="evenodd"/><path fill="#000" fill-opacity=".4" d="m406.664 113.873-8.6-18.373 13.291 14.855z"/></g><path fill="url(#g)" fill-rule="evenodd" d="M394.373 88.398a1.564 1.564 0 0 1 2.193.284l55.118 71.536a1.564 1.564 0 0 1-2.477 1.909l-55.118-71.536a1.564 1.564 0 0 1 .284-2.193" clip-rule="evenodd"/><circle cx="593.365" cy="5.365" r="240.297" fill="url(#h)" transform="rotate(63.353 593.365 5.365)"/><circle cx="593.365" cy="5.365" r="148.565" fill="url(#i)" opacity=".2" transform="rotate(63.353 593.365 5.365)"/><g filter="url(#j)"><circle cx="597.162" cy="7.528" r="106.947" fill="#fff" fill-opacity=".18" transform="rotate(63.353 597.162 7.528)"/></g><mask id="l" width="215" height="215" x="486" y="-102" maskUnits="userSpaceOnUse" style="mask-type:alpha"><circle cx="593.365" cy="5.365" r="106.947" fill="url(#k)" transform="rotate(63.353 593.365 5.365)"/></mask><g mask="url(#l)"><circle cx="593.365" cy="5.365" r="106.947" fill="#fff" transform="rotate(63.353 593.365 5.365)"/><circle cx="594.365" cy="5.365" r="106.947" fill="url(#m)" transform="rotate(63.353 594.365 5.365)"/><path stroke="url(#n)" stroke-opacity=".03" stroke-width="3" d="M608.722 90.565c-17.313 3.034-55.073 1.525-67.609-28.78C525.442 23.901 505.568 6.957 450 18.644"/><path stroke="url(#o)" stroke-opacity=".03" stroke-width="16" d="M619.199 67.377c-17.312 3.033-55.072 1.524-67.609-28.781-15.67-37.882-35.544-54.827-91.112-43.14"/><path stroke="url(#p)" stroke-opacity=".05" stroke-width="28" d="M627.835 23.895c-10.134 19.66-41.541 21.22-55.521-8.212-17.475-36.791-31.178-84.453-83.332-69.226"/></g><path stroke="url(#q)" stroke-width="3" d="M627.964-61.504c-11.282-8.4-26.641.824-33.716 13.012-11.25 19.382 32.262 46.83 48.58 30.304 13.758-13.932-.761-32.817-14.864-43.316Z"/><path fill="#141043" stroke="url(#r)" stroke-width="2" d="M626.607-62.857c-11.282-8.4-26.641.824-33.715 13.012-11.25 19.382 32.261 46.83 48.58 30.304 13.757-13.932-.762-32.817-14.865-43.316Z"/><mask id="t" width="517" height="114" x="135" y="215" maskUnits="userSpaceOnUse" style="mask-type:alpha"><path fill="url(#s)" d="M447.841 215.006C327.58 214.355 189.172 269.388 135 296.783c0 48.822 344.667 29.971 517 14.647v-62.249c-17.944-11.12-83.898-33.524-204.159-34.175"/></mask><g mask="url(#t)"><path fill="#fff" d="M447.841 215.006C327.58 214.355 189.172 269.388 135 296.783c0 48.822 344.667 29.971 517 14.647v-62.249c-17.944-11.12-83.898-33.524-204.159-34.175"/><path fill="url(#u)" d="M449.872 215.006c-120.261-.651-258.669 54.382-312.841 81.777 0 48.822 344.667 29.971 517 14.647v-62.249c-17.944-11.12-83.898-33.524-204.159-34.175"/><path stroke="#000" stroke-opacity=".11" d="M596.135 229.246c-41.136 20.749-137.426 27.91-189.431 20.749-52.004-7.16-123.409-10.985-175.719 6.103"/><path stroke="#000" stroke-opacity=".13" d="M481.246 191.344c-13.35 3.883-24.194 10.076-30.944 16.928-6.767 6.87-9.328 14.297-6.428 20.695 2.9 6.399 10.812 10.779 21.505 12.57 10.665 1.787 23.943.964 37.293-2.919s24.194-10.077 30.944-16.929c6.767-6.87 9.328-14.297 6.428-20.695s-10.812-10.778-21.505-12.57c-10.665-1.787-23.944-.963-37.293 2.92Z"/><g filter="url(#v)"><ellipse cx="90.657" cy="36.429" fill="#FFD4D1" fill-opacity=".63" rx="90.657" ry="36.429" transform="matrix(-.96397 .26603 .39504 .91867 369.29 166.998)"/></g><path fill="url(#w)" fill-opacity=".21" d="M185.083 331.252c55.476-3.166 154.326-19.127 105.915-57.645-60.514-48.148-272.258 63.201-105.915 57.645"/><path fill="#000" fill-opacity=".1" d="M429.76 313.25c45.928 8.122 130.862 14.225 103.175-26.33-34.608-50.695-239.706-1.212-103.175 26.33"/><path stroke="#fff" stroke-opacity=".06" d="M662.157 245.145c-36.566-.678-108.377 9.276-103.095 54.518"/></g><mask id="y" width="221" height="124" x="398" y="185" maskUnits="userSpaceOnUse" style="mask-type:alpha"><path fill="url(#x)" d="M566.521 186.213c-5.286-5.534-103.21 60.09-151.512 93.594L398 288.166l212.102 20.756 8.182-92.723c-15.052-7.689-46.477-24.451-51.763-29.986"/></mask><g mask="url(#y)"><path fill="url(#z)" d="M566.521 186.213c-5.286-5.534-103.21 60.09-151.512 93.594L398 288.166l212.102 20.756 8.182-92.723c-15.052-7.689-46.477-24.451-51.763-29.986"/><path fill="url(#A)" d="M514.162 258.519c-3.768-5.637 30.286-47.801 50.881-74.516-28.2 2.689-94.484 15.344-126.804 43.38-32.32 28.035-38.598 52.762-37.697 61.621l120.285 19.809 43.322-3.396c9.849-23.418 28.592-66.345 21.595-70.289-6.998-3.943-65.669 32.235-71.582 23.391"/><path stroke="#fff" stroke-opacity=".24" d="m565.439 184.308.703-.912-1.146.109c-14.129 1.347-37.781 5.189-61.949 12.203-24.156 7.01-48.892 17.207-65.135 31.297-16.203 14.055-25.895 27.295-31.425 38.153-5.522 10.844-6.906 19.339-6.442 23.897l.039.38.377.062 120.285 19.809.06.01.06-.005 43.322-3.395.304-.024.118-.281c.648-1.54 1.334-3.166 2.05-4.86 4.719-11.171 10.691-25.31 15.075-37.613 2.523-7.082 4.528-13.58 5.463-18.564.466-2.489.672-4.633.529-6.297-.142-1.639-.638-2.964-1.738-3.584-.562-.317-1.317-.402-2.166-.354-.861.049-1.889.24-3.047.541-2.319.603-5.233 1.669-8.527 3.021-5.022 2.061-10.975 4.807-17.121 7.643a2160 2160 0 0 1-5.79 2.663c-8.143 3.724-16.225 7.282-22.635 9.358-3.208 1.039-5.965 1.696-8.085 1.828-2.16.133-3.463-.288-4.04-1.152-.148-.22-.236-.585-.193-1.156q.063-.848.509-2.125c.595-1.701 1.678-3.883 3.165-6.455 2.971-5.139 7.505-11.756 12.811-19.045 7.794-10.707 17.228-22.832 25.771-33.812 3.089-3.97 6.061-7.79 8.798-11.34Z"/></g></g><defs><linearGradient id="b" x1="266.5" x2="302" y1="-48.5" y2="469.5" gradientUnits="userSpaceOnUse"><stop offset=".271" stop-color="#EDD5F6"/><stop offset="1" stop-color="#BCCEFE"/></linearGradient><linearGradient id="d" x1="382.818" x2="412.527" y1="104.491" y2="180.327" gradientUnits="userSpaceOnUse"><stop stop-color="#8AB3A3"/><stop offset=".935" stop-color="#fff"/></linearGradient><linearGradient id="g" x1="396.5" x2="458.264" y1="88.855" y2="165.473" gradientUnits="userSpaceOnUse"><stop stop-color="#87ADB8"/><stop offset="1" stop-color="#B3B1F3"/></linearGradient><linearGradient id="n" x1="593.01" x2="495.829" y1="98.932" y2="9.119" gradientUnits="userSpaceOnUse"><stop stop-color="#fff"/><stop offset="1" stop-color="#fff" stop-opacity="0"/></linearGradient><linearGradient id="o" x1="603.188" x2="524.017" y1="72.711" y2="-9.826" gradientUnits="userSpaceOnUse"><stop stop-color="#fff"/><stop offset="1" stop-color="#fff" stop-opacity="0"/></linearGradient><linearGradient id="p" x1="623.763" x2="539.403" y1="46.411" y2="-26.964" gradientUnits="userSpaceOnUse"><stop stop-color="#F1C480"/><stop offset="1" stop-color="#F3D4A4" stop-opacity="0"/></linearGradient><linearGradient id="q" x1="648.477" x2="604.411" y1="-17.882" y2="-40.175" gradientUnits="userSpaceOnUse"><stop stop-color="#fff" stop-opacity=".06"/><stop offset="1" stop-color="#3E2D6E" stop-opacity="0"/></linearGradient><linearGradient id="r" x1="642.334" x2="596.841" y1="-50.391" y2="-27.564" gradientUnits="userSpaceOnUse"><stop/><stop offset="1" stop-color="#3E2D6E" stop-opacity="0"/></linearGradient><linearGradient id="s" x1="352.363" x2="492.834" y1="107.19" y2="336.451" gradientUnits="userSpaceOnUse"><stop stop-color="#684A7B"/><stop offset="1" stop-color="#0F1433"/></linearGradient><linearGradient id="u" x1="354.395" x2="494.865" y1="107.19" y2="336.451" gradientUnits="userSpaceOnUse"><stop stop-color="#A0D0BD"/><stop offset="1" stop-color="#7A9E8F"/></linearGradient><linearGradient id="w" x1="214.225" x2="213.231" y1="261.024" y2="332.037" gradientUnits="userSpaceOnUse"><stop stop-color="#21284B"/><stop offset="1" stop-color="#21284B" stop-opacity="0"/></linearGradient><linearGradient id="x" x1="564.106" x2="493.175" y1="174.298" y2="295.938" gradientUnits="userSpaceOnUse"><stop stop-color="#834B7A"/><stop offset="1" stop-color="#101533"/></linearGradient><linearGradient id="z" x1="564.106" x2="493.175" y1="174.298" y2="295.938" gradientUnits="userSpaceOnUse"><stop stop-color="#D0D0D0"/><stop offset="1" stop-color="#6B6F87"/></linearGradient><linearGradient id="A" x1="572.499" x2="476.513" y1="194.562" y2="292.927" gradientUnits="userSpaceOnUse"><stop stop-opacity="0"/><stop offset="1" stop-opacity=".15"/></linearGradient><radialGradient id="f" cx="0" cy="0" r="1" gradientTransform="rotate(153.435 195.051 93.567)scale(24.4748)" gradientUnits="userSpaceOnUse"><stop stop-color="#CAC9FF"/><stop offset="1" stop-color="#6D9AA9"/></radialGradient><radialGradient id="h" cx="0" cy="0" r="1" gradientTransform="rotate(90 294 299.365)scale(240.297)" gradientUnits="userSpaceOnUse"><stop offset=".807" stop-color="#fff" stop-opacity="0"/><stop offset="1" stop-color="#fff" stop-opacity=".21"/></radialGradient><radialGradient id="i" cx="0" cy="0" r="1" gradientTransform="rotate(90 294 299.365)scale(148.565)" gradientUnits="userSpaceOnUse"><stop offset=".667" stop-color="#2E1D5E" stop-opacity="0"/><stop offset=".771" stop-color="#D1C1FF" stop-opacity=".34"/><stop offset="1" stop-color="#fff"/></radialGradient><radialGradient id="k" cx="0" cy="0" r="1" gradientTransform="rotate(90 294 299.365)scale(106.947)" gradientUnits="userSpaceOnUse"><stop offset=".719" stop-color="#2E1D5E"/><stop offset="1" stop-color="#413072"/></radialGradient><radialGradient id="m" cx="0" cy="0" r="1" gradientTransform="rotate(90 294.5 299.865)scale(106.947)" gradientUnits="userSpaceOnUse"><stop offset=".088" stop-color="#E4DDFB"/><stop offset="1" stop-color="#C4D1FE"/></radialGradient><filter id="c" width="794.469" height="679.147" x="172.647" y="-414.398" color-interpolation-filters="sRGB" filterUnits="userSpaceOnUse"><feFlood flood-opacity="0" result="BackgroundImageFix"/><feBlend in="SourceGraphic" in2="BackgroundImageFix" result="shape"/><feGaussianBlur result="effect1_foregroundBlur_1735_1206" stdDeviation="47"/></filter><filter id="j" width="313.94" height="313.94" x="440.192" y="-149.442" color-interpolation-filters="sRGB" filterUnits="userSpaceOnUse"><feFlood flood-opacity="0" result="BackgroundImageFix"/><feBlend in="SourceGraphic" in2="BackgroundImageFix" result="shape"/><feGaussianBlur result="effect1_foregroundBlur_1735_1206" stdDeviation="25"/></filter><filter id="v" width="243.162" height="148.507" x="174.709" y="150.327" color-interpolation-filters="sRGB" filterUnits="userSpaceOnUse"><feFlood flood-opacity="0" result="BackgroundImageFix"/><feBlend in="SourceGraphic" in2="BackgroundImageFix" result="shape"/><feGaussianBlur result="effect1_foregroundBlur_1735_1206" stdDeviation="16.5"/></filter><clipPath id="a"><path fill="#fff" d="M0 0h604v256H0z"/></clipPath></defs></svg>