<svg xmlns="http://www.w3.org/2000/svg" width="604" height="256" fill="none"><g clip-path="url(#a)"><path fill="url(#b)" d="M0 0h604v256H0z"/><g filter="url(#c)"><ellipse cx="440.882" cy="-86.824" fill="#FFDFAE" fill-opacity=".25" rx="370" ry="123.624" transform="rotate(-37.462 440.882 -86.824)"/></g><path fill="url(#d)" fill-opacity=".5" d="M539.446 167.637c-7.43 9.694-8.335 18.77-7.859 22.096 7.145 16.393 122.881 10.691 109.307 0s-10.716-16.394-5.715-34.925c5.001-18.532-10.717-24.947-28.577-27.798-17.861-2.851-.715-42.766-6.43-61.298s-26.434-18.532-49.295-22.095c-22.862-3.564-19.29-23.522-15.003-49.894s-20.718-41.34-44.294-42.766C472.719-50.183 454.668-62.823 448-69c2.143 6.177 12.574 20.955 37.15 30.649 30.72 12.117 21.433 33.5 11.431 58.446-10.002 24.947 6.43 32.788 27.862 45.617 21.433 12.83 11.431 31.362 3.572 39.915s-9.287 28.51 3.572 32.787 17.147 17.106 7.859 29.223"/><mask id="e" width="442" height="154" x="170" y="118" maskUnits="userSpaceOnUse" style="mask-type:alpha"><path fill="#D9D9D9" d="M566.5 124c6 10 26.5 36.5 39.5 42.5l5.5 80-26.5 25C439.667 266.333 153.5 256 171.5 256s43.167-33.667 53.5-50.5c9.833 0 36.6-.8 65-4s56.833-48.667 67.5-71c1.667-.167 6.9-.4 14.5 0s12.833-4.167 14.5-6.5c57.5-4.167 174-10 180 0"/></mask><g mask="url(#e)"><path fill="url(#f)" d="M566.5 124c6 10 26.5 36.5 39.5 42.5l5.5 80-26.5 25C439.667 266.333 153.5 256 171.5 256s43.167-33.667 53.5-50.5c9.833 0 36.6-.8 65-4s56.833-48.667 67.5-71c1.667-.167 6.9-.4 14.5 0s12.833-4.167 14.5-6.5c57.5-4.167 174-10 180 0"/><path fill="#fff" d="M502 136.5 348.5 141l.5 5.5 227-1.5H356l191-2.5-191 1.5 204.5-3-205.5 2z"/><path fill="#fff" fill-opacity=".41" d="M432.163 122 586 125.6l-.501 4.4L358 128.8h220.484l-191.42-2 191.42 1.2-204.95-2.4 205.952 1.6z"/><path fill="#fff" fill-opacity=".23" d="M186.22 137 1340 164l-3.76 33L-370 188h1653.63l-1435.652-15 1435.652 9-1537.125-18 1544.635 12z"/><path fill="#fff" fill-opacity=".41" d="M458.163 172 612 175.6l-.501 4.4L384 178.8h220.484l-191.42-2 191.42 1.2-204.95-2.4 205.952 1.6zM403.848 158 277 161.6l.413 4.4L465 164.8H283.198l157.837-2-157.837 1.2 168.993-2.4-169.82 1.6zM342.5 203h-121l-15 10 68.5-1h-56l1-1h104.5l-107-1 84-.5-82.5-.5 87.5-1H218c-.8 0 0-.667.5-1l89.5-1-82-.5 104-1H224.5zM586 219H129.581L73 257l258.386-3.8H120.151l3.772-3.8h394.18l-403.61-3.8 316.853-1.9-311.195-1.9 330.055-3.8H116.379c-3.018 0 0-2.533 1.886-3.8l337.599-3.8-309.309-1.9 392.294-3.8H140.897zM541 162h121l15-10-68.5 1h56l-1 1H559l107 1-84 .5 82.5.5-87.5 1h88.5c.8 0 0 .667-.5 1l-89.5 1 82 .5-104 1H659z"/></g><path fill="url(#g)" d="M317 240.5c5.2 6.8 5.833 13.167 5.5 15.5-5 11.5-86 7.5-76.5 0s7.5-11.5 4-24.5 7.5-17.5 20-19.5.5-30 4.5-43 18.5-13 34.5-15.5 13.5-16.5 10.5-35 14.5-29 31-30c13.2-.8 25.833-9.667 30.5-14-1.5 4.333-8.8 14.7-26 21.5-21.5 8.5-15 23.5-8 41s-4.5 23-19.5 32-8 22-2.5 28 6.5 20-2.5 23-12 12-5.5 20.5"/><path fill="url(#h)" d="M394 142c8-4.8 13.333-14 15-18-4 5-12 8.5-29.5 12.5s-19 9.5-19 23c0 13.384-6.88 13.99-23.563 15.461l-.437.039c-17 1.5-14 16-13.5 23.5s2 18.5-16 24.5c-14.4 4.8-9.667 31-5.5 43.5l83-4.5c2.167-4 4.6-13.6-3-20-9.5-8-6-12-2-19s0-11.5-4-16.5.5-10 9-17.5 1-20-3-29.5S384 148 394 142"/><mask id="j" width="265" height="100" x="352" y="177" maskUnits="userSpaceOnUse" style="mask-type:alpha"><path fill="url(#i)" d="M552.5 202c16.8-20.8 42.667-25.667 52-24.5l12 88.5c-99 9.5-289.7 21.4-260.5-7 36.5-35.5 61-38.5 77-27.5s32.895 20.233 55.5 19c27.5-1.5 43-22.5 64-48.5"/></mask><g mask="url(#j)"><path fill="#C68AD6" d="M552.5 202c16.8-20.8 42.667-25.667 52-24.5l12 88.5c-99 9.5-289.7 21.4-260.5-7 36.5-35.5 61-38.5 77-27.5s32.895 20.233 55.5 19c27.5-1.5 43-22.5 64-48.5"/><path fill="url(#k)" d="M553.5 203c16.8-20.8 42.667-25.667 52-24.5l12 88.5c-99 9.5-289.7 21.4-260.5-7 36.5-35.5 61-38.5 77-27.5s32.895 20.233 55.5 19c27.5-1.5 43-22.5 64-48.5"/><path stroke="#fff" stroke-opacity=".36" d="M591.553 175.857c4.396 6.624 4.758 15.07 1.719 23.411-3.04 8.34-9.473 16.539-18.597 22.593-9.123 6.055-19.177 8.797-28.043 8.357s-16.508-4.056-20.904-10.68-4.758-15.071-1.719-23.411c3.04-8.34 9.473-16.539 18.597-22.593 9.123-6.055 19.177-8.797 28.043-8.357s16.508 4.056 20.904 10.68ZM440.553 193.857c4.396 6.624 4.758 15.07 1.719 23.411-3.04 8.34-9.473 16.539-18.597 22.593-9.123 6.055-19.177 8.797-28.043 8.357s-16.508-4.056-20.904-10.68-4.758-15.071-1.719-23.411c3.04-8.34 9.473-16.539 18.597-22.593 9.123-6.055 19.177-8.797 28.043-8.357s16.508 4.056 20.904 10.68Z"/><path stroke="#000" stroke-opacity=".12" stroke-width="6" d="M613 204c-1.246 6.829-11.75 29.221-30.977 36.122C557.989 248.748 533.42 229.878 519 266"/></g><mask id="m" width="150" height="26" x="217" y="237" maskUnits="userSpaceOnUse" style="mask-type:alpha"><path fill="url(#l)" d="M239.32 240c1.6-2 8.333-2.5 11.5-2.5l53-.5c4.5 0 14.8.1 20 .5 6.5.5 5.5 2.5 9 8.5 2.8 4.8 23.5 13 33.5 16.5-52.5 0-155.8-.4-149-2 8.5-2 20-18 22-20.5"/></mask><g mask="url(#m)"><path fill="url(#n)" d="M239.32 240c1.6-2 8.333-2.5 11.5-2.5l53-.5c4.5 0 14.8.1 20 .5 6.5.5 5.5 2.5 9 8.5 2.8 4.8 23.5 13 33.5 16.5-52.5 0-155.8-.4-149-2 8.5-2 20-18 22-20.5"/><path fill="url(#o)" d="M241.32 240c1.6-2 8.333-2.5 11.5-2.5l53-.5c4.5 0 14.8.1 20 .5 6.5.5 5.5 2.5 9 8.5 2.8 4.8 23.5 13 33.5 16.5-52.5 0-155.8-.4-149-2 8.5-2 20-18 22-20.5"/><ellipse cx="283" cy="239" fill="#DADADA" fill-opacity=".4" rx="55" ry="6"/><path fill="#000" fill-opacity=".15" d="M254 246.5c-1.6 2-9 8.167-12.5 11l12.5 6c14.5-.667 44.5-1.8 48.5-1 5 1 44.5-1.5 47-1 2 .4 1.5-6.5 1-10-5.333-7.5-16.7-20.3-19.5-11.5s4.833 13.667 9 15c.5 1.667.1 4-5.5 0-7-5-27.5-3-34-1s-7-9.5-7-7.5S286 253 279 255s-7-8.5-8-6-17 6-19 6 4-11 2-8.5"/></g><mask id="p" width="85" height="6" x="240" y="236" maskUnits="userSpaceOnUse" style="mask-type:alpha"><ellipse cx="282.82" cy="239" fill="#1A1643" rx="42" ry="3"/></mask><g mask="url(#p)"><ellipse cx="282.82" cy="239" fill="#1A1643" rx="42" ry="3"/><path fill="url(#q)" d="M317 240.5c5.2 6.8 5.833 13.167 5.5 15.5-5 11.5-86 7.5-76.5 0s7.5-11.5 4-24.5 7.5-17.5 20-19.5.5-30 4.5-43 18.5-13 34.5-15.5 13.5-16.5 10.5-35 14.5-29 31-30c13.2-.8 25.833-9.667 30.5-14-1.5 4.333-8.8 14.7-26 21.5-21.5 8.5-15 23.5-8 41s-4.5 23-19.5 32-8 22-2.5 28 6.5 20-2.5 23-12 12-5.5 20.5"/></g></g><defs><linearGradient id="b" x1="283.5" x2="399.5" y1="0" y2="269.5" gradientUnits="userSpaceOnUse"><stop offset=".271" stop-color="#BFCFFE"/><stop offset="1" stop-color="#EED6F7"/></linearGradient><linearGradient id="d" x1="545" x2="545" y1="-69" y2="200" gradientUnits="userSpaceOnUse"><stop stop-color="#CACFFF" stop-opacity="0"/><stop offset="1" stop-color="#fff"/></linearGradient><linearGradient id="f" x1="391.095" x2="391.095" y1="118.479" y2="271.5" gradientUnits="userSpaceOnUse"><stop stop-color="#8097D1"/><stop offset="1" stop-color="#6D85B4"/></linearGradient><linearGradient id="g" x1="313.113" x2="313.113" y1="74.5" y2="263.202" gradientUnits="userSpaceOnUse"><stop stop-color="#CACFFF" stop-opacity="0"/><stop offset="1" stop-color="#fff"/></linearGradient><linearGradient id="h" x1="353.142" x2="353.142" y1="124" y2="266.5" gradientUnits="userSpaceOnUse"><stop stop-color="#C3B6F4" stop-opacity="0"/><stop offset="1" stop-color="#fff" stop-opacity=".83"/></linearGradient><linearGradient id="i" x1="484.747" x2="546" y1="177.339" y2="265.5" gradientUnits="userSpaceOnUse"><stop stop-color="#765387"/><stop offset="1" stop-color="#353A6B"/></linearGradient><linearGradient id="k" x1="485.747" x2="547" y1="178.339" y2="266.5" gradientUnits="userSpaceOnUse"><stop stop-color="#A0D0BD"/><stop offset="1" stop-color="#688579"/></linearGradient><linearGradient id="l" x1="291.66" x2="291.66" y1="237" y2="262.5" gradientUnits="userSpaceOnUse"><stop stop-color="#583BA8"/><stop offset="1" stop-color="#383C6D"/></linearGradient><linearGradient id="n" x1="291.66" x2="291.66" y1="237" y2="262.5" gradientUnits="userSpaceOnUse"><stop stop-color="#fff"/><stop offset="1" stop-color="#383C6D"/></linearGradient><linearGradient id="o" x1="293.66" x2="293.66" y1="237" y2="262.5" gradientUnits="userSpaceOnUse"><stop stop-color="#7F96CE"/><stop offset="1" stop-color="#7A9D8F"/></linearGradient><linearGradient id="q" x1="313.113" x2="313.113" y1="74.5" y2="263.202" gradientUnits="userSpaceOnUse"><stop stop-color="#CACFFF" stop-opacity="0"/><stop offset="1" stop-color="#595F9C"/></linearGradient><clipPath id="a"><path fill="#fff" d="M0 0h604v256H0z"/></clipPath><filter id="c" width="794.469" height="679.147" x="43.647" y="-426.398" color-interpolation-filters="sRGB" filterUnits="userSpaceOnUse"><feFlood flood-opacity="0" result="BackgroundImageFix"/><feBlend in="SourceGraphic" in2="BackgroundImageFix" result="shape"/><feGaussianBlur result="effect1_foregroundBlur_1735_1165" stdDeviation="47"/></filter></defs></svg>