<svg width="1233" height="333" viewBox="0 0 1233 333" fill="none" xmlns="http://www.w3.org/2000/svg"><g clip-path="url(#clip0_538_3965)"><rect x="-1" y="-0.432526" width="1234" height="334" fill="url(#paint0_linear_538_3965)"/><g filter="url(#filter0_f_538_3965)"><ellipse cx="299.414" cy="209.623" rx="256.892" ry="90.9561" transform="rotate(-37.4623 299.414 209.623)" fill="black" fill-opacity="0.29"/></g><g filter="url(#filter1_f_538_3965)"><ellipse cx="1031" cy="-76.8812" rx="370" ry="123.624" transform="rotate(-37.4623 1031 -76.8812)" fill="black" fill-opacity="0.37"/></g><path d="M784 145.567L784.518 148.05L787 148.567L784.518 149.085L784 151.567L783.482 149.085L781 148.567L783.482 148.05L784 145.567Z" fill="white"/><path d="M276 129.567L276.518 132.05L279 132.567L276.518 133.085L276 135.567L275.482 133.085L273 132.567L275.482 132.05L276 129.567Z" fill="white"/><path d="M886 39.5675L886.518 42.0499L889 42.5675L886.518 43.0851L886 45.5675L885.482 43.0851L883 42.5675L885.482 42.0499L886 39.5675Z" fill="white"/><path d="M1145 126.567L1145.52 129.05L1148 129.567L1145.52 130.085L1145 132.567L1144.48 130.085L1142 129.567L1144.48 129.05L1145 126.567Z" fill="white"/><path d="M1081 56.5675L1081.52 59.0499L1084 59.5675L1081.52 60.0851L1081 62.5675L1080.48 60.0851L1078 59.5675L1080.48 59.0499L1081 56.5675Z" fill="white"/><path d="M1205 53.5675L1205.52 56.0499L1208 56.5675L1205.52 57.0851L1205 59.5675L1204.48 57.0851L1202 56.5675L1204.48 56.0499L1205 53.5675Z" fill="white"/><path d="M68 139.567L68.5176 142.05L71 142.567L68.5176 143.085L68 145.567L67.4824 143.085L65 142.567L67.4824 142.05L68 139.567Z" fill="white"/><path d="M117 93.5675L117.518 96.0499L120 96.5675L117.518 97.0851L117 99.5675L116.482 97.0851L114 96.5675L116.482 96.0499L117 93.5675Z" fill="white"/><path d="M635 176.567L635.518 179.05L638 179.567L635.518 180.085L635 182.567L634.482 180.085L632 179.567L634.482 179.05L635 176.567Z" fill="white"/><path d="M953 191.567L953.518 194.05L956 194.567L953.518 195.085L953 197.567L952.482 195.085L950 194.567L952.482 194.05L953 191.567Z" fill="white"/><path d="M445 188.567L445.518 191.05L448 191.567L445.518 192.085L445 194.567L444.482 192.085L442 191.567L444.482 191.05L445 188.567Z" fill="white"/><path d="M286.5 329.122L287.018 331.604L289.5 332.122L287.018 332.639L286.5 335.122L285.982 332.639L283.5 332.122L285.982 331.604L286.5 329.122Z" fill="white"/><path d="M896.5 239.122L897.018 241.604L899.5 242.122L897.018 242.639L896.5 245.122L895.982 242.639L893.5 242.122L895.982 241.604L896.5 239.122Z" fill="white"/><path d="M1155.5 326.122L1156.02 328.604L1158.5 329.122L1156.02 329.639L1155.5 332.122L1154.98 329.639L1152.5 329.122L1154.98 328.604L1155.5 326.122Z" fill="white"/><path d="M1117.17 209.232L1117.69 211.715L1120.17 212.232L1117.69 212.75L1117.17 215.232L1116.65 212.75L1114.17 212.232L1116.65 211.715L1117.17 209.232Z" fill="white"/><path d="M1215.5 253.122L1216.02 255.604L1218.5 256.122L1216.02 256.639L1215.5 259.122L1214.98 256.639L1212.5 256.122L1214.98 255.604L1215.5 253.122Z" fill="white"/><path d="M127.5 293.122L128.018 295.604L130.5 296.122L128.018 296.639L127.5 299.122L126.982 296.639L124.5 296.122L126.982 295.604L127.5 293.122Z" fill="white"/><path d="M1068.05 299.122L1068.57 301.604L1071.05 302.122L1068.57 302.639L1068.05 305.122L1067.54 302.639L1065.05 302.122L1067.54 301.604L1068.05 299.122Z" fill="white"/><circle cx="680" cy="126.567" r="1" fill="white"/><circle cx="835" cy="175.567" r="1" fill="white"/><circle cx="735" cy="41.5675" r="1" fill="white"/><circle cx="532" cy="31.5675" r="1" fill="white"/><circle cx="550.5" cy="178.067" r="0.5" fill="white"/><circle cx="451.5" cy="143.067" r="0.5" fill="white"/><circle cx="476.5" cy="49.0675" r="0.5" fill="white"/><circle cx="233.5" cy="81.0675" r="0.5" fill="white"/><circle cx="750.5" cy="183.067" r="0.5" fill="white"/><circle cx="706.5" cy="149.067" r="0.5" fill="white"/><circle cx="812.5" cy="30.0675" r="0.5" fill="white"/><circle cx="1154.5" cy="79.0675" r="0.5" fill="white"/><circle cx="1205.5" cy="141.067" r="0.5" fill="white"/><circle cx="1010.5" cy="48.0675" r="0.5" fill="white"/><circle cx="906.5" cy="146.067" r="0.5" fill="white"/><circle cx="361.5" cy="41.0675" r="0.5" fill="white"/><circle cx="390.5" cy="145.067" r="0.5" fill="white"/><circle cx="272.5" cy="53.0675" r="0.5" fill="white"/><circle cx="330.5" cy="188.067" r="0.5" fill="white"/><circle cx="631.5" cy="46.0675" r="0.5" fill="white"/><circle cx="578.5" cy="151.067" r="0.5" fill="white"/><circle cx="1003.5" cy="142.067" r="0.5" fill="white"/><circle cx="963.5" cy="80.0675" r="0.5" fill="white"/><circle cx="211.5" cy="45.0675" r="0.5" fill="white"/><circle cx="178.5" cy="143.067" r="0.5" fill="white"/><circle cx="26.5" cy="40.0675" r="0.5" fill="white"/><circle cx="16.5" cy="113.067" r="0.5" fill="white"/><circle cx="64.5" cy="184.067" r="0.5" fill="white"/><circle cx="125.5" cy="43.0675" r="0.5" fill="white"/><circle cx="690.5" cy="326.122" r="1" fill="white"/><circle cx="745.5" cy="241.122" r="1" fill="white"/><circle cx="542.5" cy="231.122" r="1" fill="white"/><circle cx="487" cy="248.622" r="0.5" fill="white"/><circle cx="543" cy="293.622" r="0.5" fill="white"/><circle cx="823" cy="229.622" r="0.5" fill="white"/><circle cx="1165" cy="278.622" r="0.5" fill="white"/><circle cx="1021" cy="247.622" r="0.5" fill="white"/><circle cx="372" cy="240.622" r="0.5" fill="white"/><circle cx="283" cy="252.622" r="0.5" fill="white"/><circle cx="642" cy="245.622" r="0.5" fill="white"/><circle cx="974" cy="279.622" r="0.5" fill="white"/><circle cx="851.498" cy="292.622" r="0.5" fill="white"/><circle cx="37" cy="239.622" r="0.5" fill="white"/><circle cx="27" cy="312.622" r="0.5" fill="white"/><circle cx="136" cy="242.622" r="0.5" fill="white"/></g><defs><filter id="filter0_f_538_3965" x="-5.91943" y="-56.5437" width="610.667" height="532.333" filterUnits="userSpaceOnUse" color-interpolation-filters="sRGB"><feFlood flood-opacity="0" result="BackgroundImageFix"/><feBlend mode="normal" in="SourceGraphic" in2="BackgroundImageFix" result="shape"/><feGaussianBlur stdDeviation="47" result="effect1_foregroundBlur_538_3965"/></filter><filter id="filter1_f_538_3965" x="633.761" y="-416.455" width="794.469" height="679.147" filterUnits="userSpaceOnUse" color-interpolation-filters="sRGB"><feFlood flood-opacity="0" result="BackgroundImageFix"/><feBlend mode="normal" in="SourceGraphic" in2="BackgroundImageFix" result="shape"/><feGaussianBlur stdDeviation="47" result="effect1_foregroundBlur_538_3965"/></filter><linearGradient id="paint0_linear_538_3965" x1="616" y1="-0.432488" x2="1098.68" y2="1267.2" gradientUnits="userSpaceOnUse"><stop offset="0.0731953" stop-color="#21284B"/><stop offset="1" stop-color="#5153E7"/></linearGradient><clipPath id="clip0_538_3965"><rect width="1233" height="333" rx="8" fill="white"/></clipPath></defs></svg>