<svg xmlns="http://www.w3.org/2000/svg" width="374" height="552" fill="none"><g clip-path="url(#a)"><path fill="#4E5FFC" d="M0 0h374v648H0z"/><path fill="url(#b)" d="M0-330h374v734H0z"/><path fill="url(#c)" fill-rule="evenodd" d="M38.968 308.043q2.262.324 4.532.821c25 5.5 43-7 53-16.5s29-25 53.5-19 36-1.5 50.5-18 35-12 45.5-9 32.5.5 45.5-17.5 31.5-21.5 53.5-14.5c17.6 5.6 29 2.334 32.5 0v209h-305v94H-309v-109c7.5-3.666 27.5-9.9 47.5-5.5 25 5.5 43-7 53-16.5s29-25 53.5-19 36-1.5 50.5-18 35-12 45.5-9 32.5.5 45.5-17.5c12.796-17.717 30.921-21.386 52.468-14.821" clip-rule="evenodd"/><path fill="#fff" d="m354 177 .679 2.321L357 180l-2.321.679L354 183l-.679-2.321L351 180l2.321-.679zM300 52l.679 2.321L303 55l-2.321.679L300 58l-.679-2.321L297 55l2.321-.679zM141 23l.679 2.321L144 26l-2.321.679L141 29l-.679-2.321L138 26l2.321-.679zM190 211l.679 2.321L193 214l-2.321.679L190 217l-.679-2.321L187 214l2.321-.679zM48 259l.679 2.321L51 262l-2.321.679L48 265l-.679-2.321L45 262l2.321-.679zM23 77l.679 2.321L26 80l-2.321.679L23 83l-.679-2.321L20 80l2.321-.679z"/><g filter="url(#d)"><ellipse cx="411.327" cy="-36.814" fill="#000" fill-opacity=".6" rx="252.089" ry="84.228" transform="rotate(-37.462 411.327 -36.814)"/></g><g filter="url(#e)"><ellipse cx="-107.673" cy="272.186" fill="#000" fill-opacity=".6" rx="252.089" ry="84.228" transform="rotate(-37.462 -107.673 272.186)"/></g><path fill="#BDCBEE" d="M283.563 348.205c-4.961 8.995-6.815 19.174-11.972 21.09 13.937 10.773 87.07-29.322 128.347-49.952-27.344-17.841-37.089-2.973-41.517 1.409s-7.783 2.296-18.638-1.157-14.118-.224-21.577 8.938-18.828 7.524-22.603 8.705c-3.774 1.181-5.838-.277-12.04 10.967"/><g filter="url(#f)"><circle cx="265" cy="310" r="66" fill="#76B8DE" fill-opacity=".29"/></g><path stroke="#9DC1F8" d="M357.983 242.582c1.717 3.361.822 8.002-2.571 13.65-3.376 5.62-9.146 12.097-16.878 19.018-15.458 13.838-38.672 29.377-65.978 43.325s-53.502 23.649-73.774 28.064c-10.14 2.207-18.769 3.086-25.302 2.528-6.564-.561-10.849-2.556-12.566-5.917-1.717-3.362-.822-8.002 2.571-13.65 3.377-5.62 9.146-12.097 16.878-19.018 15.459-13.838 38.672-29.377 65.978-43.326 27.306-13.948 53.502-23.648 73.774-28.063 10.14-2.208 18.769-3.087 25.302-2.528 6.564.561 10.849 2.556 12.566 5.917Z"/><g filter="url(#g)"><ellipse cx="262.46" cy="305.232" fill="#fff" fill-opacity=".18" rx="74.269" ry="74.853" transform="rotate(-56.353 262.46 305.232)"/></g><circle cx="262.502" cy="309.142" r="77.986" fill="#fff" transform="rotate(-56.353 262.502 309.142)"/><mask id="i" width="161" height="160" x="184" y="232" maskUnits="userSpaceOnUse" style="mask-type:alpha"><path fill="url(#h)" d="M308.274 245.719c14.34 9.545 24.582 22.937 30.269 37.898 1.253 3.295 3.772 2.905 4.279 4.541.395 2.539.87 3.328 1.363 6.05.248 1.371-1.834 2.516-1.341 5.747 2.89 18.906-.987 38.906-12.419 56.082-24.347 36.581-73.738 46.498-110.318 22.151s-46.498-73.738-22.151-110.318c6.609-9.929 15.063-17.895 24.606-23.743 1.461-.895.324-2.891 1.28-3.328 2.391-1.093 2.889-1.49 5.055-2.608.644-.292 2.588 1.197 4.287.48 23.784-10.037 51.991-8.326 75.09 7.048"/></mask><g mask="url(#i)"><ellipse cx="265.581" cy="312.879" fill="url(#j)" rx="79.564" ry="85.782" transform="rotate(-56.353 265.581 312.879)"/><path stroke="url(#k)" stroke-opacity=".03" stroke-width="3" d="M340.214 313.577c-14.582 8.486-49.15 19.318-70.76-5.236-27.012-30.694-50.697-40.246-96.839-11.168"/><path stroke="url(#l)" stroke-opacity=".3" stroke-width="2" d="M343.307 298.126c-14.582 8.486-49.15 19.319-70.76-5.236-27.012-30.693-50.697-40.246-96.839-11.168"/><path stroke="url(#m)" stroke-opacity=".3" stroke-width="2" d="M345.555 290.214c-14.582 8.485-49.15 19.318-70.76-5.237-27.012-30.693-50.697-40.246-96.839-11.168"/><path stroke="url(#n)" stroke-opacity=".05" stroke-width="28" d="M340.593 259.38c-2.888 22.015-32.022 34.167-55.233 11.12-29.014-28.809-58.161-69.168-102.244-37.055"/><path stroke="url(#o)" d="M228.739 239.352c1.12-.853.669-1.55.304-1.791-.367-.468-4.993.683-6.228 3.111s4.523-.253 5.924-1.32Z"/><path fill="#1F0836" d="M228.42 238.754c1.121-.87.671-1.58.306-1.826-.366-.476-4.994.701-6.231 3.176-1.236 2.474 4.524-.262 5.925-1.35"/><path stroke="url(#p)" stroke-opacity=".05" stroke-width="39" d="M334.397 235.171c-1.993 14.999-21.822 23.314-37.576 7.647-19.693-19.584-39.462-47.035-69.484-25.104"/></g><mask id="r" width="161" height="160" x="184" y="232" maskUnits="userSpaceOnUse" style="mask-type:alpha"><path fill="url(#q)" d="M308.274 245.719c14.34 9.545 24.582 22.937 30.27 37.899 1.252 3.294 3.771 2.904 4.278 4.54.395 2.539.87 3.328 1.363 6.05.248 1.371-1.834 2.516-1.341 5.747 2.89 18.906-.987 38.906-12.419 56.082-24.347 36.581-73.738 46.498-110.318 22.151s-46.498-73.737-22.151-110.318c6.609-9.929 15.063-17.894 24.606-23.743 1.461-.895.324-2.891 1.28-3.328 2.391-1.093 2.889-1.49 5.055-2.608.644-.292 2.588 1.197 4.287.48 23.784-10.037 51.991-8.325 75.09 7.048"/></mask><g mask="url(#r)"><path stroke="#9DC1F8" d="M357.983 242.582c.992 1.941 1.117 4.359.312 7.239-.806 2.883-2.537 6.195-5.202 9.876-5.332 7.361-14.185 15.897-25.841 24.888-11.651 8.987-25.741 18.151-41.092 26.723s-31.508 16.297-47.117 22.529c-15.611 6.233-30.209 10.788-42.572 13.287-12.381 2.503-22.096 2.857-28.379 1.102-3.134-.875-5.319-2.248-6.603-4.034-1.276-1.775-1.711-4.025-1.215-6.764 1-5.523 5.734-12.732 13.952-21.029"/><g filter="url(#s)"><circle cx="243.5" cy="252.5" r="30.5" fill="#76B8DE" fill-opacity=".35"/></g><g filter="url(#t)"><circle cx="214.5" cy="252.5" r="11.5" fill="#7686DE" fill-opacity=".65"/></g></g><mask id="u" width="222" height="48" x="78" y="335" maskUnits="userSpaceOnUse" style="mask-type:alpha"><path fill="#D9D9D9" d="M277.227 336.697c3.02 3.073 13.338 11.216 19.881 13.059l2.769 24.583-13.339 7.682c-73.151-1.587-217.19-4.762-208.13-4.762s21.728-10.346 26.929-15.518c4.949 0 18.422-.246 32.717-1.23 14.294-.983 28.606-14.954 33.975-21.817.839-.051 3.473-.123 7.298 0s6.46-1.28 7.299-1.997c28.942-1.281 87.58-3.073 90.601 0"/></mask><g mask="url(#u)"><path fill="url(#v)" d="M277.227 336.697c3.02 3.073 13.338 11.216 19.881 13.059l2.769 24.583-13.339 7.682c-73.151-1.587-217.19-4.762-208.13-4.762s21.728-10.346 26.929-15.518c4.949 0 18.422-.246 32.717-1.23 14.294-.983 28.606-14.954 33.975-21.817.839-.051 3.473-.123 7.298 0s6.46-1.28 7.299-1.997c28.942-1.281 87.58-3.073 90.601 0"/><path fill="#603F71" d="m244.761 340.538-77.262 1.383.252 1.69 114.257-.461H171.274l96.137-.768-96.137.46 102.933-.921-103.436.614z"/><path fill="#008FDF" fill-opacity=".41" d="m209.609 336.082 77.433 1.106-.253 1.352-114.508-.368h110.977l-96.349-.615 96.349.369-103.158-.738 103.663.492z"/><path fill="#000" fill-opacity=".23" d="m85.817 340.691 580.741 8.297-1.891 10.141-858.816-2.766h832.332l-722.616-4.609 722.616 2.765-773.691-5.531 777.475 3.688z"/><path fill="#008FDF" fill-opacity=".41" d="m222.696 351.446 77.432 1.107-.252 1.352-114.509-.369h110.978l-96.349-.615 96.349.369-103.159-.737 103.663.491zM195.358 347.144l-63.848 1.107.208 1.352 94.42-.369H134.63l79.445-.615-79.445.369 85.061-.737-85.477.491zM164.479 360.972h-60.904l-7.55 3.073 34.479-.307h-28.187l.503-.307h52.599l-53.857-.308 42.28-.153-41.525-.154 44.042-.307h-44.546c-.402 0 0-.205.252-.308l45.049-.307-41.274-.153 52.347-.308h-53.102z"/><path fill="#000" fill-opacity=".41" d="M287.042 365.889H57.309l-28.48 11.677 130.056-1.168H52.562l1.899-1.168h198.405l-203.152-1.167 159.484-.584-156.636-.584 166.129-1.168H50.664c-1.52 0 0-.778.949-1.167l169.926-1.168-155.686-.584 197.456-1.168H63.005z"/><path fill="#008FDF" fill-opacity=".41" d="M264.391 348.374h60.904l7.55-3.073-34.478.307h28.187l-.504.307h-52.599l53.858.308-42.281.153 41.526.154-44.042.307h44.545c.403 0 0 .205-.252.307l-45.048.308 41.273.153-52.347.308h53.102z"/></g><mask id="x" width="158" height="93" x="227" y="320" maskUnits="userSpaceOnUse" style="mask-type:alpha"><path fill="url(#w)" d="M372.513 320.057c-11.594 2.022-85.8 13.819-145.513 68.423l8.696 17.358c36.378 4.326 133.484 13.21 147.543-2.801 2.174-2.476 3.768-85.508-10.726-82.98"/></mask><g mask="url(#x)"><path fill="#9B7CB0" d="M372.513 320.057c-11.594 2.022-85.8 13.819-145.513 68.423l8.696 17.358c36.378 4.326 129.136 1.011 143.194-14.999 2.175-2.476 8.117-73.31-6.377-70.782"/><path fill="url(#y)" d="M372.803 320.057c-11.594 2.022-85.8 13.819-145.513 68.423l8.696 17.358c36.378 4.326 152.325 17.848 166.384 1.837 2.174-2.476-15.073-90.146-29.567-87.618"/><path fill="#000" fill-opacity=".15" d="M331.207 347.864c5.914-19.819-48.939 2.64-77.104 16.347-15.46 10.73-46.611 32.459-47.539 33.538-.927 1.078 114.498 14.688 169.428 13.115 4.783-4.157 7.333-30.474 2.464-36.541-6.088-7.584-13.769.337-35.074 4.719-21.306 4.382-19.566-6.404-12.175-31.178"/><path stroke="#fff" stroke-opacity=".2" d="M265.697 388.648c36.732-12.386 96.429-18.824 114.208-20.223M254.827 365.728c36.089-28.65 91.019 9.775 118.411-8.932M374.476 350.362c-6.693 2.459-13.137 3.177-18.135 2.373-5.02-.808-8.456-3.121-9.398-6.589s.727-7.656 4.437-11.671c3.693-3.998 9.322-7.715 16.015-10.174 6.692-2.458 13.136-3.176 18.134-2.372 5.02.807 8.456 3.12 9.398 6.588s-.727 7.657-4.437 11.672c-3.693 3.997-9.322 7.714-16.014 10.173Z"/></g><path fill="#BDCBEE" d="M135 364.5c9.81 9.603 15.374 20.637 23.5 22.5-17.516 12.385-136.347-28.148-202.858-48.841 35.284-20.702 53.771-4.898 61.51-.31 7.74 4.588 12.097 2.161 27.116-2.093s20.721-.873 34.254 8.801c13.533 9.675 29.813 7.379 35.698 8.501s8.518-.562 20.78 11.442"/><mask id="A" width="242" height="64" x="-66" y="328" maskUnits="userSpaceOnUse" style="mask-type:alpha"><path fill="url(#z)" d="M138.726 368.223c9.81 9.602 28.514 15.729 36.64 17.592-17.516 12.385-317.625 9.842-221.428-46.599 35.284-20.701 53.771-4.897 61.511-.309s12.096 2.161 27.115-2.093 20.721-.873 34.254 8.801 29.813 7.379 35.699 8.501 13.947 2.103 26.209 14.107"/></mask><g mask="url(#A)"><path fill="#9D6BB5" d="M138.434 368.159c9.809 9.603 28.514 15.729 36.639 17.592-17.515 12.386-154.916-25.905-221.427-46.598 35.284-20.702 53.77-4.898 61.51-.309s12.097 2.161 27.115-2.093c15.019-4.254 20.722-.873 34.254 8.801 13.533 9.674 29.813 7.379 35.699 8.501s13.947 2.103 26.21 14.106"/><path fill="url(#B)" d="M138.663 368.515c9.809 9.603 28.514 15.73 36.64 17.592-17.516 12.386-324.702-.636-221.428-46.598 35.284-20.702 53.77-4.898 61.51-.309s12.097 2.161 27.115-2.093c15.019-4.254 20.722-.873 34.255 8.801s29.812 7.379 35.698 8.501 13.948 2.103 26.21 14.106"/><path stroke="#000" stroke-opacity=".5" d="M76.798 351.441c-1.993 3.088-5.65 4.753-10.04 4.877-4.388.124-9.454-1.299-14.14-4.323s-8.069-7.054-9.763-11.103c-1.696-4.052-1.685-8.07.307-11.158 1.993-3.087 5.65-4.752 10.04-4.876 4.388-.124 9.454 1.298 14.14 4.323 4.686 3.024 8.069 7.054 9.763 11.103 1.695 4.051 1.685 8.07-.307 11.157Z"/><path stroke="#000" stroke-opacity=".5" d="M76.453 346.189c-1.993 3.088-5.65 4.752-10.04 4.876-4.388.124-9.454-1.298-14.14-4.322s-8.069-7.054-9.763-11.103c-1.696-4.052-1.685-8.07.307-11.158 1.993-3.087 5.65-4.752 10.04-4.876 4.388-.124 9.453 1.298 14.14 4.322 4.686 3.025 8.069 7.055 9.763 11.104 1.695 4.051 1.685 8.07-.307 11.157ZM137.912 363.796c-1.993 3.088-5.65 4.752-10.04 4.876-4.388.124-9.453-1.298-14.14-4.322-4.686-3.024-8.068-7.055-9.763-11.104-1.695-4.051-1.685-8.07.308-11.157 1.992-3.088 5.65-4.752 10.04-4.876 4.387-.124 9.453 1.298 14.139 4.322s8.069 7.055 9.763 11.104c1.696 4.051 1.686 8.07-.307 11.157ZM1.382 334.827c-1.992 3.087-5.65 4.752-10.04 4.876-4.387.124-9.453-1.298-14.14-4.322-4.686-3.025-8.068-7.055-9.763-11.104-1.695-4.051-1.685-8.07.308-11.157 1.992-3.088 5.65-4.753 10.04-4.877 4.387-.124 9.453 1.299 14.14 4.323 4.686 3.024 8.068 7.054 9.763 11.103 1.695 4.052 1.685 8.07-.308 11.158Z"/><path fill="#000" fill-opacity=".23" d="M53.42 331.965c4.316 2.008-33.35 25.503-41.906 12.372-8.554-13.131 37.592-14.38 41.907-12.372"/><path fill="#000" fill-opacity=".25" d="M77.057 350.877c8.768 4.228 25.909 2.294 33.384.798-6.708.078-22.176-.76-30.384-4.745-10.26-4.981-13.96-1.339-3 3.947"/></g><path fill="url(#C)" d="M380.5 382c-169.2-12.4-332.167-5.167-392.5 0l-7 182h399.5c.833-61.333 2-183.6 0-182"/><path fill="#98E6FF" fill-opacity=".12" d="M377.5 488.5C360.7 522.9 230.167 549.167 167 558l-98 37-103.5-22c-8.5-15.833-19-58.4 7-102C5 416.5 282 444.5 305 446s23-11-138-41c-128.8-24-188 6.333-201.5 24.5l-25.5-40c79-2.5 257-5.2 337 4 100 11.5 121.5 52 100.5 95"/><path stroke="#fff" stroke-opacity=".33" stroke-width=".5" d="M249.5 502.5c38.4.4 107.667-6.5 137.5-10V404c-51-1.667-163.4 1-205 25-52 30 62 42 108.5 46s-89 27-41 27.5Z"/><path stroke="#fff" stroke-opacity=".33" stroke-width=".5" d="M-16.5 519c42 14 117.3 45 82.5 57-43.5 15-27-78 78-66s173 64.5 193 59 75-20.5 51-56-177.5 36.5-126 87.5"/><mask id="D" width="76" height="76" x="50" y="73" maskUnits="userSpaceOnUse" style="mask-type:alpha"><circle cx="87.907" cy="110.907" r="37.907" fill="#D9D9D9" transform="rotate(-180 87.907 110.907)"/></mask><g mask="url(#D)"><circle cx="87.907" cy="110.907" r="37.907" fill="#fff" transform="rotate(-180 87.907 110.907)"/><circle cx="86.503" cy="109.503" r="37.907" fill="url(#E)" transform="rotate(-180 86.503 109.503)"/><path fill="#AB76CC" fill-opacity=".28" d="M125.815 101.079h-74.41v-14.04h74.41zM118.795 148.814H58.424v-8.424h60.371zM132.834 116.523h-88.45v-5.616h88.45z"/><circle cx="72.463" cy="102.483" r="37.907" fill="#000" fill-opacity=".17" transform="rotate(-180 72.463 102.483)"/></g><mask id="F" width="117" height="59" x="196" y="527" maskUnits="userSpaceOnUse" style="mask-type:alpha"><path fill="#536ABB" d="M196 585.5a58.5 58.5 0 1 1 117 0H196"/></mask><g mask="url(#F)"><path fill="url(#G)" d="M196 585.5a58.5 58.5 0 1 1 117 0H196"/><path fill="url(#H)" d="M214 579.5a50.5 50.5 0 1 1 101 0H214"/><path stroke="#99CEEC" stroke-opacity=".17" stroke-width="8" d="M202 553.426c1.344 3.672 10.038 9.733 34.058 4.591 30.025-6.428 51.983-12.856 73.942-2.755M218 538.055c.971 2.204 7.25 5.84 24.598 2.755 21.684-3.857 37.543-7.713 53.402-1.653"/></g><rect width="101" height="6" x="258" y="433" fill="#fff" rx="3"/><rect width="101" height="6" x="214" y="446" fill="#fff" rx="3"/><rect width="45" height="6" x="195" y="433" fill="#fff" rx="3"/><mask id="I" width="155" height="52" x="200" y="397" maskUnits="userSpaceOnUse" style="mask-type:alpha"><path fill="#D9D9D9" d="M216.722 449h95.187l-15.436-13.317H355L300.975 397l-9.647 12.683h-41.805l-49.523 26h29.585z"/></mask><g mask="url(#I)"><path fill="url(#J)" d="M216.722 449h95.187l-15.436-13.317H355L300.975 397l-9.647 12.683h-41.805l-49.523 26h29.585z"/><path fill="#000" fill-opacity=".36" d="m248 417-31 32 45 12h-21.5l-32-5.5L197 448l-1-15.5 25-11.5zM277 418l34.5 31 22-11.5zM309 421l-18-11 9-15.5zM277 437.5l12.5 12.5-27.5 1.5 7.5-19 7.5 9z"/><path fill="#D9B75F" fill-opacity=".23" d="M266.424 404 203 409.85l.207 7.15L297 415.05h-90.901l78.919-3.25-78.919 1.95 84.497-3.9-84.91 2.6zM295.694 394.822l15.05 2.911 1.379 7.016-20.922 2.263 19.901-4.046-17.925.327 17.666-1.6-19.276-.062 19.107-1.231z"/><path fill="#000" fill-opacity=".23" d="m336.5 412.5 37.5 4.1-.356 15.4H294.5l74.159-4.2L288.5 425h80.159l-87.159-4.2 87.871 1.4zM239.676 425 204 428.995l.339 15.005h75.293l-70.551-4.092 76.26-2.729h-76.26L292 433.087l-83.597 1.364z"/></g><rect width="101" height="8" x="106" y="480" fill="#fff" rx="4"/><rect width="101" height="8" x="37" y="497" fill="#fff" rx="4"/><rect width="120" height="11" x="-4" y="510" fill="#fff" rx="5.5"/><mask id="K" width="206" height="119" x="-7" y="397" maskUnits="userSpaceOnUse" style="mask-type:alpha"><path fill="#D9D9D9" d="M30 397.5H-6.5v118H110L90 501h42l-22-17h89c-20.5-18.5-57-19-81.5-22.5-19.6-2.8-33.167-15.833-37.5-22-30 0-45.833-28-50-42"/></mask><g mask="url(#K)"><path fill="url(#L)" d="M30 397.5H-6.5v118H110L90 501h42l-22-17h89c-20.5-18.5-57-19-81.5-22.5-19.6-2.8-33.167-15.833-37.5-22-30 0-45.833-28-50-42"/><path fill="#000" fill-opacity=".36" d="M45.5 457 90 501l21.5 3zM90 467l26 21.5h27zM56.5 497l23 18.5-85 5 3.5-104L53.5 484 25 480.5l28.5 35z"/><path fill="#000" fill-opacity=".36" d="M142 485c4.5-10.5 43.5-11 46.5-11l15 11c-22 3.5-65.1 8.4-61.5 0"/><path fill="#000" fill-opacity=".23" d="M-23.574 408 164 429.6l-.611 26.4L-114 448.8h268.835l-233.398-12 233.398 7.2-249.894-14.4 251.116 9.6z"/><path fill="#D9B75F" fill-opacity=".23" d="M16.644 416-121 423.2l.448 8.8L83 429.6h-197.275l171.27-4-171.27 2.4 183.376-4.8-184.272 3.2zM-.354 398 113 405.2l-.369 8.8L-55 411.6h162.462l-141.047-4 141.047 2.4-151.016-4.8 151.754 3.2z"/></g><path fill="#fff" d="M168.5 482c3.5 0 5.5 2 10.5 2v2h-37.5c-11 0-16.5-2-10-2s5.5-3 11-3 5 3 12.5 3 9.692-2 13.5-2M331.109 434.6c2.297 0 3.61 1.2 6.891 1.2v1.2h-24.609c-7.219 0-10.828-1.2-6.562-1.2s3.609-1.8 7.218-1.8 3.031 1.5 7.953 1.5 6.611-.9 9.109-.9M256 447.5c1.601 0 2.713 1.5 5 1.5v1c-3.811 0-13.401.2-17.426.2-5.031 0-7.547-1.2-4.574-1.2s2.984-2.5 5.5-2.5 1.918 2 5.348 2c3.431 0 4.41-1 6.152-1M219 434.5c3.363-.041 2 1 7 1.5l-6-.108c-1.801 0-6.334.108-8.236.108H203.5c1.405 0 4.5-2 7.5-2 1.189 0 2.108 1.081 3.73 1.081s3.447-.571 4.27-.581M305.274 445c1.601 0 1.726 1 5 1l2.226 3.5c-3.812 0-16.475 1-20.5 1-5.031 0-7.973-1-5-1h4.5c2.516 0 1.57-.5 5-.5s4-4 8.774-4M58.5 513c4.5 0 7.5 2 12.5 2.5l-2.213 1.5h-36c-11 0-17.787-1.5-11.287-1.5s6.787-3.5 12.286-3.5c5.5 0 5 3 12.5 3s8.406-2 12.214-2"/><path fill="#fff" d="M6.538 513c4.5 0 7.5 2 12.5 2.5l-2.214 1.5h-36c-11 0-17.786-1.5-11.286-1.5s6.786-3.5 12.286-3.5 5 3 12.5 3 8.406-2 12.214-2"/><circle cx="152" cy="481" r="1" fill="#fff"/><circle cx="152" cy="481" r="1" fill="#fff"/><circle cx="317" cy="432" r="1" fill="#fff"/><circle cx="18" cy="512" r="1" fill="#fff"/><circle cx="174.5" cy="480.5" r=".5" fill="#fff"/><circle cx="156.5" cy="481.5" r=".5" fill="#fff"/><circle cx="321.5" cy="432.5" r=".5" fill="#fff"/><circle cx="249.5" cy="447.5" r=".5" fill="#fff"/><circle cx="213.5" cy="433.5" r=".5" fill="#fff"/><circle cx="297.5" cy="445.5" r=".5" fill="#fff"/><circle cx="216.5" cy="433.5" r=".5" fill="#fff"/><circle cx="41.5" cy="512.5" r=".5" fill="#fff"/><path stroke="url(#M)" stroke-linecap="round" stroke-width=".5" d="M328.382 92 242 165.416"/><path stroke="url(#N)" stroke-linecap="round" stroke-width=".5" d="M194.382 136 108 209.416"/><path stroke="url(#O)" stroke-linecap="round" stroke-width=".5" d="M227.65 40.827 185 77.417"/><path stroke="url(#P)" stroke-linecap="round" stroke-width=".5" d="M22.65 183-20 219.589"/><g filter="url(#Q)"><circle cx="242.5" cy="164.916" r="2.5" fill="#E89D67"/></g><g filter="url(#R)"><circle cx="108.5" cy="208.916" r="2.5" fill="#E89D67"/></g><g filter="url(#S)"><circle cx="185.5" cy="76.916" r="2.5" fill="#E89D67"/></g><circle cx="242.5" cy="164.916" r="1.5" fill="#fff"/><circle cx="108.5" cy="208.916" r="1.5" fill="#fff"/><circle cx="185.5" cy="76.916" r="1.5" fill="#fff"/><circle cx="301" cy="162" r="1" fill="#fff"/><circle cx="226" cy="102" r="1" fill="#fff"/><circle cx="107" cy="255" r="1" fill="#fff"/><circle cx="60" cy="197" r="1" fill="#fff"/><circle cx="59" cy="47" r="1" fill="#fff"/><circle cx="258" cy="29" r="1" fill="#fff"/><circle cx="357" cy="102" r="1" fill="#fff"/><circle cx="341" cy="23" r="1" fill="#fff"/><circle cx="19" cy="17" r="1" fill="#fff"/><circle cx="166" cy="121" r="1" fill="#fff"/><circle cx="14" cy="286" r="1" fill="#fff"/><circle cx="246" cy="207" r="1" fill="#fff"/><circle cx="245.5" cy="116.5" r=".5" fill="#fff"/><circle cx="203.5" cy="178.5" r=".5" fill="#fff"/><circle cx="164.5" cy="251.5" r=".5" fill="#fff"/><circle cx="151.5" cy="200.5" r=".5" fill="#fff"/><circle cx="116.5" cy="170.5" r=".5" fill="#fff"/><circle cx="77.5" cy="233.5" r=".5" fill="#fff"/><circle cx="22.5" cy="217.5" r=".5" fill="#fff"/><circle cx="21.5" cy="153.5" r=".5" fill="#fff"/><circle cx="23.5" cy="48.5" r=".5" fill="#fff"/><circle cx="85.5" cy="23.5" r=".5" fill="#fff"/><circle cx="137.5" cy="63.5" r=".5" fill="#fff"/><circle cx="203.5" cy="21.5" r=".5" fill="#fff"/><circle cx="247.5" cy="67.5" r=".5" fill="#fff"/><circle cx="289.5" cy="89.5" r=".5" fill="#fff"/><circle cx="335.5" cy="133.5" r=".5" fill="#fff"/><circle cx="316.5" cy="187.5" r=".5" fill="#fff"/><circle cx="273.5" cy="185.5" r=".5" fill="#fff"/><circle cx="205.5" cy="135.5" r=".5" fill="#fff"/><circle cx="71.5" cy="286.5" r=".5" fill="#fff"/><circle cx="22.5" cy="253.5" r=".5" fill="#fff"/><circle cx="55.5" cy="164.5" r=".5" fill="#fff"/><circle cx="29.5" cy="120.5" r=".5" fill="#fff"/><circle cx="96.5" cy="54.5" r=".5" fill="#fff"/><circle cx="48.5" cy="15.5" r=".5" fill="#fff"/><circle cx="305.5" cy="20.5" r=".5" fill="#fff"/><circle cx="351.5" cy="58.5" r=".5" fill="#fff"/><circle cx="361.5" cy="199.5" r=".5" fill="#fff"/><circle cx="274.5" cy="218.5" r=".5" fill="#fff"/><circle cx="137.5" cy="139.5" r=".5" fill="#fff"/><path fill="#000" d="M207.752 317.234h-6.068l.234.35h5.6zM207.402 328.435h.933v5.017h-.933zM202.034 328.435h-.933v5.017h.933z"/><path fill="#000" stroke="#4D4797" stroke-width=".2" d="M206.38 328.218a1.516 1.516 0 1 0 2.977 0c-.318-1.636-2.659-1.636-2.977 0Z"/><path fill="#000" stroke="#4F4B9D" stroke-width=".2" d="M203.056 328.218a1.516 1.516 0 1 1-2.977 0c.318-1.636 2.659-1.636 2.977 0Z"/><path fill="#000" d="m197.114 318.271-2.703-.21c-.182-.013-.347.277-.379.653-.031.376.093.69.276.703l2.326.178s.509-.49.636-.946c.047-.165.029-.3-.038-.361-.031-.009-.107-.011-.118-.017"/><path fill="#000" d="M195.414 320.51s2.314.34 3.054.286c.8-.058 1.436-.338 1.599-1.225.057-.581-.505-1.176-1.555-1.584s-2.379-.726-2.379-.726"/><mask id="T" width="2" height="4" x="195" y="317" maskUnits="userSpaceOnUse" style="mask-type:alpha"><path fill="#000" d="M195.451 320.521c-.277-.056-.353-.827-.17-1.722.183-.896.556-1.576.832-1.52.277.056.353.827.17 1.723-.183.895-.556 1.575-.832 1.519"/></mask><g fill="#000" mask="url(#T)"><path d="M195.451 320.521c-.277-.056-.353-.827-.17-1.722.183-.896.556-1.576.832-1.52.277.056.353.827.17 1.723-.183.895-.556 1.575-.832 1.519"/><path d="m197.114 318.271-2.703-.21c-.182-.013-.347.277-.379.653-.031.376.093.69.276.703l2.326.178s.509-.49.636-.945c.047-.166.029-.301-.038-.362-.031-.009-.107-.011-.118-.017"/></g><path stroke="#000" stroke-miterlimit="10" stroke-width=".1" d="M196.439 320.646s.037-.776.714-.832 2.88.105 2.88.105"/><path fill="#000" d="M209.478 325.222a1.095 1.095 0 0 0-1.088-1.22h-7.344c-.654 0-1.163.57-1.088 1.22a2.007 2.007 0 0 0 2.276 1.757l2.484-.352 2.484.352a2.007 2.007 0 0 0 2.276-1.757"/><mask id="V" width="11" height="11" x="199" y="317" maskUnits="userSpaceOnUse" style="mask-type:alpha"><path fill="url(#U)" fill-rule="evenodd" d="M209.852 318.052v-.001c0-.193-2.272-.35-5.076-.35s-5.075.157-5.075.35v4.936c0 2.235 2.272 4.048 5.075 4.048s5.076-1.813 5.076-4.048z" clip-rule="evenodd"/></mask><g mask="url(#V)"><path fill="#000" fill-rule="evenodd" d="M209.852 318.052v-.001c0-.193-2.272-.35-5.076-.35s-5.075.157-5.075.35v4.936c0 2.235 2.272 4.048 5.075 4.048s5.076-1.813 5.076-4.048z" clip-rule="evenodd"/><path stroke="#4E499A" stroke-miterlimit="10" stroke-width=".2" d="M209.852 322.368c0 .516-2.273.934-5.076.934s-5.075-.418-5.075-.934M209.852 323.885c0 .516-2.273.933-5.076.933s-5.075-.417-5.075-.933"/></g><rect width="6.534" height="3.267" x="201.451" y="318.868" fill="#000" rx="1.634"/><circle cx="194.401" cy="318.637" r=".95" fill="#000" stroke="#5653AC" stroke-width=".2" transform="rotate(47.65 194.401 318.637)"/><mask id="W" width="5.853" height="6.28" x="190.575" y="313.18" fill="#000" maskUnits="userSpaceOnUse"><path fill="#fff" d="M190.575 313.18h5.853v6.28h-5.853z"/><path d="M191.267 315.789s.506.87.74 1.219c.834 1.241 1.338 1.803 2.189 1.42.965-.436.489-1.595.169-2.352l-.598-1.416"/></mask><path fill="#000" d="M191.267 315.789s.506.87.74 1.219c.834 1.241 1.338 1.803 2.189 1.42.965-.436.489-1.595.169-2.352l-.598-1.416"/><path fill="#5755AF" d="m192.007 317.008-.166.112zm2.189 1.42.082.182zm.169-2.352.184-.078zm-3.098-.287.173-.101v.001l.002.002.004.007.016.028.06.103.199.336c.156.262.339.562.452.732l-.332.223c-.12-.18-.308-.489-.463-.75l-.201-.338-.06-.104-.017-.029-.004-.007-.001-.002h-.001v-.001zm.906 1.108c.421.625.737 1.046 1.041 1.269a.83.83 0 0 0 .418.177.93.93 0 0 0 .481-.097l.165.364a1.3 1.3 0 0 1-.686.131 1.23 1.23 0 0 1-.616-.253c-.369-.272-.722-.753-1.135-1.368zm1.94 1.349a.73.73 0 0 0 .381-.349 1 1 0 0 0 .069-.507c-.035-.402-.22-.852-.382-1.236l.368-.156c.158.373.371.881.412 1.357.022.241 0 .489-.106.714a1.12 1.12 0 0 1-.577.541zm.068-2.092-.4-.947-.184-.434-.01-.026-.003-.007-.001-.001v-.001l.184-.078.184-.077h.001v.002l.003.007.011.025.041.097.142.337.4.947z" mask="url(#W)"/><path fill="#000" d="M192.7 315.616c-.69.312-1.329.386-1.429.166s.378-.652 1.068-.964 1.33-.387 1.429-.166c.1.22-.378.652-1.068.964M212.615 320.584l1.234 2.656c.082.179-.149.455-.518.63-.369.174-.733.166-.816-.013l-1.059-2.288s.304-.7.717-1c.15-.11.293-.144.381-.098.02.028.051.103.061.113"/><path fill="#000" d="M210.991 323.15s-1.219-2.213-1.444-2.983c-.244-.831-.2-1.581.636-2.081.566-.277 1.381.067 2.191.975.811.909 1.634 2.133 1.634 2.133"/><mask id="X" width="5" height="3" x="210" y="321" maskUnits="userSpaceOnUse" style="mask-type:alpha"><path fill="#000" d="M210.966 323.117c.161.259.971.045 1.808-.479s1.384-1.158 1.223-1.417-.97-.044-1.807.479c-.837.524-1.385 1.159-1.224 1.417"/></mask><g fill="#000" mask="url(#X)"><path d="M210.966 323.117c.161.259.971.045 1.808-.479s1.384-1.158 1.223-1.417-.97-.044-1.807.479c-.837.524-1.385 1.159-1.224 1.417"/><path d="m212.615 320.584 1.234 2.656c.082.179-.149.455-.518.63-.368.174-.733.166-.816-.013l-1.059-2.288s.304-.7.717-1c.15-.11.293-.144.381-.098.02.028.051.103.061.113"/></g><path stroke="#000" stroke-miterlimit="10" stroke-width=".1" d="M210.467 322.165s.77-.332.572-1.038-1.196-2.876-1.196-2.876"/><circle cx="1.135" cy="1.135" r="1.035" fill="#000" stroke="#4C4696" stroke-width=".2" transform="scale(-1 1)rotate(-21.871 728.124 717.316)"/><mask id="Y" width="6.15" height="6.865" x="210.156" y="322.125" fill="#000" maskUnits="userSpaceOnUse"><path fill="#fff" d="M210.156 322.125h6.15v6.865h-6.15z"/><path d="M214.169 327.789s.177-1.071.222-1.522c.161-1.604.131-2.415-.819-2.665-1.078-.283-1.473 1.011-1.724 1.863l-.47 1.592"/></mask><path fill="#000" d="M214.169 327.789s.177-1.071.222-1.522c.161-1.604.131-2.415-.819-2.665-1.078-.283-1.473 1.011-1.724 1.863l-.47 1.592"/><path fill="#4B4594" d="m214.391 326.267.199.018zm-.819-2.665.053-.193zm-1.724 1.863-.193-.055zm2.321 2.324-.197-.03v-.003l.001-.009.006-.035.021-.127.065-.416c.05-.325.105-.701.127-.92l.398.036a21 21 0 0 1-.129.941 40 40 0 0 1-.092.582l-.002.009v.003zm.023-1.54c.081-.808.108-1.378.011-1.774a.9.9 0 0 0-.223-.437.97.97 0 0 0-.461-.243l.106-.386c.263.069.478.181.642.349s.266.377.326.62c.115.473.077 1.111-.003 1.907zm-.672-2.454a.75.75 0 0 0-.549.038q-.224.113-.405.385c-.245.364-.399.87-.526 1.301l-.385-.109c.124-.42.293-.987.579-1.412.144-.215.327-.407.562-.523.239-.118.516-.148.829-.066zm-1.48 1.724-.314 1.066-.112.379-.033.109-.008.029-.002.007-.001.002v.001l-.192-.055-.192-.055v-.003l.002-.007.009-.029.032-.109.112-.379.314-1.065z" mask="url(#Y)"/><path fill="#000" d="m213.772 328.017.163-1.152.151-1.079.037-.27.024-.201.015-.179.01-.241v-.178l-.007-.142-.014-.144-.027-.171-.038-.153-.057-.148-.058-.106-.063-.08-.048-.053.121.062.135.098.106.111.073.102.062.116.054.147.043.17.024.154.02.23.003.317-.013.34-.043.521-.058.5-.176 1.169-.022.076-.04.055-.052.041-.037.019-.106.037z"/><path fill="#000" d="M212.904 327.006c.794.208 1.384.581 1.316.833s-.767.288-1.561.081c-.795-.208-1.384-.581-1.316-.833s.767-.288 1.561-.081"/><path fill="#000" stroke="#4B4492" stroke-miterlimit="10" stroke-width=".2" d="m213.592 329.301.131.049.02-.103.088-.457c.092-.474-.32-1.02-.937-1.26l-.256-.1h-.001c-.58-.225-1.188-.118-1.425.273h-.001l-.313.516-.047.078.111.04z"/><path fill="#000" stroke="#5855AF" stroke-miterlimit="10" stroke-width=".2" d="m190.881 314.486-.126.06.058.086.262.385c.272.399.949.493 1.554.224l.252-.111c.569-.252.922-.759.813-1.203l-.145-.586-.022-.088-.107.05z"/><ellipse cx="1.399" cy=".317" fill="#000" rx="1.399" ry=".317" transform="matrix(-.9304 -.36656 .30068 -.95373 213.534 329.561)"/><ellipse cx="1.399" cy=".317" fill="#000" rx="1.399" ry=".317" transform="matrix(.91614 -.40086 .46386 .8859 190.738 314.263)"/><path fill="#000" d="M211.518 330.629c-.175-.117.054-1.41.116-1.575.017-.044.258.042.301.058l.495.179c.138.054.218.125.196.171-.218.423-.933 1.284-1.108 1.167M191.397 312.095c.207-.042.961 1.032 1.034 1.194.02.042-.211.152-.253.171l-.476.225c-.136.059-.243.066-.26.018-.145-.452-.251-1.567-.045-1.608M210.492 329.724c.021.028.06.032.088.01l.833-.662a.066.066 0 0 0 .013-.089l-.407-.256c-.101-.046-.234-.116-.35.059-.212.394-.234.525-.177.938M192.769 311.992c-.035-.005-.065.019-.07.055l-.118 1.057a.066.066 0 0 0 .054.072l.468-.108c.105-.039.248-.083.206-.289-.13-.428-.207-.536-.54-.787M212.71 330.672a.065.065 0 0 1-.055-.072l.129-1.051a.06.06 0 0 1 .069-.054l.431.235c.093.067.222.15.133.337-.225.375-.326.457-.707.605M190.532 312.894a.067.067 0 0 1 .091.012l.653.834a.06.06 0 0 1-.011.087l-.471.139c-.112.019-.262.051-.332-.143-.107-.424-.094-.554.07-.929"/><path fill="#000" stroke="#4B4593" stroke-width=".2" d="M209.191 319.255c-.122-.561-.118-1.006.003-1.33.118-.316.352-.527.721-.622.25-.047.443-.023.587.044a.64.64 0 0 1 .315.328c.136.299.114.734-.064 1.152l-.929 1.95c-.282-.402-.495-.897-.633-1.522Z"/><path fill="#000" stroke="#5350A6" stroke-width=".2" d="M200.302 319.255c.123-.561.119-1.006-.002-1.33-.119-.316-.353-.527-.721-.622-.25-.047-.443-.023-.588.044a.64.64 0 0 0-.315.328c-.135.299-.114.734.065 1.152l.929 1.95c.281-.402.495-.897.632-1.522Z"/><mask id="aa" width="2" height="3" x="208" y="313" maskUnits="userSpaceOnUse" style="mask-type:alpha"><path fill="url(#Z)" d="M208.872 313.154c.111-.119.287-.08.431-.004l.697.37v1.945l-.697.369c-.144.077-.32.116-.431-.004-.145-.156-.312-.514-.312-1.338 0-.823.167-1.182.312-1.338"/></mask><g mask="url(#aa)"><path fill="#000" d="M208.872 313.154c.111-.119.287-.08.431-.004l.697.37v1.945l-.697.369c-.144.077-.32.116-.431-.004-.145-.156-.312-.514-.312-1.338 0-.823.167-1.182.312-1.338"/></g><mask id="ac" width="2" height="3" x="199" y="313" maskUnits="userSpaceOnUse" style="mask-type:alpha"><path fill="url(#ab)" d="M200.459 315.797c-.112.119-.287.08-.432.003l-.696-.369v-1.945l.696-.369c.145-.077.32-.116.432.003.145.157.312.515.312 1.338s-.167 1.182-.312 1.339"/></mask><g mask="url(#ac)"><path fill="#000" d="M200.459 315.797c-.112.119-.287.08-.432.003l-.696-.369v-1.945l.696-.369c.145-.077.32-.116.432.003.145.157.312.515.312 1.338s-.167 1.182-.312 1.339"/></g><mask id="ae" width="10" height="8" x="200" y="310" maskUnits="userSpaceOnUse" style="mask-type:alpha"><path fill="url(#ad)" d="M209.385 312.866c0-1.582-2.089-2.866-4.667-2.866s-4.667 1.284-4.667 2.866v3.541c0 .457.4.827.894.827h7.545c.494 0 .894-.37.894-.827v-3.541z"/></mask><g mask="url(#ae)"><path fill="#000" d="M209.385 312.866c0-1.582-2.089-2.866-4.667-2.866s-4.667 1.284-4.667 2.866v3.541c0 .457.4.827.894.827h7.545c.494 0 .894-.37.894-.827v-3.541z"/><path fill="#312E6F" d="M207.913 313.861c0-.714-1.567-1.294-3.5-1.294s-3.5.58-3.5 1.294v1.599c0 .207.3.374.67.374h5.659c.37 0 .67-.167.67-.374v-1.599z"/><path stroke="#5450A6" stroke-miterlimit="10" stroke-width=".1" d="m202.614 310 1.085 2.035s.202.192.451.205c.25.012.533 0 .533 0s.25-.098.33-.193c.08-.094 1.179-2.047 1.179-2.047"/><path stroke="#5450A6" stroke-miterlimit="10" stroke-width=".1" d="m202.151 310.108 1.362 2.409s.254.228.567.243c.313.016.668 0 .668 0s.314-.117.416-.228 1.481-2.424 1.481-2.424"/><path fill="#000" d="m200.066 315.282.208-.557.01-3.092-.093.233-.022.084-.032.139-.033.169-.02.138-.018.173-.014.245-.001 2.553zM209.535 315.234l-.411-.555-.02-3.083.183.23.045.085.063.139.064.168.04.139.036.172.027.243.003 2.547z"/></g><path fill="#000" d="M202.559 315.37a.93.93 0 1 0 0-1.858.93.93 0 0 0 0 1.858M206.266 315.37a.93.93 0 1 0 0-1.858.93.93 0 0 0 0 1.858"/><path fill="#404040" d="M205.867 314.071a.264.264 0 1 0 0 .527.264.264 0 0 0 0-.527M202.13 314.071a.264.264 0 1 0 0 .527.264.264 0 0 0 0-.527M202.549 313.842a.115.115 0 0 0-.114.115c0 .063.051.114.114.114a.114.114 0 0 0 .115-.114.115.115 0 0 0-.115-.115M206.258 313.842a.115.115 0 0 0-.115.115c0 .063.051.114.115.114a.114.114 0 0 0 .114-.114.115.115 0 0 0-.114-.115"/><path fill="#000" d="M207.24 333.076a.653.653 0 0 1 1.21-.004l1.848 4.496a.654.654 0 0 1-.605.902h-3.657a.654.654 0 0 1-.607-.898zM202.196 333.076a.653.653 0 0 0-1.21-.004l-1.848 4.496c-.177.43.14.902.605.902h3.657a.654.654 0 0 0 .607-.898z"/><circle cx=".933" cy=".933" r=".933" fill="#000" transform="matrix(0 1 1 0 206.935 330.186)"/><circle cx="201.568" cy="331.119" r=".933" fill="#000"/><path fill="#000" d="M209.91 338.47h-3.325c.13-.528.565-1.773 1.267-2.526.615-.66 1.7.889 2.341 2.06a.316.316 0 0 1-.283.466M199.526 338.47h3.325c-.13-.528-.565-1.773-1.267-2.526-.615-.66-1.7.889-2.341 2.06a.316.316 0 0 0 .283.466"/><path fill="#000" d="M210.608 338.47h-3.673c.12-.482.521-1.619 1.168-2.306.562-.598 2.041.788 2.763 1.853.136.201-.015.453-.258.453M198.828 338.47h3.673c-.12-.482-.521-1.619-1.168-2.306-.562-.598-2.041.788-2.763 1.853-.136.201.015.453.258.453M205.022 320.97l.401-.388.125.121c.02.02.054.026.08.015a.07.07 0 0 0 .046-.067v-.757a.073.073 0 0 0-.074-.072h-.784a.08.08 0 0 0-.07.044.07.07 0 0 0 .016.078l.177.171a.08.08 0 0 0 .105 0 .07.07 0 0 0 0-.103l-.05-.048h.532v.512l-.051-.049a.08.08 0 0 0-.105 0l-.453.437a.07.07 0 0 0 0 .103.08.08 0 0 0 .052.021.06.06 0 0 0 .053-.018M204.721 320.39l-.143-.157-.142-.156a.07.07 0 0 0-.048-.022.07.07 0 0 0-.049.022l-.182.2-.182.2-.057-.062-.057-.063q-.015-.015-.034-.008a.03.03 0 0 0-.02.032v.693q.001.016.01.025a.03.03 0 0 0 .023.011h.632q.022-.001.028-.022a.04.04 0 0 0-.007-.037l-.068-.075-.068-.075.182-.2.182-.2a.08.08 0 0 0 .02-.053.08.08 0 0 0-.02-.053"/></g><defs><linearGradient id="b" x1="187" x2="187" y1="-330" y2="745.56" gradientUnits="userSpaceOnUse"><stop offset=".271" stop-color="#21284B"/><stop offset="1" stop-color="#5153E7"/></linearGradient><linearGradient id="c" x1="-127.5" x2="-81" y1="254.5" y2="461.5" gradientUnits="userSpaceOnUse"><stop stop-color="#8886D9" stop-opacity=".33"/><stop offset=".779" stop-color="#fff" stop-opacity="0"/></linearGradient><linearGradient id="j" x1="265.581" x2="265.581" y1="227.097" y2="398.662" gradientUnits="userSpaceOnUse"><stop stop-color="#6567CE"/><stop offset=".693" stop-color="#271745"/></linearGradient><linearGradient id="k" x1="328.889" x2="208.509" y1="326.58" y2="278.844" gradientUnits="userSpaceOnUse"><stop stop-color="#fff"/><stop offset="1" stop-color="#fff" stop-opacity="0"/></linearGradient><linearGradient id="l" x1="330.681" x2="229.021" y1="308.363" y2="260.8" gradientUnits="userSpaceOnUse"><stop stop-color="#fff" stop-opacity="0"/><stop offset="1" stop-color="#fff"/></linearGradient><linearGradient id="m" x1="332.929" x2="231.269" y1="300.45" y2="252.887" gradientUnits="userSpaceOnUse"><stop stop-color="#fff" stop-opacity="0"/><stop offset="1" stop-color="#fff" stop-opacity=".35"/></linearGradient><linearGradient id="n" x1="344.402" x2="239.776" y1="282.031" y2="241.407" gradientUnits="userSpaceOnUse"><stop stop-color="#F1C480"/><stop offset="1" stop-color="#F3D4A4" stop-opacity="0"/></linearGradient><linearGradient id="o" x1="227.55" x2="226.631" y1="242.122" y2="240.205" gradientUnits="userSpaceOnUse"><stop stop-color="#fff"/><stop offset="1" stop-color="#fff" stop-opacity="0"/></linearGradient><linearGradient id="p" x1="336.957" x2="265.909" y1="250.594" y2="222.934" gradientUnits="userSpaceOnUse"><stop stop-color="#F1C480"/><stop offset="1" stop-color="#F3D4A4" stop-opacity="0"/></linearGradient><linearGradient id="v" x1="188.938" x2="188.938" y1="335" y2="382.021" gradientUnits="userSpaceOnUse"><stop stop-color="#7E549F"/><stop offset="1" stop-color="#090752"/></linearGradient><linearGradient id="w" x1="376.861" x2="294.137" y1="315.506" y2="348.854" gradientUnits="userSpaceOnUse"><stop stop-color="#353F7D"/><stop offset="1" stop-color="#1F234E"/></linearGradient><linearGradient id="y" x1="377.151" x2="273.181" y1="315.506" y2="371.305" gradientUnits="userSpaceOnUse"><stop stop-color="#765387"/><stop offset="1" stop-color="#1F234E"/></linearGradient><linearGradient id="z" x1="97.959" x2="18.62" y1="344.22" y2="361.046" gradientUnits="userSpaceOnUse"><stop stop-color="#354E8F"/><stop offset="1" stop-color="#1F3161"/></linearGradient><linearGradient id="B" x1="97.896" x2="19.032" y1="344.513" y2="349.949" gradientUnits="userSpaceOnUse"><stop stop-color="#765387"/><stop offset="1" stop-color="#1F3161"/></linearGradient><linearGradient id="C" x1="181.302" x2="181.302" y1="375.153" y2="564" gradientUnits="userSpaceOnUse"><stop stop-color="#1A2F65"/><stop offset="1" stop-color="#3D6491"/></linearGradient><linearGradient id="G" x1="254.5" x2="266.5" y1="527" y2="549" gradientUnits="userSpaceOnUse"><stop stop-color="#536ABB"/><stop offset="1" stop-color="#392864"/></linearGradient><linearGradient id="H" x1="264.5" x2="239.452" y1="529" y2="579.904" gradientUnits="userSpaceOnUse"><stop stop-color="#3B4876" stop-opacity=".22"/><stop offset="1" stop-color="#3B56B5"/></linearGradient><linearGradient id="J" x1="277.5" x2="277.5" y1="397" y2="449" gradientUnits="userSpaceOnUse"><stop offset=".239" stop-color="#5B3879"/><stop offset="1" stop-color="#372762"/></linearGradient><linearGradient id="L" x1="96.25" x2="96.25" y1="397.5" y2="515.5" gradientUnits="userSpaceOnUse"><stop stop-color="#5D397A"/><stop offset="1" stop-color="#221D55"/></linearGradient><linearGradient id="M" x1="242.172" x2="324.458" y1="166.271" y2="96.988" gradientUnits="userSpaceOnUse"><stop/><stop offset="0" stop-color="#fff"/><stop offset="1" stop-color="#fff" stop-opacity="0"/></linearGradient><linearGradient id="N" x1="108.172" x2="190.458" y1="210.271" y2="140.988" gradientUnits="userSpaceOnUse"><stop/><stop offset="0" stop-color="#fff"/><stop offset="1" stop-color="#fff" stop-opacity="0"/></linearGradient><linearGradient id="O" x1="185.333" x2="226.119" y1="78.135" y2="43.791" gradientUnits="userSpaceOnUse"><stop/><stop offset="0" stop-color="#fff"/><stop offset="1" stop-color="#fff" stop-opacity="0"/></linearGradient><linearGradient id="P" x1="-19.667" x2="21.119" y1="220.307" y2="185.964" gradientUnits="userSpaceOnUse"><stop/><stop offset="0" stop-color="#fff"/><stop offset="1" stop-color="#fff" stop-opacity="0"/></linearGradient><linearGradient id="U" x1="199.467" x2="210.202" y1="321.822" y2="321.822" gradientUnits="userSpaceOnUse"><stop stop-color="#BCCBFF"/><stop offset="1" stop-color="#5C77D5"/></linearGradient><linearGradient id="Z" x1="209.083" x2="210.172" y1="314.376" y2="314.518" gradientUnits="userSpaceOnUse"><stop stop-color="#F18F1A"/><stop offset="1" stop-color="#BC7014"/></linearGradient><linearGradient id="ab" x1="200.247" x2="199.158" y1="314.575" y2="314.433" gradientUnits="userSpaceOnUse"><stop stop-color="#F18F1A"/><stop offset="1" stop-color="#BC7014"/></linearGradient><linearGradient id="ad" x1="209.354" x2="199.833" y1="315.865" y2="315.927" gradientUnits="userSpaceOnUse"><stop stop-color="#6B87ED"/><stop offset="1" stop-color="#C7D3FF"/></linearGradient><filter id="d" width="601.2" height="522.629" x="110.727" y="-298.128" color-interpolation-filters="sRGB" filterUnits="userSpaceOnUse"><feFlood flood-opacity="0" result="BackgroundImageFix"/><feBlend in="SourceGraphic" in2="BackgroundImageFix" result="shape"/><feGaussianBlur result="effect1_foregroundBlur_1746_1525" stdDeviation="47"/></filter><filter id="e" width="601.2" height="522.629" x="-408.273" y="10.872" color-interpolation-filters="sRGB" filterUnits="userSpaceOnUse"><feFlood flood-opacity="0" result="BackgroundImageFix"/><feBlend in="SourceGraphic" in2="BackgroundImageFix" result="shape"/><feGaussianBlur result="effect1_foregroundBlur_1746_1525" stdDeviation="47"/></filter><filter id="f" width="284" height="284" x="123" y="168" color-interpolation-filters="sRGB" filterUnits="userSpaceOnUse"><feFlood flood-opacity="0" result="BackgroundImageFix"/><feBlend in="SourceGraphic" in2="BackgroundImageFix" result="shape"/><feGaussianBlur result="effect1_foregroundBlur_1746_1525" stdDeviation="38"/></filter><filter id="g" width="181.365" height="180.913" x="171.777" y="214.775" color-interpolation-filters="sRGB" filterUnits="userSpaceOnUse"><feFlood flood-opacity="0" result="BackgroundImageFix"/><feBlend in="SourceGraphic" in2="BackgroundImageFix" result="shape"/><feGaussianBlur result="effect1_foregroundBlur_1746_1525" stdDeviation="8"/></filter><filter id="s" width="101" height="101" x="193" y="202" color-interpolation-filters="sRGB" filterUnits="userSpaceOnUse"><feFlood flood-opacity="0" result="BackgroundImageFix"/><feBlend in="SourceGraphic" in2="BackgroundImageFix" result="shape"/><feGaussianBlur result="effect1_foregroundBlur_1746_1525" stdDeviation="10"/></filter><filter id="t" width="47" height="47" x="191" y="229" color-interpolation-filters="sRGB" filterUnits="userSpaceOnUse"><feFlood flood-opacity="0" result="BackgroundImageFix"/><feBlend in="SourceGraphic" in2="BackgroundImageFix" result="shape"/><feGaussianBlur result="effect1_foregroundBlur_1746_1525" stdDeviation="6"/></filter><filter id="Q" width="31" height="31" x="227" y="149.416" color-interpolation-filters="sRGB" filterUnits="userSpaceOnUse"><feFlood flood-opacity="0" result="BackgroundImageFix"/><feBlend in="SourceGraphic" in2="BackgroundImageFix" result="shape"/><feGaussianBlur result="effect1_foregroundBlur_1746_1525" stdDeviation="6.5"/></filter><filter id="R" width="31" height="31" x="93" y="193.416" color-interpolation-filters="sRGB" filterUnits="userSpaceOnUse"><feFlood flood-opacity="0" result="BackgroundImageFix"/><feBlend in="SourceGraphic" in2="BackgroundImageFix" result="shape"/><feGaussianBlur result="effect1_foregroundBlur_1746_1525" stdDeviation="6.5"/></filter><filter id="S" width="31" height="31" x="170" y="61.416" color-interpolation-filters="sRGB" filterUnits="userSpaceOnUse"><feFlood flood-opacity="0" result="BackgroundImageFix"/><feBlend in="SourceGraphic" in2="BackgroundImageFix" result="shape"/><feGaussianBlur result="effect1_foregroundBlur_1746_1525" stdDeviation="6.5"/></filter><radialGradient id="h" cx="0" cy="0" r="1" gradientTransform="rotate(33.647 -383.77 592.856)scale(79.5635)" gradientUnits="userSpaceOnUse"><stop offset=".719" stop-color="#2E1D5E"/><stop offset="1" stop-color="#413072"/></radialGradient><radialGradient id="q" cx="0" cy="0" r="1" gradientTransform="rotate(33.647 -383.77 592.856)scale(79.5635)" gradientUnits="userSpaceOnUse"><stop offset=".719" stop-color="#2E1D5E"/><stop offset="1" stop-color="#413072"/></radialGradient><radialGradient id="E" cx="0" cy="0" r="1" gradientTransform="rotate(44.502 -82.034 129.934)scale(57.0858)" gradientUnits="userSpaceOnUse"><stop offset="0" stop-color="#6C5FBD"/><stop offset="1" stop-color="#352F79"/></radialGradient><clipPath id="a"><path fill="#fff" d="M0 0h374v552H0z"/></clipPath></defs></svg>